<svg width="225" height="191" viewBox="0 0 225 191" fill="none" xmlns="http://www.w3.org/2000/svg">
<g clip-path="url(#clip0_515_886)">
<path d="M167.415 149.699H97.6522C96.5384 149.697 95.4706 149.238 94.683 148.423C93.8955 147.607 93.4525 146.501 93.4512 145.347V93.3921C93.4524 92.2384 93.8954 91.1323 94.683 90.3165C95.4706 89.5007 96.5384 89.0418 97.6522 89.0405H167.415C168.529 89.0419 169.597 89.5007 170.384 90.3165C171.172 91.1323 171.615 92.2384 171.616 93.3921V145.347C171.615 146.501 171.172 147.607 170.384 148.423C169.597 149.238 168.529 149.697 167.415 149.699Z" fill="#E6E6E6"/>
<path d="M98.9431 146.23H166.127C166.667 146.23 167.185 146.007 167.567 145.612C167.949 145.216 168.164 144.679 168.164 144.12V94.6191C168.164 94.0596 167.949 93.5229 167.567 93.1272C167.185 92.7316 166.667 92.5093 166.127 92.5093H98.9431C98.4029 92.5093 97.8848 92.7316 97.5028 93.1272C97.1208 93.5229 96.9062 94.0596 96.9062 94.6191V144.12C96.9062 144.679 97.1208 145.216 97.5028 145.612C97.8848 146.007 98.4029 146.23 98.9431 146.23Z" fill="white"/>
<path d="M73.9639 79.9484H4.20105C3.08725 79.9471 2.01942 79.4883 1.23185 78.6725C0.444271 77.8567 0.00125815 76.7506 0 75.5969V23.6421C0.00125748 22.4884 0.444271 21.3823 1.23185 20.5665C2.01943 19.7507 3.08725 19.2918 4.20105 19.2905H73.9639C75.0777 19.2918 76.1455 19.7507 76.9331 20.5665C77.7207 21.3823 78.1637 22.4884 78.165 23.6421V75.5969C78.1637 76.7506 77.7207 77.8567 76.9331 78.6725C76.1455 79.4883 75.0777 79.9471 73.9639 79.9484Z" fill="#E6E6E6"/>
<path d="M5.49 76.4796H72.6738C73.214 76.4796 73.7321 76.2573 74.1141 75.8616C74.4961 75.466 74.7107 74.9293 74.7107 74.3697V24.8691C74.7107 24.3096 74.4961 23.7729 74.1141 23.3772C73.7321 22.9816 73.214 22.7593 72.6738 22.7593H5.49C4.94978 22.7593 4.4317 22.9816 4.04971 23.3772C3.66772 23.7729 3.45312 24.3096 3.45312 24.8691V74.3697C3.45312 74.9293 3.66772 75.466 4.04971 75.8616C4.4317 76.2573 4.94978 76.4796 5.49 76.4796Z" fill="white"/>
<path d="M158.119 107.89H115.205C115.003 107.89 114.804 107.931 114.618 108.011C114.432 108.091 114.263 108.208 114.121 108.355C113.978 108.503 113.866 108.678 113.789 108.87C113.712 109.063 113.672 109.269 113.672 109.478C113.672 109.686 113.712 109.893 113.789 110.085C113.866 110.278 113.978 110.453 114.121 110.6C114.263 110.748 114.432 110.865 114.618 110.944C114.804 111.024 115.003 111.065 115.205 111.065H158.119C158.526 111.065 158.915 110.898 159.203 110.6C159.49 110.303 159.652 109.899 159.652 109.478C159.652 109.057 159.49 108.653 159.203 108.355C158.915 108.057 158.526 107.89 158.119 107.89Z" fill="#E6E6E6"/>
<path d="M115.205 117.66C115.003 117.66 114.804 117.701 114.618 117.781C114.432 117.861 114.263 117.977 114.121 118.125C113.978 118.272 113.866 118.447 113.789 118.64C113.712 118.833 113.672 119.039 113.672 119.247C113.672 119.456 113.712 119.662 113.789 119.855C113.866 120.048 113.978 120.223 114.121 120.37C114.263 120.517 114.432 120.634 114.618 120.714C114.804 120.794 115.003 120.835 115.205 120.835H158.119C158.526 120.835 158.915 120.668 159.203 120.37C159.49 120.072 159.652 119.669 159.652 119.247C159.652 118.826 159.49 118.423 159.203 118.125C158.915 117.827 158.526 117.66 158.119 117.66H115.205Z" fill="#E6E6E6"/>
<path d="M115.205 127.429C114.798 127.429 114.408 127.597 114.121 127.894C113.833 128.192 113.672 128.596 113.672 129.017C113.672 129.438 113.833 129.842 114.121 130.14C114.408 130.437 114.798 130.605 115.205 130.605H158.119C158.526 130.605 158.915 130.437 159.203 130.14C159.49 129.842 159.652 129.438 159.652 129.017C159.652 128.596 159.49 128.192 159.203 127.894C158.915 127.597 158.526 127.429 158.119 127.429H115.205Z" fill="#E6E6E6"/>
<path d="M107.068 111.554C108.11 111.554 108.954 110.679 108.954 109.6C108.954 108.521 108.11 107.646 107.068 107.646C106.026 107.646 105.182 108.521 105.182 109.6C105.182 110.679 106.026 111.554 107.068 111.554Z" fill="#4B9960"/>
<path d="M107.068 121.323C108.11 121.323 108.954 120.449 108.954 119.369C108.954 118.29 108.11 117.416 107.068 117.416C106.026 117.416 105.182 118.29 105.182 119.369C105.182 120.449 106.026 121.323 107.068 121.323Z" fill="#E6E6E6"/>
<path d="M107.068 131.093C108.11 131.093 108.954 130.218 108.954 129.139C108.954 128.06 108.11 127.185 107.068 127.185C106.026 127.185 105.182 128.06 105.182 129.139C105.182 130.218 106.026 131.093 107.068 131.093Z" fill="#E6E6E6"/>
<path d="M141.024 109.478C141.024 109.686 140.984 109.893 140.907 110.085C140.83 110.278 140.717 110.453 140.575 110.6C140.433 110.748 140.264 110.865 140.078 110.944C139.892 111.024 139.693 111.065 139.491 111.065H115.26C114.881 111.071 114.513 110.935 114.224 110.682C113.935 110.429 113.743 110.076 113.685 109.689C113.657 109.464 113.674 109.236 113.738 109.02C113.801 108.803 113.908 108.603 114.052 108.433C114.196 108.263 114.373 108.126 114.572 108.033C114.77 107.939 114.986 107.891 115.204 107.89H139.491C139.898 107.89 140.288 108.057 140.575 108.355C140.862 108.653 141.024 109.057 141.024 109.478Z" fill="#4B9960"/>
<path d="M132.535 82.367C135.921 82.367 138.666 79.5239 138.666 76.0168C138.666 72.5096 135.921 69.6665 132.535 69.6665C129.149 69.6665 126.404 72.5096 126.404 76.0168C126.404 79.5239 129.149 82.367 132.535 82.367Z" fill="#E6E6E6"/>
<path d="M135.56 76.5254C135.831 74.7945 134.696 73.1636 133.025 72.8827C131.354 72.6018 129.78 73.7773 129.509 75.5082C129.237 77.2391 130.372 78.87 132.043 79.1509C133.714 79.4318 135.289 78.2563 135.56 76.5254Z" fill="white"/>
<path d="M10.4564 48.1108C10.0536 48.1108 9.66723 48.2766 9.38238 48.5717C9.09753 48.8667 8.9375 49.2669 8.9375 49.6842C8.9375 50.1014 9.09753 50.5016 9.38238 50.7967C9.66723 51.0917 10.0536 51.2575 10.4564 51.2575H67.7074C68.1102 51.2575 68.4966 51.0917 68.7814 50.7967C69.0663 50.5016 69.2263 50.1014 69.2263 49.6842C69.2263 49.2669 69.0663 48.8667 68.7814 48.5717C68.4966 48.2766 68.1102 48.1108 67.7074 48.1108H10.4564Z" fill="#E6E6E6"/>
<path d="M10.4564 57.793C10.0536 57.793 9.66723 57.9587 9.38238 58.2538C9.09753 58.5488 8.9375 58.949 8.9375 59.3663C8.9375 59.7836 9.09753 60.1837 9.38238 60.4788C9.66723 60.7738 10.0536 60.9396 10.4564 60.9396H67.7074C68.1102 60.9396 68.4966 60.7738 68.7814 60.4788C69.0663 60.1837 69.2263 59.7836 69.2263 59.3663C69.2263 58.949 69.0663 58.5488 68.7814 58.2538C68.4966 57.9587 68.1102 57.793 67.7074 57.793H10.4564Z" fill="#E6E6E6"/>
<path d="M36.0443 67.959C35.6415 67.959 35.2551 68.1247 34.9703 68.4198C34.6854 68.7149 34.5254 69.115 34.5254 69.5323C34.5254 69.9496 34.6854 70.3498 34.9703 70.6448C35.2551 70.9399 35.6415 71.1056 36.0443 71.1056H42.1199C42.5227 71.1056 42.9091 70.9399 43.1939 70.6448C43.4788 70.3498 43.6388 69.9496 43.6388 69.5323C43.6388 69.115 43.4788 68.7149 43.1939 68.4198C42.9091 68.1247 42.5227 67.959 42.1199 67.959H36.0443Z" fill="#4B9960"/>
<path d="M30.942 28.1333C30.8181 28.1334 30.6992 28.1845 30.6116 28.2752C30.524 28.366 30.4747 28.489 30.4746 28.6174V40.9062C30.4747 41.0346 30.524 41.1576 30.6116 41.2484C30.6992 41.3391 30.8181 41.3902 30.942 41.3903H47.2245C47.3484 41.3902 47.4672 41.3391 47.5549 41.2484C47.6425 41.1576 47.6918 41.0346 47.6919 40.9062V28.6174C47.6918 28.489 47.6425 28.366 47.5549 28.2752C47.4672 28.1845 47.3484 28.1334 47.2245 28.1333L30.942 28.1333Z" fill="#4B9960"/>
<path d="M39.0822 36.0653C40.5018 36.0653 41.6526 34.8732 41.6526 33.4028C41.6526 31.9323 40.5018 30.7402 39.0822 30.7402C37.6625 30.7402 36.5117 31.9323 36.5117 33.4028C36.5117 34.8732 37.6625 36.0653 39.0822 36.0653Z" fill="white"/>
<path d="M43.2881 40.1801C43.289 40.6009 43.1928 41.0158 43.0077 41.3904H35.1561C34.956 40.9844 34.8599 40.5321 34.8769 40.0767C34.894 39.6212 35.0236 39.178 35.2534 38.7893C35.4833 38.4006 35.8056 38.0796 36.1895 37.8569C36.5734 37.6342 37.0061 37.5174 37.4461 37.5176H40.7176C41.3989 37.5172 42.0525 37.7972 42.5346 38.2959C43.0166 38.7947 43.2877 39.4714 43.2881 40.1771V40.1801Z" fill="white"/>
<path d="M39.0822 36.0653C40.5018 36.0653 41.6526 34.8732 41.6526 33.4028C41.6526 31.9323 40.5018 30.7402 39.0822 30.7402C37.6625 30.7402 36.5117 31.9323 36.5117 33.4028C36.5117 34.8732 37.6625 36.0653 39.0822 36.0653Z" fill="white"/>
<path d="M43.2881 40.1801C43.289 40.6009 43.1928 41.0158 43.0077 41.3904H35.1561C34.956 40.9844 34.8599 40.5321 34.8769 40.0767C34.894 39.6212 35.0236 39.178 35.2534 38.7893C35.4833 38.4006 35.8056 38.0796 36.1895 37.8569C36.5734 37.6342 37.0061 37.5174 37.4461 37.5176H40.7176C41.3989 37.5172 42.0525 37.7972 42.5346 38.2959C43.0166 38.7947 43.2877 39.4714 43.2881 40.1771V40.1801Z" fill="white"/>
<path d="M39.0834 12.5865C42.4389 12.5865 45.159 9.76894 45.159 6.29327C45.159 2.81759 42.4389 0 39.0834 0C35.728 0 33.0078 2.81759 33.0078 6.29327C33.0078 9.76894 35.728 12.5865 39.0834 12.5865Z" fill="#E6E6E6"/>
<path d="M39.0827 9.43987C40.7605 9.43987 42.1205 8.03108 42.1205 6.29324C42.1205 4.5554 40.7605 3.14661 39.0827 3.14661C37.405 3.14661 36.0449 4.5554 36.0449 6.29324C36.0449 8.03108 37.405 9.43987 39.0827 9.43987Z" fill="#4B9960"/>
<path d="M190.479 187.575L187.568 187.575L186.184 175.946L190.48 175.946L190.479 187.575Z" fill="#FFB8B8"/>
<path d="M185.488 186.714H191.101V190.375H181.953C181.953 189.894 182.045 189.418 182.222 188.974C182.4 188.529 182.66 188.126 182.988 187.786C183.317 187.446 183.706 187.176 184.135 186.992C184.564 186.808 185.023 186.714 185.488 186.714Z" fill="#2F2E41"/>
<path d="M206.168 187.575L203.257 187.575L201.873 175.946L206.169 175.946L206.168 187.575Z" fill="#FFB8B8"/>
<path d="M201.177 186.714H206.791V190.375H197.643C197.643 189.894 197.734 189.418 197.912 188.974C198.089 188.529 198.35 188.126 198.678 187.786C199.006 187.446 199.396 187.176 199.824 186.992C200.253 186.808 200.713 186.714 201.177 186.714Z" fill="#2F2E41"/>
<path d="M197.642 104.903C201.096 104.903 203.896 102.003 203.896 98.4252C203.896 94.8478 201.096 91.9478 197.642 91.9478C194.188 91.9478 191.389 94.8478 191.389 98.4252C191.389 102.003 194.188 104.903 197.642 104.903Z" fill="#FFB8B8"/>
<path d="M176.259 140.669C176.303 140.31 176.422 139.966 176.608 139.66C176.794 139.354 177.043 139.094 177.336 138.899C177.63 138.703 177.961 138.576 178.307 138.528C178.653 138.479 179.005 138.51 179.338 138.617L182.833 134.278L185.897 135.835L180.878 141.891C180.667 142.459 180.261 142.927 179.739 143.206C179.217 143.485 178.614 143.556 178.045 143.405C177.475 143.254 176.979 142.893 176.65 142.388C176.321 141.884 176.182 141.272 176.259 140.669Z" fill="#FFB8B8"/>
<path d="M206.338 145.058C206.189 144.731 206.111 144.374 206.109 144.013C206.108 143.651 206.183 143.294 206.33 142.965C206.476 142.637 206.69 142.346 206.957 142.113C207.223 141.88 207.536 141.71 207.873 141.616L208.575 136.011L211.967 135.622L210.869 143.522C210.984 144.119 210.885 144.739 210.588 145.265C210.292 145.79 209.82 146.185 209.262 146.375C208.703 146.564 208.097 146.534 207.558 146.292C207.019 146.049 206.585 145.61 206.338 145.058Z" fill="#FFB8B8"/>
<path d="M202.868 110.66C203.201 110.218 203.64 109.874 204.142 109.664C204.643 109.454 205.19 109.384 205.726 109.462C206.261 109.541 206.768 109.764 207.194 110.11C207.62 110.456 207.95 110.912 208.151 111.433L213.277 124.682C213.801 126.037 213.968 127.51 213.761 128.953L212.091 140.599C212.07 140.749 212.017 140.893 211.937 141.02C211.857 141.148 211.751 141.255 211.627 141.336C211.503 141.418 211.364 141.47 211.218 141.49C211.073 141.51 210.925 141.497 210.785 141.453L208.585 140.753C208.357 140.681 208.161 140.528 208.031 140.321C207.901 140.114 207.845 139.867 207.873 139.622C208.649 132.765 207.623 125.819 204.903 119.517L202.487 113.919C202.259 113.391 202.174 112.809 202.241 112.234C202.308 111.66 202.525 111.116 202.868 110.66Z" fill="#4B9960"/>
<path d="M199.166 104.902C200.107 104.923 201.042 104.738 201.909 104.358C202.776 103.978 203.556 103.413 204.197 102.699C204.838 101.984 205.325 101.138 205.628 100.214C205.931 99.2911 206.041 98.3118 205.952 97.3411C205.863 96.3703 205.577 95.43 205.113 94.5819C204.648 93.7338 204.015 92.9972 203.256 92.4205C202.497 91.8437 201.629 91.4398 200.709 91.2354C199.788 91.031 198.836 91.0307 197.916 91.2345C196.541 90.3696 194.942 89.7876 193.339 89.9356C191.737 90.0836 190.152 91.0691 189.553 92.6156C188.953 94.1622 189.597 96.2008 191.087 96.8293C192.042 97.2323 193.121 97.0369 194.141 96.8744C195.16 96.7119 196.272 96.6059 197.159 97.1507C198.047 97.6955 198.445 99.1565 197.651 99.8377C197.23 100.213 196.929 100.713 196.789 101.269C196.648 101.826 196.675 102.414 196.866 102.955C197.265 104.025 198.355 104.884 199.166 104.902Z" fill="#2F2E41"/>
<path d="M206.924 140.413L208.033 184.018C208.037 184.163 208.011 184.308 207.959 184.443C207.906 184.577 207.827 184.699 207.726 184.801C207.626 184.902 207.506 184.981 207.375 185.033C207.243 185.084 207.103 185.107 206.963 185.099L203.309 184.906C203.076 184.894 202.854 184.799 202.68 184.637C202.506 184.476 202.392 184.257 202.355 184.018L198.009 155.696C197.99 155.575 197.931 155.465 197.842 155.383C197.753 155.302 197.64 155.256 197.521 155.252C197.403 155.248 197.287 155.287 197.193 155.363C197.1 155.438 197.034 155.544 197.009 155.664L191.125 182.933C191.094 183.079 191.033 183.216 190.946 183.335C190.86 183.455 190.75 183.554 190.624 183.626C190.498 183.699 190.358 183.742 190.214 183.754C190.071 183.767 189.926 183.747 189.79 183.697L186.164 183.467C185.954 183.39 185.774 183.244 185.652 183.051C185.53 182.858 185.473 182.629 185.489 182.399L188.655 140L206.924 140.413Z" fill="#2F2E41"/>
<path d="M208.704 119.702C209.316 113.094 204.626 107.117 198.233 106.647C195.479 106.444 191.203 106.372 189.793 110.112C185.547 121.376 192.981 121.103 190.42 130.863C187.858 140.622 185.596 141.182 189.111 141.887C192.625 142.591 208.427 146.752 207.778 139.882C207.379 135.66 208.094 126.293 208.704 119.702Z" fill="#4B9960"/>
<path d="M190.544 108.966C191.049 108.763 191.596 108.703 192.131 108.789C192.666 108.876 193.169 109.107 193.59 109.46C194.011 109.812 194.334 110.274 194.528 110.797C194.722 111.321 194.779 111.888 194.693 112.441L192.697 125.362C192.356 127.571 191.454 129.647 190.084 131.377L183.601 139.559C183.508 139.676 183.392 139.771 183.26 139.838C183.128 139.904 182.984 139.94 182.837 139.944C182.691 139.947 182.545 139.918 182.411 139.858C182.276 139.798 182.155 139.708 182.057 139.595L180.517 137.824C180.358 137.641 180.266 137.405 180.257 137.159C180.247 136.912 180.322 136.67 180.468 136.474L180.921 135.865C184.692 130.796 187.071 124.765 187.807 118.411L188.6 111.558C188.667 110.984 188.883 110.44 189.225 109.983C189.568 109.526 190.024 109.175 190.544 108.966Z" fill="#4B9960"/>
<path d="M224.745 191H159.055C158.988 191 158.923 190.972 158.875 190.923C158.828 190.873 158.801 190.806 158.801 190.736C158.801 190.666 158.828 190.599 158.875 190.55C158.923 190.5 158.988 190.472 159.055 190.472H224.745C224.812 190.472 224.877 190.5 224.925 190.55C224.972 190.599 224.999 190.666 224.999 190.736C224.999 190.806 224.972 190.873 224.925 190.923C224.877 190.972 224.812 191 224.745 191Z" fill="#CCCCCC"/>
</g>
<defs>
<clipPath id="clip0_515_886">
<rect width="225" height="191" fill="white"/>
</clipPath>
</defs>
</svg>
