<svg width="256" height="260" viewBox="0 0 256 260" fill="none" xmlns="http://www.w3.org/2000/svg">
<path d="M136.085 260C202.312 260 256 227.114 256 186.547C256 145.981 202.312 113.095 136.085 113.095C69.8581 113.095 16.1704 145.981 16.1704 186.547C16.1704 227.114 69.8581 260 136.085 260Z" fill="#F5F5F5"/>
<path d="M196.763 217.028C196.303 217.028 195.617 216.949 194.971 216.576L173.772 204.324C173.013 203.886 172.559 203.151 172.559 202.361C172.559 201.569 173.013 200.835 173.772 200.396L208.876 180.109C209.523 179.736 210.207 179.657 210.668 179.657C211.128 179.657 211.814 179.736 212.46 180.109L233.659 192.361C234.419 192.799 234.872 193.533 234.872 194.325C234.872 195.116 234.419 195.85 233.659 196.289L198.554 216.575C197.908 216.949 197.223 217.028 196.763 217.028Z" fill="#E0E0E0"/>
<path d="M152.207 243.887C149.448 243.887 146.776 243.583 144.266 242.983C141.684 242.369 139.324 241.498 137.254 240.392L137.202 240.363C136.778 240.125 136.229 239.795 135.524 239.355C134.862 238.942 134.183 238.505 133.484 238.047C132.783 237.589 132.127 237.148 131.513 236.725C130.874 236.288 130.382 235.935 130.018 235.652C128.204 234.232 126.836 232.606 125.941 230.812C124.957 228.836 124.668 226.75 125.08 224.612C125.471 222.585 126.555 220.564 128.301 218.609C129.953 216.76 132.264 215.06 135.368 213.413C138.808 211.588 142.141 210.247 145.273 209.428C148.419 208.605 151.442 208.176 154.26 208.153L154.527 208.152C157.277 208.152 159.9 208.494 162.323 209.168C164.778 209.852 167.097 210.779 169.216 211.922C170.06 212.39 170.965 212.942 171.935 213.578C172.919 214.223 173.742 214.802 174.449 215.346C175.766 216.321 176.694 217.409 177.208 218.58C177.703 219.722 177.863 220.867 177.686 221.996C177.765 221.991 177.843 221.987 177.922 221.986L178.07 221.984C179.07 221.984 179.993 222.28 180.746 222.84C181.766 223.562 182.279 224.759 182.089 225.993C181.958 226.846 181.738 227.766 181.435 228.73C181.073 229.88 180.419 231.058 179.487 232.236C178.617 233.339 177.455 234.459 175.935 235.661C174.467 236.819 172.52 238.045 170.146 239.304C167.174 240.881 164.143 242.05 161.136 242.778C158.145 243.501 155.202 243.873 152.388 243.886L152.207 243.887ZM150.328 225.716C150.424 225.785 150.532 225.861 150.653 225.94C151.602 226.562 152.54 226.929 153.445 227.03C153.614 227.049 153.779 227.059 153.937 227.059C154.342 227.059 154.722 226.997 155.085 226.87C154.997 226.808 154.9 226.741 154.794 226.671C153.836 226.043 152.885 225.666 151.969 225.551C151.804 225.531 151.64 225.52 151.48 225.52C151.084 225.52 150.703 225.584 150.328 225.716Z" fill="#E0E0E0"/>
<path d="M89.3609 234.111L20.4099 194.355C18.9556 193.514 18.9556 192.152 20.4099 191.311L160.344 110.475C161.798 109.635 164.156 109.635 165.611 110.475L234.562 150.231C236.016 151.072 236.016 152.434 234.562 153.275L94.6279 234.111C93.1736 234.951 90.8152 234.951 89.3609 234.111Z" fill="#E0E0E0"/>
<path d="M84.74 31.8255L81.2305 33.8537C81.2476 33.6966 81.2599 33.5411 81.2599 33.3889V32.3713C81.2599 30.5602 79.9899 29.8262 78.4226 30.7317C77.7879 31.0985 77.2041 31.6796 76.7316 32.3595C76.4751 30.0825 74.6903 29.2343 72.5221 30.4867C70.1781 31.8416 68.2777 35.1362 68.2777 37.8453V39.368C68.2777 40.0698 68.4073 40.6606 68.6371 41.1319L65.7221 42.8165C64.8528 43.3188 64.1484 44.5402 64.1484 45.5449C64.1484 46.5496 64.8528 46.9566 65.7221 46.4542L84.74 35.4643C85.6093 34.9619 86.3137 33.7406 86.3137 32.7359C86.3137 31.7306 85.6093 31.3231 84.74 31.8255Z" fill="#EBEBEB"/>
<path d="M61.5415 22.495L59.6057 23.2402V18.9714C59.6057 15.5873 56.9093 14.7761 53.9815 16.4682C51.0537 18.1603 48.6803 22.2752 48.6803 25.6588V26.2786C48.0161 26.0132 47.158 26.1161 46.2201 26.6582C44.1129 27.8758 42.4053 30.8369 42.4053 33.2721V33.5535L39.7062 35.1137C38.3189 35.9153 37.1941 37.8652 37.1941 39.4688C37.1941 41.0724 38.3189 41.7222 39.7062 40.9207L61.542 28.302C62.9293 27.4999 64.0542 25.55 64.0542 23.9463C64.0536 22.3433 62.9288 21.6929 61.5415 22.495Z" fill="#EBEBEB"/>
<path d="M32.6386 178.833L36.2841 176.725C36.2841 176.725 38.454 167.7 37.5895 159.58C36.3736 148.163 28.8655 143.867 26.0106 144.852C23.1556 145.836 22.3286 149.158 27.0529 155.958C29.8399 159.97 33.2637 168.327 32.6386 178.833Z" fill="#27DEBF"/>
<g opacity="0.15">
<path d="M32.6386 178.833L36.2841 176.725C36.2841 176.725 38.454 167.7 37.5895 159.58C36.3736 148.163 28.8655 143.867 26.0106 144.852C23.1556 145.836 22.3286 149.158 27.0529 155.958C29.8399 159.97 33.2637 168.327 32.6386 178.833Z" fill="black"/>
</g>
<path d="M34.1491 174.4C34.1373 174.399 34.1261 174.398 34.1143 174.396C33.9772 174.369 33.8866 174.237 33.9129 174.1C35.9113 163.569 32.2363 151.736 27.685 146.812C27.5902 146.71 27.5961 146.549 27.6989 146.454C27.8018 146.361 27.9614 146.366 28.0562 146.468C32.69 151.482 36.4373 163.509 34.4094 174.194C34.3864 174.32 34.2728 174.406 34.1491 174.4Z" fill="white"/>
<path d="M22.5654 185.953C21.9896 186.246 20.4576 184.934 20.0307 184.615C19.3001 184.069 18.7233 183.319 18.3569 182.485C17.9305 181.514 17.8625 180.493 18.0639 179.453C18.1683 178.913 18.3467 178.392 18.5251 177.872C18.6997 177.361 18.8748 176.851 19.0495 176.341C19.2219 175.837 19.3966 175.316 19.3558 174.786C19.2734 173.716 18.3692 172.925 17.5449 172.239C16.6337 171.482 15.6948 170.495 15.7644 169.217C15.8185 168.23 16.375 167.34 17.0247 166.596C17.6745 165.852 18.434 165.205 19.0275 164.415C19.4544 163.847 19.7994 163.171 19.7704 162.46C19.7522 162.018 19.591 161.595 19.4008 161.197C18.9916 160.341 18.4345 159.549 18.1689 158.638C17.9027 157.728 18.0028 156.618 18.7329 156.013C19.3317 155.516 20.1866 155.486 20.959 155.576C21.6735 155.66 22.3576 156.019 22.9676 156.4C24.9393 157.632 25.9758 160.095 28.0841 161.072C28.8972 161.449 29.8035 161.568 30.6573 161.841C31.5111 162.114 32.3713 162.601 32.7318 163.422C33.4426 165.042 31.878 166.914 32.3488 168.619C32.7655 170.127 34.1775 170.768 34.9193 172.146C35.2434 172.749 35.2911 173.429 35.2 174.108C35.0452 175.256 34.8342 176.094 34.2166 177.349C33.7061 178.386 32.269 180.346 32.269 180.346C32.269 180.346 22.6538 185.908 22.5654 185.953Z" fill="#27DEBF"/>
<path d="M28.1457 183.042C28.1425 183.042 28.1388 183.041 28.1388 183.041C27.9957 183.028 27.894 182.904 27.9063 182.765C28.8292 172.749 24.663 161.43 21.3892 158.037C21.2922 157.937 21.2949 157.777 21.3956 157.679C21.4963 157.582 21.6559 157.585 21.7534 157.686C25.0926 161.146 29.3461 172.655 28.4103 182.812C28.398 182.948 28.2807 183.048 28.1457 183.042Z" fill="white"/>
<path d="M27.1521 170.692C27.1274 170.69 27.1022 170.686 27.0781 170.677C23.9066 169.517 19.9001 169.138 19.8604 169.135C19.7212 169.122 19.6189 168.999 19.6317 168.86C19.6446 168.721 19.756 168.616 19.907 168.631C19.9477 168.635 24.018 169.019 27.2522 170.201C27.3835 170.249 27.4509 170.395 27.4027 170.526C27.3631 170.633 27.2597 170.697 27.1521 170.692Z" fill="white"/>
<path d="M24.9687 191.817L89.0759 228.857C91.1563 230.06 93.608 230.085 95.7644 228.983L224.829 154.392C226.862 153.217 228.511 150.589 228.512 148.522C228.512 146.455 226.864 143.827 224.831 142.652L160.961 105.742C158.936 104.571 155.622 104.571 153.597 105.742L24.9687 180.077C22.9354 181.253 21.2872 183.88 21.2872 185.947C21.2872 188.014 22.9354 190.642 24.9687 191.817Z" fill="#37474F"/>
<path d="M89.0759 228.857L24.9687 191.817C22.9354 190.641 21.2872 188.014 21.2872 185.947C21.2872 183.88 22.9354 181.252 24.9687 180.077L92.5645 141.013V229.777C91.3642 229.788 90.1686 229.489 89.0759 228.857Z" fill="#263238"/>
<path d="M90.6009 222.258C92.3862 223.289 95.3081 223.289 97.0934 222.258L224.846 148.43C227.593 146.843 227.593 144.246 224.846 142.658L160.966 105.742C158.941 104.571 155.628 104.571 153.603 105.742L24.9746 180.077C22.9499 181.248 22.9499 183.162 24.9746 184.333L90.6009 222.258Z" fill="#455A64"/>
<path d="M96.8052 214.824C98.7372 215.941 101.87 215.941 103.802 214.824L213.73 151.296C215.662 150.18 215.662 148.37 213.73 147.253L153.636 112.529C151.712 111.417 148.563 111.417 146.639 112.529L36.7114 176.057C34.7874 177.169 34.7874 178.988 36.7114 180.1L96.8052 214.824Z" fill="#37474F"/>
<path d="M150.351 111.707C151.547 111.737 152.728 112.005 153.636 112.529L213.73 147.253C215.662 148.37 215.662 150.181 213.73 151.297L201.818 158.181L150.351 125.284V111.707Z" fill="#263238"/>
<path d="M146.598 115.158C148.522 114.046 151.671 114.046 153.595 115.158L213.688 149.882C214.07 150.103 214.371 150.352 214.602 150.616C214.377 150.861 214.087 151.091 213.73 151.297L103.802 214.824C101.87 215.941 98.7372 215.941 96.8052 214.824L36.7114 180.1C36.3344 179.882 36.0333 179.637 35.8041 179.375C36.028 179.127 36.3108 178.894 36.6702 178.686L146.598 115.158Z" fill="#FAFAFA"/>
<path d="M191.764 131.012L181.113 124.857C180.478 124.49 180.446 123.913 181.042 123.569C181.638 123.224 182.637 123.243 183.272 123.61L193.922 129.765C194.557 130.132 194.59 130.709 193.993 131.053C193.397 131.397 192.399 131.379 191.764 131.012Z" fill="#263238"/>
<path d="M173.475 120.459C172.879 120.114 172.879 119.556 173.475 119.212C174.071 118.867 175.038 118.867 175.634 119.212C176.23 119.556 176.23 120.114 175.634 120.459C175.038 120.803 174.071 120.803 173.475 120.459Z" fill="#263238"/>
<path d="M169.158 117.961C168.562 117.616 168.562 117.058 169.158 116.713C169.754 116.369 170.721 116.369 171.317 116.713C171.913 117.058 171.913 117.616 171.317 117.961C170.721 118.305 169.754 118.305 169.158 117.961Z" fill="#263238"/>
<path d="M203.697 137.921C203.101 137.577 203.101 137.018 203.697 136.674C204.293 136.329 205.259 136.329 205.856 136.674C206.452 137.018 206.452 137.576 205.856 137.921C205.259 138.265 204.293 138.265 203.697 137.921Z" fill="#263238"/>
<path d="M199.38 135.423C198.784 135.078 198.784 134.52 199.38 134.175C199.976 133.831 200.942 133.831 201.538 134.175C202.135 134.52 202.135 135.078 201.538 135.423C200.942 135.768 199.976 135.768 199.38 135.423Z" fill="#263238"/>
<path d="M94.12 197.081V197.313C94.12 197.686 94.3808 198.138 94.7028 198.324L107.208 205.551C107.53 205.737 108.052 205.737 108.373 205.551L129.081 193.584C129.402 193.398 129.663 192.946 129.663 192.573V192.341C129.663 191.969 129.402 191.516 129.081 191.33L116.576 184.103C116.254 183.917 115.731 183.917 115.41 184.103L94.7028 196.07C94.3808 196.256 94.12 196.709 94.12 197.081Z" fill="#27DEBF"/>
<path d="M94.12 197.081V197.313C94.12 197.686 94.3808 198.138 94.7028 198.324L107.208 205.551C107.53 205.737 108.052 205.737 108.373 205.551L129.081 193.584C129.402 193.398 129.663 192.946 129.663 192.573V192.341C129.663 191.969 129.402 191.516 129.081 191.33L116.576 184.103C116.254 183.917 115.731 183.917 115.41 184.103L94.7028 196.07C94.3808 196.256 94.12 196.709 94.12 197.081Z" fill="#27DEBF"/>
<path opacity="0.3" d="M129.081 191.33L116.576 184.103C116.254 183.917 115.732 183.917 115.41 184.103L107.791 188.507V205.69H107.79C108.001 205.69 108.212 205.644 108.373 205.551L129.081 193.584C129.402 193.398 129.663 192.946 129.663 192.573V192.341C129.664 191.969 129.403 191.516 129.081 191.33Z" fill="white"/>
<path opacity="0.15" d="M129.081 191.33L116.576 184.103C116.254 183.917 115.732 183.917 115.41 184.103L107.791 188.507V205.69H107.79C108.001 205.69 108.212 205.644 108.373 205.551L129.081 193.584C129.402 193.398 129.663 192.946 129.663 192.573V192.341C129.664 191.969 129.403 191.516 129.081 191.33Z" fill="black"/>
<path opacity="0.3" d="M107.791 188.507L94.7033 196.07C94.3813 196.256 94.1205 196.709 94.1205 197.081V197.313C94.1205 197.685 94.3813 198.138 94.7033 198.324L107.208 205.551C107.369 205.643 107.58 205.69 107.791 205.69H107.792V188.507H107.791Z" fill="white"/>
<path opacity="0.2" d="M107.791 188.507L94.7033 196.07C94.3813 196.256 94.1205 196.709 94.1205 197.081V197.313C94.1205 197.685 94.3813 198.138 94.7033 198.324L107.208 205.551C107.369 205.643 107.58 205.69 107.791 205.69H107.792V188.507H107.791Z" fill="black"/>
<path d="M105.206 202.813L94.7027 196.744C94.3808 196.558 94.3808 196.256 94.7027 196.07L115.41 184.103C115.732 183.917 116.254 183.917 116.576 184.103L129.081 191.33C129.402 191.516 129.402 191.818 129.081 192.004L125.645 193.989L124.443 194.684L108.373 203.97C108.051 204.156 107.529 204.156 107.207 203.97L106.188 203.382L105.206 202.813Z" fill="#27DEBF"/>
<path opacity="0.3" d="M105.206 202.813L94.7027 196.744C94.3808 196.558 94.3808 196.256 94.7027 196.07L115.41 184.103C115.732 183.917 116.254 183.917 116.576 184.103L129.081 191.33C129.402 191.516 129.402 191.818 129.081 192.004L125.645 193.989L124.443 194.684L108.373 203.97C108.051 204.156 107.529 204.156 107.207 203.97L106.188 203.382L105.206 202.813Z" fill="white"/>
<path opacity="0.15" d="M114.74 192.73L129.081 191.33L114.866 192.136L116.576 184.104C116.401 184.003 116.169 183.962 115.941 183.97L113.259 194.827L94.466 196.379C94.4526 196.51 94.5292 196.644 94.7027 196.745L109.879 195.863L107.79 204.111L110.462 195.829L113.054 195.678C113.38 195.659 113.678 195.527 113.909 195.321H113.911L113.911 195.318C114.127 195.124 114.285 194.865 114.349 194.566L114.74 192.73Z" fill="black"/>
<path opacity="0.3" d="M98.9504 196.008L113.259 194.827L113.772 192.775L114.054 191.632L115.944 183.97C115.75 183.977 115.559 184.018 115.411 184.104L105.057 190.087L94.7028 196.071C94.5544 196.156 94.4778 196.267 94.4661 196.379L97.336 196.142L98.9504 196.008Z" fill="white"/>
<path d="M113.625 182.39C114.933 181.634 117.053 181.634 118.361 182.39C119.669 183.146 119.669 184.371 118.361 185.127C117.054 185.883 114.933 185.883 113.625 185.127C112.318 184.371 112.318 183.145 113.625 182.39Z" fill="#F28F8F"/>
<path d="M114.339 184.208C114.297 184.205 114.265 184.194 114.241 184.175C114.218 184.155 114.209 184.133 114.214 184.109L114.41 183.247C114.415 183.226 114.422 183.2 114.432 183.171C114.441 183.141 114.465 183.116 114.504 183.093L114.983 182.815C115.012 182.799 115.047 182.791 115.089 182.791C115.131 182.791 115.166 182.799 115.195 182.815L117.731 184.281C117.759 184.297 117.774 184.318 117.774 184.342C117.774 184.367 117.76 184.387 117.731 184.403L117.217 184.701C117.188 184.718 117.152 184.726 117.111 184.726C117.068 184.726 117.033 184.717 117.005 184.701L115.289 183.709L115.175 184.183C115.17 184.208 115.151 184.227 115.119 184.241C115.086 184.256 115.048 184.261 115.007 184.258L114.339 184.208Z" fill="#FAFAFA"/>
<path d="M137.677 187.948L123.607 179.816C123.287 179.631 123.287 179.331 123.607 179.146L174.664 149.639C174.984 149.454 175.503 149.454 175.824 149.639L189.895 157.771C190.216 157.956 190.216 158.256 189.895 158.441L138.836 187.948C138.516 188.133 137.997 188.133 137.677 187.948Z" fill="#27DEBF"/>
<path d="M134.972 178.76C134.924 178.788 134.875 178.801 134.825 178.801C134.775 178.801 134.737 178.801 134.712 178.799L131.787 178.469L133.518 179.469C133.548 179.487 133.564 179.509 133.564 179.535C133.563 179.561 133.548 179.583 133.518 179.6L133.177 179.797C133.146 179.815 133.108 179.824 133.064 179.824C133.019 179.824 132.981 179.815 132.95 179.797L130.235 178.228C130.204 178.21 130.189 178.188 130.188 178.162C130.189 178.136 130.204 178.114 130.235 178.097L130.529 177.927C130.577 177.899 130.626 177.885 130.676 177.885C130.727 177.885 130.764 177.886 130.789 177.888L133.716 178.218L131.983 177.217C131.953 177.2 131.938 177.178 131.937 177.152C131.938 177.126 131.953 177.104 131.983 177.087L132.324 176.89C132.355 176.872 132.393 176.863 132.438 176.863C132.483 176.863 132.52 176.872 132.552 176.89L135.266 178.459C135.298 178.477 135.313 178.499 135.313 178.525C135.312 178.551 135.298 178.572 135.266 178.59L134.972 178.76Z" fill="#FAFAFA"/>
<path d="M134.795 177.599C134.638 177.508 134.515 177.409 134.424 177.302C134.333 177.194 134.28 177.085 134.268 176.974C134.256 176.863 134.283 176.753 134.352 176.646C134.421 176.538 134.534 176.439 134.69 176.348C134.847 176.257 135.018 176.192 135.203 176.151C135.388 176.111 135.574 176.093 135.761 176.096C135.947 176.101 136.13 176.126 136.308 176.173C136.488 176.22 136.649 176.285 136.792 176.368L136.981 176.477C137.012 176.494 137.027 176.516 137.028 176.543C137.027 176.568 137.012 176.59 136.981 176.608L135.577 177.419C135.642 177.456 135.712 177.482 135.788 177.495C135.863 177.508 135.941 177.511 136.02 177.505C136.098 177.498 136.175 177.483 136.251 177.459C136.326 177.434 136.395 177.404 136.456 177.369C136.546 177.317 136.61 177.27 136.648 177.227C136.685 177.184 136.709 177.144 136.717 177.106C136.725 177.075 136.736 177.051 136.747 177.036C136.758 177.019 136.781 177.001 136.814 176.982L137.151 176.788C137.182 176.77 137.22 176.76 137.266 176.76C137.312 176.759 137.349 176.768 137.377 176.788C137.414 176.812 137.443 176.853 137.463 176.912C137.484 176.971 137.484 177.042 137.462 177.123C137.439 177.204 137.39 177.291 137.312 177.384C137.235 177.476 137.118 177.569 136.962 177.66C136.805 177.75 136.635 177.817 136.453 177.859C136.271 177.901 136.084 177.919 135.894 177.912C135.703 177.906 135.515 177.877 135.328 177.824C135.14 177.771 134.964 177.697 134.795 177.599ZM135.195 176.64C135.114 176.687 135.056 176.734 135.023 176.781C134.989 176.828 134.971 176.873 134.97 176.918C134.968 176.962 134.981 177.004 135.006 177.043C135.031 177.082 135.062 177.115 135.098 177.142L136.047 176.593C136 176.573 135.945 176.553 135.884 176.536C135.822 176.518 135.755 176.508 135.682 176.506C135.609 176.504 135.532 176.514 135.451 176.533C135.37 176.552 135.285 176.588 135.195 176.64Z" fill="#FAFAFA"/>
<path d="M139.599 175.066L138.776 174.153C138.762 174.135 138.752 174.115 138.744 174.093C138.737 174.071 138.753 174.049 138.792 174.026L139.112 173.842C139.143 173.824 139.181 173.815 139.226 173.815C139.271 173.815 139.308 173.824 139.339 173.842C139.35 173.848 139.359 173.854 139.364 173.861L140.668 175.347C140.685 175.367 140.696 175.388 140.702 175.411C140.707 175.433 140.69 175.456 140.651 175.479L140.331 175.663C140.292 175.686 140.253 175.695 140.216 175.692C140.178 175.687 140.141 175.681 140.104 175.673L138.575 175.26L139.289 176.144C139.303 176.165 139.314 176.187 139.321 176.209C139.328 176.23 139.311 176.253 139.272 176.275L138.953 176.46C138.913 176.483 138.874 176.493 138.835 176.489C138.796 176.486 138.76 176.48 138.726 176.47L136.153 175.717C136.142 175.714 136.131 175.709 136.12 175.703C136.089 175.685 136.073 175.663 136.074 175.637C136.073 175.611 136.088 175.589 136.12 175.572L136.439 175.387C136.478 175.364 136.517 175.354 136.555 175.359C136.593 175.363 136.627 175.368 136.658 175.377L138.238 175.853L137.44 174.926C137.423 174.909 137.414 174.889 137.413 174.863C137.411 174.839 137.425 174.817 137.456 174.799L137.776 174.615C137.807 174.597 137.844 174.588 137.888 174.589C137.931 174.59 137.966 174.595 137.995 174.605L139.599 175.066Z" fill="#FAFAFA"/>
<path d="M141.499 173.725C141.343 173.634 141.219 173.535 141.128 173.427C141.037 173.32 140.984 173.21 140.972 173.099C140.96 172.989 140.987 172.879 141.056 172.772C141.124 172.664 141.237 172.565 141.394 172.474C141.551 172.383 141.722 172.318 141.907 172.277C142.092 172.237 142.278 172.218 142.465 172.222C142.65 172.226 142.834 172.252 143.013 172.298C143.192 172.345 143.353 172.41 143.496 172.493L143.685 172.602C143.716 172.62 143.731 172.641 143.732 172.668C143.731 172.693 143.716 172.715 143.685 172.733L142.281 173.544C142.346 173.582 142.416 173.607 142.492 173.62C142.567 173.633 142.645 173.636 142.723 173.63C142.802 173.623 142.879 173.608 142.955 173.583C143.03 173.559 143.099 173.529 143.16 173.493C143.25 173.441 143.314 173.394 143.352 173.351C143.389 173.308 143.413 173.268 143.421 173.231C143.429 173.2 143.439 173.176 143.451 173.16C143.463 173.144 143.484 173.126 143.518 173.107L143.855 172.912C143.885 172.894 143.924 172.885 143.97 172.884C144.016 172.884 144.053 172.893 144.082 172.912C144.118 172.937 144.147 172.979 144.167 173.038C144.188 173.096 144.187 173.166 144.165 173.248C144.143 173.328 144.093 173.416 144.016 173.509C143.939 173.602 143.822 173.694 143.666 173.784C143.509 173.875 143.339 173.942 143.157 173.983C142.975 174.026 142.788 174.043 142.598 174.037C142.407 174.031 142.219 174.002 142.032 173.949C141.845 173.897 141.669 173.822 141.499 173.725ZM141.899 172.766C141.818 172.812 141.76 172.86 141.727 172.907C141.693 172.953 141.675 172.999 141.674 173.044C141.672 173.089 141.685 173.13 141.71 173.168C141.735 173.208 141.766 173.241 141.802 173.269L142.751 172.72C142.705 172.699 142.649 172.679 142.588 172.662C142.526 172.644 142.459 172.634 142.386 172.632C142.313 172.631 142.236 172.64 142.154 172.659C142.074 172.678 141.989 172.713 141.899 172.766Z" fill="#FAFAFA"/>
<path d="M143.685 171.442C143.671 171.356 143.691 171.273 143.742 171.192C143.794 171.112 143.871 171.042 143.975 170.982C144.152 170.88 144.329 170.815 144.507 170.789C144.685 170.762 144.859 170.761 145.03 170.785C145.011 170.732 145.005 170.677 145.013 170.62C145.022 170.563 145.041 170.509 145.07 170.456C145.099 170.403 145.139 170.354 145.187 170.308C145.237 170.262 145.292 170.221 145.354 170.185C145.513 170.093 145.673 170.032 145.833 170.001C145.993 169.97 146.15 169.962 146.306 169.975C146.462 169.989 146.613 170.022 146.758 170.076C146.903 170.13 147.043 170.194 147.174 170.27L148.305 170.923C148.336 170.941 148.351 170.963 148.351 170.989C148.351 171.015 148.336 171.037 148.305 171.054L147.985 171.239C147.954 171.257 147.916 171.266 147.872 171.266C147.827 171.266 147.789 171.257 147.758 171.239L146.649 170.598C146.458 170.488 146.289 170.433 146.14 170.43C145.991 170.429 145.851 170.466 145.72 170.542C145.607 170.607 145.548 170.683 145.541 170.772C145.534 170.86 145.619 170.959 145.795 171.067L146.926 171.72C146.957 171.739 146.973 171.76 146.973 171.786C146.972 171.812 146.957 171.834 146.926 171.852L146.606 172.037C146.576 172.054 146.538 172.063 146.493 172.064C146.448 172.063 146.411 172.054 146.38 172.036L145.27 171.395C145.08 171.285 144.91 171.229 144.761 171.227C144.613 171.226 144.473 171.263 144.341 171.339C144.226 171.406 144.167 171.485 144.163 171.576C144.158 171.667 144.249 171.767 144.438 171.876L145.548 172.517C145.578 172.535 145.594 172.557 145.594 172.583C145.594 172.609 145.578 172.631 145.548 172.648L145.228 172.833C145.197 172.851 145.159 172.86 145.114 172.86C145.069 172.86 145.032 172.851 145.001 172.833L143.043 171.702C143.012 171.684 142.996 171.662 142.996 171.636C142.996 171.61 143.011 171.588 143.042 171.57L143.361 171.385C143.393 171.368 143.43 171.358 143.475 171.358C143.52 171.358 143.558 171.368 143.589 171.385L143.685 171.442Z" fill="#FAFAFA"/>
<path d="M147.33 169.714C147.282 169.674 147.245 169.622 147.218 169.56C147.192 169.498 147.186 169.428 147.202 169.351C147.217 169.274 147.26 169.193 147.329 169.109C147.4 169.025 147.506 168.941 147.65 168.859C147.793 168.776 147.94 168.713 148.092 168.669C148.245 168.624 148.4 168.599 148.555 168.593C148.71 168.587 148.866 168.603 149.022 168.642C149.177 168.68 149.326 168.74 149.469 168.822L150.705 169.537C150.736 169.555 150.752 169.576 150.752 169.603C150.751 169.628 150.736 169.65 150.705 169.668L150.386 169.853C150.355 169.871 150.317 169.88 150.272 169.88C150.227 169.88 150.19 169.871 150.159 169.852L150.02 169.772C150.042 169.853 150.027 169.942 149.974 170.04C149.92 170.137 149.808 170.235 149.637 170.334C149.516 170.404 149.392 170.457 149.265 170.493C149.138 170.53 149.012 170.549 148.889 170.553C148.766 170.556 148.647 170.545 148.532 170.518C148.417 170.492 148.312 170.452 148.216 170.397C148.023 170.285 147.941 170.158 147.968 170.015C147.997 169.872 148.106 169.724 148.296 169.568L148.864 169.104C148.749 169.038 148.629 169.013 148.507 169.029C148.383 169.045 148.266 169.085 148.154 169.151C148.084 169.191 148.039 169.228 148.019 169.263C147.999 169.296 147.988 169.334 147.985 169.374C147.983 169.402 147.974 169.424 147.962 169.441C147.95 169.458 147.93 169.473 147.906 169.488L147.515 169.714C147.487 169.73 147.455 169.739 147.418 169.741C147.381 169.742 147.352 169.734 147.33 169.714ZM149.217 169.994C149.312 169.939 149.384 169.882 149.431 169.824C149.479 169.766 149.506 169.709 149.51 169.654C149.517 169.599 149.504 169.548 149.474 169.501C149.442 169.454 149.397 169.414 149.339 169.379L149.297 169.355L148.826 169.744C148.73 169.822 148.676 169.887 148.664 169.937C148.651 169.988 148.677 170.033 148.742 170.07C148.8 170.103 148.874 170.111 148.963 170.093C149.051 170.073 149.136 170.041 149.217 169.994Z" fill="#FAFAFA"/>
<path d="M148.847 167.293C148.878 167.275 148.916 167.266 148.961 167.266C149.005 167.266 149.043 167.275 149.074 167.293L149.402 167.482C149.433 167.5 149.448 167.522 149.448 167.548C149.448 167.574 149.433 167.596 149.402 167.614L149.041 167.823C149.01 167.84 148.972 167.849 148.927 167.849C148.882 167.849 148.844 167.84 148.813 167.823L148.486 167.633C148.455 167.615 148.439 167.594 148.439 167.567C148.439 167.542 148.455 167.52 148.486 167.502L148.847 167.293ZM151.81 168.898C151.841 168.916 151.856 168.938 151.857 168.964C151.856 168.99 151.841 169.012 151.81 169.029L151.491 169.214C151.46 169.232 151.422 169.241 151.378 169.241C151.333 169.241 151.295 169.232 151.263 169.214L149.305 168.083C149.274 168.065 149.259 168.043 149.259 168.017C149.259 167.991 149.274 167.969 149.305 167.951L149.624 167.766C149.656 167.749 149.694 167.74 149.739 167.74C149.783 167.74 149.821 167.749 149.852 167.767L151.81 168.898Z" fill="#FAFAFA"/>
<path d="M152.937 168.247C152.968 168.265 152.984 168.287 152.984 168.313C152.983 168.339 152.968 168.361 152.937 168.379L152.618 168.563C152.586 168.581 152.549 168.59 152.504 168.59C152.459 168.59 152.421 168.581 152.391 168.563L149.633 166.97C149.603 166.952 149.587 166.93 149.587 166.904C149.587 166.878 149.603 166.856 149.633 166.838L149.953 166.654C149.984 166.636 150.021 166.627 150.066 166.627C150.111 166.627 150.149 166.636 150.18 166.654L152.937 168.247Z" fill="#FAFAFA"/>
<path d="M136.263 181.026L177.921 156.953C178.433 156.657 179.183 156.61 179.596 156.849C180.009 157.087 179.928 157.521 179.416 157.817L137.754 181.894C137.241 182.19 136.492 182.236 136.08 181.996C135.669 181.756 135.75 181.322 136.263 181.026Z" fill="#FAFAFA"/>
<path d="M139.188 182.717L180.845 158.643C181.358 158.347 182.108 158.301 182.521 158.539C182.934 158.778 182.853 159.211 182.341 159.507L140.678 183.584C140.166 183.88 139.417 183.926 139.005 183.686C138.594 183.447 138.675 183.013 139.188 182.717Z" fill="#FAFAFA"/>
<path d="M77.3343 198.342L55.5767 185.768L153.042 129.443L175.245 141.76L77.3343 198.342Z" fill="#E0E0E0"/>
<path d="M71.4492 119.951L164.145 66.3823L167.854 68.5258C168.813 69.0802 169.598 70.4404 169.598 71.5492V139.994C169.598 141.102 168.813 142.463 167.854 143.017L78.646 194.57C77.6873 195.125 76.1173 195.125 75.1585 194.57L73.1933 193.435C72.2345 192.881 71.4498 191.52 71.4498 190.412L71.4492 119.951Z" fill="#27DEBF"/>
<path opacity="0.2" d="M71.4492 119.951L164.145 66.3823L167.854 68.5258C168.813 69.0802 169.598 70.4404 169.598 71.5492V139.994C169.598 141.102 168.813 142.463 167.854 143.017L78.646 194.57C77.6873 195.125 76.1173 195.125 75.1585 194.57L73.1933 193.435C72.2345 192.881 71.4498 191.52 71.4498 190.412L71.4492 119.951Z" fill="black"/>
<path d="M163.634 60.3652L164.013 60.1588L162.573 59.3213V59.3224C162.449 59.25 162.322 59.1878 162.191 59.1396L121.395 44.0085C120.315 43.608 118.913 44.0546 118.262 45.0052L72.6271 111.711C71.9768 112.662 71.4492 114.367 71.4492 115.52C71.4492 117.426 71.4492 119.95 71.4492 119.95L72.8638 120.772L164.146 66.3818V61.9511C164.146 61.4118 163.948 60.852 163.634 60.3652Z" fill="#27DEBF"/>
<path opacity="0.1" d="M120.152 45.3285C119.971 45.4673 119.811 45.6416 119.679 45.8292L74.0407 112.533C73.707 113.027 73.4011 113.723 73.1927 114.439L71.7749 113.618C71.8794 113.27 72.0042 112.929 72.1434 112.61C72.1504 112.596 72.1504 112.589 72.1574 112.582C72.22 112.443 72.2827 112.311 72.3518 112.178C72.3657 112.157 72.3727 112.136 72.3866 112.116C72.4632 111.969 72.5462 111.83 72.6298 111.712L118.261 45.0078C118.331 44.9033 118.407 44.8202 118.491 44.7296C118.567 44.6529 118.65 44.5768 118.734 44.5071L120.152 45.3285Z" fill="black"/>
<path opacity="0.35" d="M163.997 60.1524C163.872 60.0757 163.74 60.0135 163.608 59.9647L122.806 44.8277C121.944 44.5077 120.874 44.7302 120.152 45.3285L118.734 44.5077C119.463 43.9163 120.527 43.6868 121.395 44.0069L162.19 59.1369C162.322 59.1857 162.447 59.2484 162.572 59.3246L163.997 60.1524Z" fill="white"/>
<path d="M72.3834 112.113C72.4622 111.969 72.543 111.833 72.6266 111.711C72.5436 111.833 72.4622 111.969 72.3834 112.113Z" fill="#27DEBF"/>
<path d="M118.491 44.7301C118.568 44.6518 118.65 44.5778 118.735 44.5076C118.65 44.5773 118.567 44.6496 118.491 44.7301Z" fill="#27DEBF"/>
<path d="M71.7722 113.62C71.8767 113.27 72.0025 112.927 72.1429 112.608C72.002 112.927 71.8767 113.27 71.7722 113.62Z" fill="#27DEBF"/>
<path d="M72.1547 112.579C72.2168 112.439 72.2832 112.308 72.3502 112.18C72.2832 112.308 72.2173 112.439 72.1547 112.579Z" fill="#27DEBF"/>
<path opacity="0.2" d="M118.262 45.005C118.329 44.9064 118.409 44.8174 118.491 44.73C118.408 44.8152 118.329 44.9064 118.262 45.005Z" fill="black"/>
<path d="M119.676 45.827L74.0411 112.534C73.3909 113.485 72.8633 115.19 72.8633 116.342C72.8633 118.248 72.8633 120.772 72.8633 120.772L165.56 67.1999L165.559 62.7734C165.559 61.6207 164.684 60.3619 163.604 59.9614L122.808 44.8303C121.73 44.4298 120.327 44.8764 119.676 45.827Z" fill="#27DEBF"/>
<path opacity="0.05" d="M165.56 62.7735C165.56 62.2438 165.369 61.6948 165.064 61.2139L73.1922 114.439C73.1922 114.439 73.1873 114.447 73.1831 114.453C72.9865 115.114 72.8633 115.791 72.8633 116.342C72.8633 118.248 72.8633 120.772 72.8633 120.772L165.56 67.1999L165.56 62.7735Z" fill="black"/>
<path d="M161.601 43.9714C161.601 43.4948 161.435 43.1586 161.166 42.9999C160.893 42.8391 158.609 41.5223 158.337 41.3652C158.065 41.2081 157.689 41.2306 157.273 41.4708L81.2403 85.408C80.4096 85.8883 79.7357 87.0561 79.7357 88.0163L79.7363 179.159C79.7363 179.639 79.9045 179.977 80.1766 180.134C80.4487 180.292 82.7278 181.609 83.0004 181.766C83.2725 181.923 83.6491 181.9 84.0642 181.66L160.097 137.722C160.928 137.242 161.602 136.074 161.602 135.114L161.601 43.9714Z" fill="#27DEBF"/>
<path opacity="0.95" d="M161.601 43.9714C161.601 43.4948 161.435 43.1586 161.166 42.9999C160.893 42.8391 158.609 41.5223 158.337 41.3652C158.065 41.2081 157.689 41.2306 157.273 41.4708L81.2403 85.408C80.4096 85.8883 79.7357 87.0561 79.7357 88.0163L79.7363 179.159C79.7363 179.639 79.9045 179.977 80.1766 180.134C80.4487 180.292 82.7278 181.609 83.0004 181.766C83.2725 181.923 83.6491 181.9 84.0642 181.66L160.097 137.722C160.928 137.242 161.602 136.074 161.602 135.114L161.601 43.9714Z" fill="white"/>
<path d="M84.0635 181.66L160.096 137.723C160.928 137.242 161.601 136.075 161.601 135.114L161.6 43.9713C161.6 43.0111 160.926 42.6213 160.096 43.1017L84.063 87.0388C83.2322 87.5192 82.5583 88.6869 82.5583 89.6472L82.5589 180.79C82.5589 181.752 83.2327 182.141 84.0635 181.66Z" fill="#27DEBF"/>
<path opacity="0.8" d="M84.0635 181.66L160.096 137.723C160.928 137.242 161.601 136.075 161.601 135.114L161.6 43.9713C161.6 43.0111 160.926 42.6213 160.096 43.1017L84.063 87.0388C83.2322 87.5192 82.5583 88.6869 82.5583 89.6472L82.5589 180.79C82.5589 181.752 83.2327 182.141 84.0635 181.66Z" fill="white"/>
<path d="M82.5562 180.79C82.5562 181.215 82.6885 181.528 82.9108 181.709C82.4035 181.424 80.4297 180.276 80.1796 180.137C79.9016 179.977 79.735 179.643 79.735 179.163V88.0146C79.735 87.5348 79.9016 87.0061 80.1796 86.5327L83.0013 88.1605C82.7233 88.6333 82.5567 89.1689 82.5567 89.6493V180.79H82.5562Z" fill="#27DEBF"/>
<path opacity="0.7" d="M82.5562 180.79C82.5562 181.215 82.6885 181.528 82.9108 181.709C82.4035 181.424 80.4297 180.276 80.1796 180.137C79.9016 179.977 79.735 179.643 79.735 179.163V88.0146C79.735 87.5348 79.9016 87.0061 80.1796 86.5327L83.0013 88.1605C82.7233 88.6333 82.5567 89.1689 82.5567 89.6493V180.79H82.5562Z" fill="white"/>
<path opacity="0.05" d="M82.5562 180.79C82.5562 181.215 82.6885 181.528 82.9108 181.709C82.4035 181.424 80.4297 180.276 80.1796 180.137C79.9016 179.977 79.735 179.643 79.735 179.163V88.0146C79.735 87.5348 79.9016 87.0061 80.1796 86.5327L83.0013 88.1605C82.7233 88.6333 82.5567 89.1689 82.5567 89.6493V180.79H82.5562Z" fill="black"/>
<path d="M110.305 111.906C109.971 120.385 110.541 138.555 110.541 138.555C110.541 138.555 119.519 141.272 125.624 140.258C131.729 139.246 144.783 129.99 144.783 129.99L142.607 110.326L110.305 111.906Z" fill="#37474F"/>
<path d="M131.152 138.246L132.61 124.396C138.333 120.981 140.196 116.253 140.196 116.253C134.987 123.079 129.554 121.974 129.554 121.974V138.979C130.074 138.754 130.608 138.509 131.152 138.246Z" fill="#263238"/>
<path d="M146.193 86.3595C147.647 78.98 148.306 69.1734 141.892 67.3735C140.221 66.9049 135.968 67.2304 135.968 67.2304L129.052 67.574C125.202 68.0657 119.8 68.8318 118.385 69.1803C114.67 70.095 113.567 76.169 111.902 89.6295C110.859 98.0577 109.972 104.637 109.972 112.84C116.766 118.937 138.001 116.536 142.833 112.571C143.033 103.273 143.539 99.8243 146.193 86.3595Z" fill="#455A64"/>
<path d="M127.88 65.0602C127.813 66.4081 129.363 68.6824 131.734 70.2791C134.104 71.8757 136.147 72.5223 136.407 73.1887C135.282 73.4 134.265 73.9581 133.428 75.8914C132.628 77.7379 132.636 77.7974 129.899 75.8914C127.163 73.9854 124.715 69.6121 124.721 68.1554C124.726 66.6987 126.872 63.8802 127.925 64.1193L127.88 65.0602Z" fill="#37474F"/>
<path d="M136.407 73.1886C137.208 72.3126 137.968 70.109 138.065 69.1568C138.163 68.2046 138.416 65.7019 138.416 65.7019C138.416 65.7019 139.067 65.8703 139.363 66.3174C139.658 66.7645 141.114 69.7771 141.067 71.4596C141.02 73.142 140.626 75.4169 140.058 76.3766C139.49 77.3357 139.109 75.6431 138.738 74.9874C138.256 74.1355 137.594 73.2117 136.407 73.1886Z" fill="#37474F"/>
<path d="M135.324 75.1189C135.324 75.1189 135.456 81.1961 134.898 84.4269C134.898 84.4269 136.725 84.762 138.509 84.3299C138.509 84.3299 137.583 85.4719 134.188 84.947C134.187 84.947 135.231 78.6038 135.324 75.1189Z" fill="#37474F"/>
<path d="M149.696 47.0596C149.618 41.7341 145.241 37.4809 139.92 37.5597C134.943 37.6331 130.905 41.473 130.469 46.3278L126.094 43.2123C126.094 43.2123 124.498 42.9629 123.277 44.2508C122.079 45.5139 122.815 49.3999 124.386 53.1937C124.386 53.1937 125.966 60.1201 126.576 61.253C127.186 62.3859 128.414 62.692 128.414 62.692L128.263 58.4774L145.765 57.2196L144.033 55.9865C147.42 54.4509 149.755 51.0185 149.696 47.0596Z" fill="#263238"/>
<path d="M128.009 53.4622C127.456 53.8043 126.951 52.6328 125.945 52.0318C125.089 51.5208 123.167 50.625 121.898 52.7502C120.532 55.0396 123.011 58.205 124.747 58.8569C127.318 59.8231 128.239 57.8055 128.239 57.8055L127.708 68.5295C131.208 74.9118 141.597 74.5006 138.065 69.1563L138.489 65.021C138.489 65.021 141.257 65.3995 142.602 65.1711C144.839 64.791 146.223 62.9997 146.867 60.5608C147.902 56.6432 148.27 53.4874 147.23 45.8281C146.09 37.4336 136.317 37.4905 131.089 40.8928C125.86 44.2963 128.009 53.4622 128.009 53.4622Z" fill="#FFA8A7"/>
<path d="M149.364 37.9913C148.654 37.6036 147.795 37.5736 146.999 37.7194C147.178 36.512 146.361 35.3282 145.287 34.8403C143.986 34.249 142.811 34.4581 141.666 35.3245C141.903 34.472 141.128 33.6034 140.264 33.4147C139.4 33.226 138.511 33.523 137.686 33.8393C136.457 34.3095 135.247 34.8323 133.999 35.2499C131.8 35.9855 129.459 36.4053 127.469 37.5983C127 37.8797 126.547 38.2105 126.226 38.655C125.778 39.2764 125.629 40.0742 125.664 40.8398C125.676 41.095 125.718 41.3443 125.77 41.5909C125.622 41.4301 125.451 41.288 125.248 41.1829C124.309 40.6961 123.171 41.0918 122.707 42.0665L126.02 43.7843C125.938 44.4523 125.855 45.1204 125.788 45.79C125.609 47.5588 125.266 49.6197 125.665 51.3788C125.71 51.5777 125.744 51.8093 125.881 51.9691C125.881 51.9691 126.738 52.591 127.605 53.6472C127.862 53.9598 128.171 54.4643 128.586 54.5871C129 54.7093 129.585 54.4772 129.731 54.0644C129.819 53.8167 129.795 53.5448 129.769 53.2832C129.662 52.1932 129.555 51.1038 129.448 50.0138C129.419 49.7227 129.392 49.4187 129.501 49.1474C129.646 48.7823 130.001 48.5539 130.299 48.2987C131.06 47.6478 131.541 46.6795 131.6 45.6796C131.618 45.3654 131.598 45.0437 131.688 44.7419C131.756 44.5113 131.938 44.1516 132.201 44.151C132.712 44.1489 135.486 44.7537 136.183 44.8491C139.813 45.3472 143.712 45.4437 146.914 43.661C148.161 42.9667 150.262 41.5271 150.48 39.9836C150.593 39.1804 150.074 38.3789 149.364 37.9913Z" fill="#263238"/>
<path d="M138.49 65.0211C138.49 65.0211 133.471 64.0861 131.707 63.1811C130.527 62.5752 129.547 61.5099 129.254 60.822C129.254 60.822 129.603 62.3034 130.669 63.6266C131.973 65.2447 138.353 66.354 138.353 66.354L138.49 65.0211Z" fill="#F28F8F"/>
<path d="M138.275 52.5604C138.283 53.1003 137.869 53.5432 137.35 53.5491C136.831 53.5555 136.403 53.1228 136.396 52.5829C136.388 52.043 136.802 51.6007 137.321 51.5943C137.84 51.5884 138.267 52.0211 138.275 52.5604Z" fill="#263238"/>
<path d="M136.447 49.0526L134.243 50.1249C133.959 49.4922 134.223 48.7395 134.831 48.4435C135.44 48.147 136.163 48.4199 136.447 49.0526Z" fill="#263238"/>
<path d="M136.473 58.4377L140.456 59.8671C140.081 61.0091 138.885 61.6155 137.785 61.2209C136.685 60.8263 136.097 59.5803 136.473 58.4377Z" fill="#B16668"/>
<path d="M138.988 61.2716C138.83 60.1425 137.794 59.349 136.663 59.497C136.574 59.5088 136.491 59.5351 136.407 59.557C136.546 60.3023 137.045 60.9559 137.785 61.2212C138.188 61.3655 138.604 61.373 138.988 61.2716Z" fill="#F28F8F"/>
<path d="M146.895 49.7811L144.767 48.6691C145.056 48.0847 145.766 47.8601 146.354 48.1667C146.941 48.474 147.184 49.1967 146.895 49.7811Z" fill="#263238"/>
<path d="M145.813 52.4013C145.821 52.9412 145.406 53.3835 144.887 53.3899C144.368 53.3964 143.941 52.9637 143.933 52.4238C143.925 51.8839 144.34 51.4416 144.858 51.4351C145.377 51.4287 145.805 51.8614 145.813 52.4013Z" fill="#263238"/>
<path d="M141.018 51.8164L141.205 57.9022L144.791 57.0674L141.018 51.8164Z" fill="#F28F8F"/>
<path d="M167.246 140.906C167.219 140.954 167.191 140.996 167.149 141.045L128.521 128.784C125.488 127.436 121.936 128.534 120.174 131.356L78.8785 192.792L77.3514 193.675L77.3375 193.682C76.8747 193.939 76.4601 193.974 76.1559 193.814L118.626 130.487C120.388 127.665 123.947 126.566 126.98 127.908L167.246 140.906Z" fill="#27DEBF"/>
<path opacity="0.4" d="M116.371 137.387L116.468 137.303L78.877 192.794L77.3483 193.678L77.3343 193.685C76.8758 193.942 76.4586 193.97 76.1527 193.817L114.884 136.496L116.371 137.387Z" fill="white"/>
<path opacity="0.4" d="M167.25 140.908C167.222 140.956 167.194 140.998 167.152 141.047L128.519 128.782C125.489 127.433 121.937 128.532 120.172 131.356L118.643 130.466C120.409 127.655 123.953 126.57 126.983 127.906L167.25 140.908Z" fill="white"/>
<path d="M169.566 71.1112H169.559C169.476 70.6105 169.212 70.4716 168.872 70.7075C168.739 70.7981 168.587 70.9509 168.427 71.167L168.233 71.4383L130.113 129.446L124.422 137.383C123.782 138.288 122.378 138.809 121.287 138.559L116.374 137.39L78.8662 123.569C78.5952 123.506 78.3381 123.499 78.1019 123.541C78.0044 123.562 77.9074 123.59 77.8169 123.632L79.2304 122.813L115.19 136.005L119.925 137.696C121.009 137.954 122.413 137.432 123.06 136.52L128.751 128.59L167.058 70.3113C167.183 70.1376 167.336 70.0121 167.489 69.9146L164.174 68.0016L165.564 67.2017L167.858 68.5233C168.691 69.0106 169.392 70.1027 169.566 71.1112Z" fill="#27DEBF"/>
<path opacity="0.4" d="M130.11 129.443L124.418 137.38C123.779 138.284 122.375 138.806 121.284 138.556L116.37 137.387L116.468 137.303L116.704 136.927L119.922 137.692C121.006 137.95 122.41 137.428 123.056 136.517L128.692 128.67L130.11 129.443Z" fill="white"/>
<path opacity="0.1" d="M167.854 68.5206L165.56 67.199L164.17 67.9989L167.485 69.9119C167.488 69.914 167.491 69.9162 167.493 69.9183L167.488 69.9151C167.321 70.0202 167.174 70.1489 167.056 70.3118L128.747 128.588L128.691 128.664V128.671L130.109 129.443L168.228 71.4356L168.423 71.1643C168.582 70.9488 168.736 70.7954 168.867 70.7054C169.208 70.4689 169.472 70.6078 169.555 71.1085H169.562C169.39 70.0995 168.688 69.0074 167.854 68.5206Z" fill="black"/>
<path d="M79.6273 124.679L71.4492 119.951L71.4498 190.412C71.4498 191.52 72.2345 192.881 73.1933 193.435L75.1585 194.571C76.1178 195.125 77.6872 195.125 78.646 194.571L79.6273 194.003V124.679Z" fill="#27DEBF"/>
<path opacity="0.15" d="M79.6273 124.679L71.4492 119.951L71.4498 190.412C71.4498 191.52 72.2345 192.881 73.1933 193.435L75.1585 194.571C76.1178 195.125 77.6872 195.125 78.646 194.571L79.6273 194.003V124.679Z" fill="black"/>
<path d="M169.601 71.5498V139.993C169.601 140.571 169.393 141.203 169.059 141.76C168.781 142.219 168.433 142.629 168.038 142.908L167.968 142.942C167.926 142.97 167.898 142.998 167.857 143.019L78.6503 194.565L78.6364 194.572C78.1709 194.836 77.7537 194.871 77.4478 194.712C77.1768 194.572 76.9893 194.287 76.9267 193.877C76.9127 193.779 76.9058 193.675 76.9058 193.564V125.114C76.9058 124.008 77.7746 123.313 78.8657 123.57L116.373 137.391L121.287 138.56C122.378 138.81 123.782 138.289 124.421 137.384L130.113 129.447L168.232 71.4394L168.426 71.1681C169.072 70.2695 169.601 70.4368 169.601 71.5498Z" fill="#27DEBF"/>
<path d="M167.855 143.019C167.896 142.999 167.929 142.972 167.97 142.945L168.037 142.905C168.433 142.629 168.782 142.22 169.057 141.763C169.387 141.214 169.592 140.589 169.598 140.025L130.115 129.447L156.556 149.549L167.855 143.019Z" fill="#27DEBF"/>
<path opacity="0.2" d="M167.855 143.019C167.896 142.999 167.929 142.972 167.97 142.945L168.037 142.905C168.433 142.629 168.782 142.22 169.057 141.763C169.387 141.214 169.592 140.589 169.598 140.025L130.115 129.447L156.556 149.549L167.855 143.019Z" fill="black"/>
<path d="M76.9042 193.56C76.9042 194.138 77.1125 194.534 77.4478 194.709C77.7564 194.87 78.1731 194.836 78.6359 194.574L78.6493 194.568L109.362 176.82L116.376 137.388L76.9058 192.423L76.9042 193.56Z" fill="#27DEBF"/>
<path opacity="0.15" d="M120.158 131.349L77.4451 194.707C77.1114 194.534 76.9031 194.137 76.9031 193.559L76.9058 192.422L118.629 130.486C118.629 130.479 118.636 130.472 118.643 130.465L120.158 131.349Z" fill="black"/>
<path d="M169.057 141.763C168.782 142.22 168.433 142.629 168.036 142.905L167.97 142.945L78.6487 194.567L78.6353 194.574C78.172 194.836 77.7558 194.869 77.4473 194.708L120.164 131.338C121.935 128.509 125.512 127.41 128.563 128.759L169.057 141.763Z" fill="#27DEBF"/>
<path opacity="0.15" d="M71.7744 113.618L73.1922 114.439C72.9908 115.107 72.8655 115.789 72.8655 116.345C72.8655 118.251 72.8655 120.77 72.8655 120.77L71.4476 119.949C71.4476 119.949 71.4476 117.423 71.4476 115.517C71.4476 114.968 71.573 114.286 71.7744 113.618Z" fill="black"/>
<path d="M79.2299 122.813L77.8164 123.632L76.3846 122.804L72.8612 120.772L74.2303 119.958L79.2299 122.813Z" fill="#27DEBF"/>
<path opacity="0.1" d="M79.2926 122.84L74.2303 119.959L72.8612 120.773L76.3846 122.804L77.8164 123.632L77.8314 123.623C77.9171 123.585 78.0076 123.558 78.0992 123.538C78.3354 123.496 78.5925 123.503 78.8636 123.566L81.7137 124.619L114.455 136.684L114.967 135.923L79.2926 122.84Z" fill="black"/>
<path d="M118.385 69.1804C113.84 69.5075 110.724 70.5905 107.795 77.6338C105.901 82.1873 98.4791 98.5499 97.7603 101.254C96.9161 104.431 95.0189 128.572 95.0189 128.572L99.356 130.201C99.356 130.201 97.8696 135.397 96.6151 138.365C95.1689 141.787 102.232 141.07 104.501 137.958C106.776 134.837 108.316 130.684 107.076 129.223C105.438 127.293 103.633 126.035 103.633 126.035L108.381 104.497L118.338 83.3105C118.338 83.3105 123.334 72.897 118.385 69.1804Z" fill="#FFA8A7"/>
<path d="M103.633 126.035C101.312 124.724 99.2328 124.778 99.2328 124.778C99.2328 124.778 101.514 124.046 103.84 124.778L103.633 126.035Z" fill="#F28F8F"/>
<path d="M119.416 68.9713C116.864 68.9498 112.102 68.8356 109.018 74.4121C105.934 79.9885 101.571 90.5854 101.571 90.5854C101.571 90.5854 103.385 95.0499 113.09 95.9823L120.524 80.1488C120.524 80.1488 122.334 72.883 119.416 68.9713Z" fill="#37474F"/>
<path d="M152.345 72.628C156.179 75.653 162.406 80.4118 165.432 82.3167C167.72 79.5454 171.929 73.9405 172.95 72.7127C174.249 71.152 178.349 68.6027 178.349 68.6027L179.898 74.8198C179.898 74.8198 172.123 89.1746 169.306 91.8317C166.338 94.6314 164.19 93.4707 158.389 90.8093C152.909 88.2947 146.959 85.1776 146.959 85.1776C148.138 74.7437 147.339 69.0921 142.358 67.3325C145.706 67.7491 149.128 70.0899 152.345 72.628Z" fill="#FFA8A7"/>
<path d="M162.359 80.2166C160.354 80.7677 156.212 86.6675 156.969 90.3996L146.415 85.1781C147.692 77.9755 147.967 69.0782 141.892 67.3732C141.442 67.2445 140.805 67.1802 140.114 67.148C143.14 66.8478 145.116 66.9362 148.286 69.3221C151.457 71.7079 162.359 80.2166 162.359 80.2166Z" fill="#37474F"/>
<path d="M165.432 82.3167C163.92 83.6431 163.431 86.0365 163.138 86.9833C163.138 86.9833 162.823 84.2179 164.558 81.7473L165.432 82.3167Z" fill="#F28F8F"/>
<path d="M180.126 61.6465L183.743 59.45C183.743 59.45 184.159 78.9892 184.173 79.6246C184.186 80.2599 184.932 80.8797 184.932 80.8797L181.315 83.0736C181.315 83.0736 180.568 82.4538 180.555 81.8195C180.542 81.1848 180.126 61.6465 180.126 61.6465Z" fill="#37474F"/>
<path d="M183.917 67.5935C183.917 67.5935 184.956 67.8412 185.353 69.4539C185.751 71.0672 185.95 74.149 185.025 75.1644C184.099 76.1799 182.835 76.6227 181.994 76.2576C180.423 75.5746 180.901 72.3834 182.16 71.6473C184.173 70.471 183.932 69.1751 183.932 69.1751L183.917 67.5935Z" fill="#FFA8A7"/>
<path d="M175.674 61.7056L177.259 63.6405L177.544 77.42L175.933 80.1136L181.315 83.0731C180.844 82.6656 180.601 82.2469 180.555 81.8191L180.18 64.1826L175.674 61.7056Z" fill="#455A64"/>
<path d="M175.934 80.114L175.952 80.9606L181.333 83.9201L181.315 83.0741L175.934 80.114Z" fill="#27DEBF"/>
<path d="M181.333 83.9201L184.95 81.7262L184.932 80.8801L181.315 83.074L181.333 83.9201Z" fill="#27DEBF"/>
<path opacity="0.1" d="M181.333 83.9201L184.95 81.7262L184.932 80.8801L181.315 83.074L181.333 83.9201Z" fill="black"/>
<path d="M176.726 52.1433C176.022 51.9691 175.208 52.2656 174.452 53.0746L174.425 53.1041C172.932 54.7034 172.24 57.6978 172.877 59.7914L172.889 59.83C173.219 60.9147 173.842 61.543 174.573 61.6765L177.701 62.4304L179.618 52.8419L176.726 52.1433Z" fill="#27DEBF"/>
<path opacity="0.7" d="M176.726 52.1433C176.022 51.9691 175.208 52.2656 174.452 53.0746L174.425 53.1041C172.932 54.7034 172.24 57.6978 172.877 59.7914L172.889 59.83C173.219 60.9147 173.842 61.543 174.573 61.6765L177.701 62.4304L179.618 52.8419L176.726 52.1433Z" fill="white"/>
<path opacity="0.05" d="M174.573 61.6761L177.701 62.4299L178.336 59.2516L172.645 57.9316C172.632 58.5868 172.704 59.2227 172.877 59.791L172.889 59.8296C173.219 60.9142 173.842 61.5431 174.573 61.6761Z" fill="black"/>
<path d="M183.067 52.412L183.066 52.4141C182.275 52.2324 181.374 52.5246 180.518 53.3234C180.428 53.4054 180.339 53.495 180.249 53.5904C180.144 53.7035 180.043 53.8194 179.945 53.9432C179.783 54.1459 179.629 54.3603 179.486 54.5893C179.222 55.0037 178.99 55.4557 178.792 55.9334C178.263 57.2158 177.982 58.6715 178.013 60.0306C178.03 60.7163 178.125 61.3758 178.309 61.9784C178.699 63.2577 179.414 64.034 180.261 64.2586L177.284 63.5708L177.285 63.5643C176.229 63.2716 175.314 62.4524 174.931 61.1935C174.756 60.6182 174.66 59.9888 174.639 59.3368C174.592 57.9525 174.873 56.4609 175.415 55.1501C175.613 54.6729 175.844 54.2188 176.109 53.8059C176.252 53.577 176.405 53.3609 176.568 53.1599C176.666 53.0355 176.768 52.9181 176.872 52.8071C176.96 52.7122 177.052 52.6237 177.145 52.5406C178.001 51.7852 179.057 51.5327 180.028 51.7134L180.029 51.7112L180.112 51.7295C180.147 51.738 180.183 51.7455 180.218 51.7557L183.067 52.412Z" fill="#27DEBF"/>
<path opacity="0.1" d="M177.284 63.5709L177.285 63.5644C176.229 63.2717 175.314 62.4525 174.931 61.1936C174.756 60.6183 174.66 59.9889 174.639 59.3369L178.014 60.0302C178.03 60.7159 178.126 61.3753 178.31 61.978C178.699 63.2572 179.415 64.0335 180.262 64.2582L177.284 63.5709Z" fill="black"/>
<path d="M185.087 54.7127C185.887 57.3393 185.019 61.0934 183.147 63.0991C182.206 64.1087 181.189 64.4835 180.31 64.2706C180.294 64.2679 180.277 64.2636 180.261 64.2588C179.413 64.0342 178.698 63.2578 178.308 61.9786C177.509 59.352 178.377 55.5979 180.249 53.5906C181.183 52.5901 182.191 52.2127 183.065 52.4137C183.943 52.6143 184.687 53.397 185.087 54.7127Z" fill="#27DEBF"/>
<path opacity="0.2" d="M185.087 54.7127C185.887 57.3393 185.019 61.0934 183.147 63.0991C182.206 64.1087 181.189 64.4835 180.31 64.2706C180.294 64.2679 180.277 64.2636 180.261 64.2588C179.413 64.0342 178.698 63.2578 178.308 61.9786C177.509 59.352 178.377 55.5979 180.249 53.5906C181.183 52.5901 182.191 52.2127 183.065 52.4137C183.943 52.6143 184.687 53.397 185.087 54.7127Z" fill="black"/>
<path d="M197.493 50.1848C197.493 50.1848 193.993 53.5829 192.32 60.8091C191.991 62.2283 191.791 63.5477 191.682 64.7487C191.233 69.6624 192.298 72.6279 192.298 72.6279C190.137 69.9734 187.644 67.3029 184.346 65.6821C182.304 64.679 180.387 64.0045 180.387 64.0045L180.388 64.0008C179.589 63.8136 178.932 63.0775 178.573 61.8969C178.336 61.1195 178.251 60.2397 178.301 59.3357C178.329 58.7642 178.412 58.183 178.544 57.6131C178.884 56.143 179.548 54.748 180.452 53.7786C181.294 52.8768 182.207 52.5053 183.007 52.6886L183.008 52.6854C183.008 52.6854 185.026 52.9234 187.3 52.9213C190.973 52.9176 194.386 51.6174 197.493 50.1848Z" fill="#27DEBF"/>
<path opacity="0.7" d="M197.493 50.1848C197.493 50.1848 193.993 53.5829 192.32 60.8091C191.991 62.2283 191.791 63.5477 191.682 64.7487C191.233 69.6624 192.298 72.6279 192.298 72.6279C190.137 69.9734 187.644 67.3029 184.346 65.6821C182.304 64.679 180.387 64.0045 180.387 64.0045L180.388 64.0008C179.589 63.8136 178.932 63.0775 178.573 61.8969C178.336 61.1195 178.251 60.2397 178.301 59.3357C178.329 58.7642 178.412 58.183 178.544 57.6131C178.884 56.143 179.548 54.748 180.452 53.7786C181.294 52.8768 182.207 52.5053 183.007 52.6886L183.008 52.6854C183.008 52.6854 185.026 52.9234 187.3 52.9213C190.973 52.9176 194.386 51.6174 197.493 50.1848Z" fill="white"/>
<path opacity="0.05" d="M191.682 64.7486C191.233 69.6624 192.298 72.6278 192.298 72.6278C190.137 69.9734 187.644 67.3028 184.346 65.6821C182.304 64.6789 180.387 64.0044 180.387 64.0044L180.388 64.0007C179.589 63.8136 178.932 63.0775 178.573 61.8969C178.336 61.1194 178.251 60.2396 178.301 59.3357C181.925 59.9528 187.899 61.3066 191.682 64.7486Z" fill="black"/>
<path d="M207.116 53.7261C207.95 56.4648 208.021 59.7192 207.462 62.9151L207.462 62.9167C206.744 67.0102 204.997 71.0029 202.495 73.6836C198.04 78.4569 192.886 77.2608 190.984 71.0136C190.548 69.5837 190.321 68.0149 190.282 66.3872C190.188 62.3774 191.238 58.0126 193.148 54.5159C193.416 54.0226 193.702 53.5487 194.004 53.094C194.13 52.9047 194.259 52.7182 194.39 52.5364L194.392 52.5359C194.579 52.2769 194.77 52.026 194.968 51.7842C195.175 51.5327 195.385 51.2888 195.603 51.0566C200.059 46.2833 205.213 47.4768 207.116 53.7261Z" fill="#27DEBF"/>
<path opacity="0.1" d="M207.462 62.9167C206.744 67.0102 204.997 71.0029 202.495 73.6836C198.04 78.4569 192.886 77.2608 190.984 71.0136C190.548 69.5837 190.321 68.015 190.282 66.3872L190.283 66.3867C190.895 67.0831 192.561 67.8353 192.903 66.8478C192.945 68.3034 193.149 69.6942 193.532 70.9493C194.079 72.7448 194.92 74.0718 195.965 74.7892C196.856 75.4004 197.868 75.5408 198.97 75.2025C200.041 74.8771 201.166 74.1018 202.226 72.9689C204.354 70.6887 205.911 67.2831 206.669 63.7317C206.669 63.7317 207.093 63.9145 207.462 62.9167Z" fill="black"/>
<path d="M206.553 54.2789C207.394 57.0379 207.374 60.4483 206.67 63.7322C205.912 67.2831 204.355 70.6893 202.227 72.9695C201.167 74.1024 200.042 74.8776 198.971 75.2031C197.869 75.5414 196.857 75.4009 195.966 74.7897C194.921 74.0723 194.08 72.7459 193.533 70.9498C193.15 69.6947 192.946 68.3039 192.904 66.8483C192.887 66.2988 192.894 65.7396 192.924 65.1755C192.976 64.1938 193.095 63.1913 193.28 62.2005C193.318 61.9962 193.357 61.7935 193.4 61.5919C193.469 61.2558 193.545 60.9191 193.631 60.5872C193.917 59.4484 194.289 58.3348 194.734 57.2802C194.738 57.2695 194.745 57.2561 194.749 57.2438C195.047 56.5414 195.375 55.8675 195.732 55.2284C195.99 54.7684 196.263 54.3282 196.55 53.909C196.67 53.7326 196.793 53.561 196.919 53.3927C197.071 53.1916 197.226 52.9954 197.385 52.8034C197.539 52.6185 197.698 52.4399 197.858 52.2662C198.92 51.1269 200.046 50.3565 201.117 50.0283C203.489 49.3029 205.522 50.8948 206.553 54.2789Z" fill="#27DEBF"/>
<path opacity="0.3" d="M206.553 54.2789C207.394 57.0379 207.374 60.4483 206.67 63.7322C205.912 67.2831 204.355 70.6893 202.227 72.9695C201.167 74.1024 200.042 74.8776 198.971 75.2031C197.869 75.5414 196.857 75.4009 195.966 74.7897C194.921 74.0723 194.08 72.7459 193.533 70.9498C193.15 69.6947 192.946 68.3039 192.904 66.8483C192.887 66.2988 192.894 65.7396 192.924 65.1755C192.976 64.1938 193.095 63.1913 193.28 62.2005C193.318 61.9962 193.357 61.7935 193.4 61.5919C193.469 61.2558 193.545 60.9191 193.631 60.5872C193.917 59.4484 194.289 58.3348 194.734 57.2802C194.738 57.2695 194.745 57.2561 194.749 57.2438C195.047 56.5414 195.375 55.8675 195.732 55.2284C195.99 54.7684 196.263 54.3282 196.55 53.909C196.67 53.7326 196.793 53.561 196.919 53.3927C197.071 53.1916 197.226 52.9954 197.385 52.8034C197.539 52.6185 197.698 52.4399 197.858 52.2662C198.92 51.1269 200.046 50.3565 201.117 50.0283C203.489 49.3029 205.522 50.8948 206.553 54.2789Z" fill="black"/>
<path d="M198.701 58.3537L197.221 65.82C196.146 65.7519 194.336 65.6699 192.902 65.7359C192.906 65.5498 192.914 65.3643 192.924 65.1761C192.976 64.1944 193.095 63.1919 193.28 62.2011C193.318 61.9968 193.357 61.7941 193.4 61.5925C193.469 61.2564 193.545 60.9197 193.631 60.5878C193.918 59.449 194.289 58.3354 194.734 57.2808C194.738 57.2701 194.745 57.2567 194.749 57.2444C194.816 57.09 194.882 56.9361 194.951 56.7849C196.641 57.7162 198.701 58.3537 198.701 58.3537Z" fill="#27DEBF"/>
<g opacity="0.4">
<path d="M198.701 58.3537L197.221 65.82C196.146 65.7519 194.336 65.6699 192.902 65.7359C192.906 65.5498 192.914 65.3643 192.924 65.1761C192.976 64.1944 193.095 63.1919 193.28 62.2011C193.318 61.9968 193.357 61.7941 193.4 61.5925C193.469 61.2564 193.545 60.9197 193.631 60.5878C193.918 59.449 194.289 58.3354 194.734 57.2808C194.738 57.2701 194.745 57.2567 194.749 57.2444C194.816 57.09 194.882 56.9361 194.951 56.7849C196.641 57.7162 198.701 58.3537 198.701 58.3537Z" fill="white"/>
</g>
<path d="M197.504 65.7159C196.727 65.9528 196.073 65.4666 195.753 64.4152L195.743 64.383C195.239 62.7306 195.788 60.3587 196.967 59.0961L196.99 59.0714C197.304 58.7347 197.643 58.5042 197.971 58.4039C198.747 58.1669 199.401 58.6532 199.722 59.7051L199.731 59.7373C200.235 61.3897 199.686 63.7616 198.507 65.0242L198.484 65.0489C198.17 65.3851 197.831 65.6156 197.504 65.7159Z" fill="#27DEBF"/>
<g opacity="0.7">
<path d="M197.504 65.7159C196.727 65.9528 196.073 65.4666 195.753 64.4152L195.743 64.383C195.239 62.7306 195.788 60.3587 196.967 59.0961L196.99 59.0714C197.304 58.7347 197.643 58.5042 197.971 58.4039C198.747 58.1669 199.401 58.6532 199.722 59.7051L199.731 59.7373C200.235 61.3897 199.686 63.7616 198.507 65.0242L198.484 65.0489C198.17 65.3851 197.831 65.6156 197.504 65.7159Z" fill="white"/>
</g>
<path d="M195.701 46.5075C195.274 46.6378 194.823 46.3971 194.693 45.9703L192.416 38.4949C192.286 38.0675 192.526 37.6161 192.953 37.4858C193.38 37.3555 193.831 37.5963 193.961 38.023L196.238 45.4985C196.369 45.9258 196.128 46.3773 195.701 46.5075Z" fill="#E0E0E0"/>
<path d="M189.461 50.4043C189.194 50.4858 188.892 50.4263 188.674 50.222L182.968 44.8873C182.642 44.5823 182.625 44.0713 182.929 43.7448C183.232 43.4194 183.744 43.4012 184.07 43.7057L189.776 49.0403C190.102 49.3454 190.119 49.8563 189.815 50.1829C189.715 50.2901 189.592 50.3641 189.461 50.4043Z" fill="#E0E0E0"/>
<path d="M193.364 88.5873C193.232 88.6276 193.089 88.6345 192.947 88.6013C192.512 88.5005 192.242 88.0662 192.342 87.6314L194.104 80.0181C194.205 79.5828 194.638 79.3115 195.073 79.4128C195.508 79.5136 195.778 79.9479 195.678 80.3827L193.915 87.996C193.848 88.2882 193.63 88.5059 193.364 88.5873Z" fill="#E0E0E0"/>
<path d="M207.534 85.3577C207.107 85.488 206.656 85.2472 206.526 84.8199L204.249 77.3445C204.119 76.9177 204.359 76.4657 204.786 76.3354C205.213 76.2051 205.664 76.4459 205.794 76.8732L208.071 84.3487C208.201 84.776 207.961 85.2279 207.534 85.3577Z" fill="#E0E0E0"/>
<path d="M215.937 75.1554C215.67 75.2369 215.368 75.1774 215.15 74.9731L209.443 69.639C209.117 69.3345 209.1 68.823 209.404 68.4965C209.708 68.1711 210.22 68.1523 210.546 68.4574L216.252 73.7915C216.579 74.096 216.596 74.6075 216.291 74.934C216.191 75.0418 216.068 75.1152 215.937 75.1554Z" fill="#E0E0E0"/>
<path d="M221.294 65.0875C221.163 65.1277 221.02 65.1347 220.877 65.102L213.271 63.3375C212.836 63.2367 212.566 62.8025 212.666 62.3677C212.767 61.9323 213.201 61.6621 213.635 61.7623L221.241 63.5263C221.676 63.6271 221.946 64.0613 221.846 64.4961C221.778 64.7883 221.561 65.006 221.294 65.0875Z" fill="#E0E0E0"/>
<path d="M220.906 53.6859L213.438 55.965C213.011 56.0953 212.56 55.8546 212.43 55.4278C212.3 55.001 212.539 54.5491 212.966 54.4188L220.435 52.1396C220.862 52.0094 221.313 52.2501 221.443 52.6769C221.573 53.1042 221.333 53.5556 220.906 53.6859Z" fill="#E0E0E0"/>
<path d="M209.546 49.7179C209.278 49.7994 208.977 49.7398 208.758 49.5356C208.432 49.231 208.415 48.7196 208.719 48.393L214.048 42.682C214.35 42.356 214.863 42.3384 215.19 42.6429C215.515 42.9474 215.533 43.4589 215.228 43.7854L209.899 49.4964C209.8 49.6042 209.677 49.6777 209.546 49.7179Z" fill="#E0E0E0"/>
<path d="M203.052 46.2566C202.921 46.2968 202.778 46.3037 202.636 46.271C202.201 46.1702 201.93 45.736 202.031 45.3012L203.794 37.6879C203.894 37.2525 204.329 36.9818 204.763 37.0826C205.197 37.1834 205.468 37.6177 205.367 38.0525L203.604 45.6657C203.536 45.9574 203.319 46.1751 203.052 46.2566Z" fill="#E0E0E0"/>
<path d="M172.95 72.7131C174.49 70.7578 174.549 69.5338 175.75 68.5757C176.95 67.617 178.159 67.5554 179.945 68.0685C181.293 68.4556 182.873 68.262 183.418 68.7628C183.573 68.8663 183.331 69.7337 182.699 70.0442C181.937 70.4179 180.708 70.3267 179.801 70.3315C177.736 70.3428 179.43 72.37 177.442 74.4266C176.597 75.9016 172.95 72.7131 172.95 72.7131Z" fill="#FFA8A7"/>
<path d="M220.254 103.736L239.203 91.5894L247.55 94.2717L220.254 103.736Z" fill="#27DEBF"/>
<path d="M220.254 103.736L236.632 90.065L232.992 85.8584L220.254 103.736Z" fill="#27DEBF"/>
<path d="M236.632 90.0649V93.2373L220.254 103.736L236.632 90.0649Z" fill="#27DEBF"/>
<path opacity="0.25" d="M236.632 90.0649V93.2373L220.254 103.736L236.632 90.0649Z" fill="black"/>
<path d="M240.518 88.2293C240.368 88.2293 240.218 88.1665 240.113 88.0438C239.92 87.8197 239.944 87.4808 240.168 87.2873C240.498 87.0015 240.822 86.7071 241.139 86.4037C241.353 86.1994 241.691 86.2069 241.897 86.4214C242.101 86.6353 242.093 86.9747 241.879 87.1795C241.549 87.4947 241.213 87.8014 240.869 88.099C240.767 88.1864 240.642 88.2293 240.518 88.2293Z" fill="#E0E0E0"/>
<path d="M243.336 85.4176C243.211 85.4176 243.085 85.3737 242.983 85.2847C242.761 85.0895 242.739 84.7507 242.934 84.5282C243.494 83.888 244.041 83.2071 244.56 82.5042C244.736 82.2662 245.071 82.2153 245.309 82.3911C245.547 82.567 245.598 82.9026 245.422 83.1406C244.886 83.8682 244.319 84.5727 243.739 85.2348C243.634 85.3555 243.485 85.4176 243.336 85.4176ZM246.476 81.1724C246.379 81.1724 246.281 81.1462 246.193 81.091C245.942 80.9344 245.866 80.6036 246.023 80.3521C246.475 79.6283 246.911 78.8686 247.32 78.0939C247.458 77.8323 247.782 77.732 248.044 77.8698C248.306 78.0087 248.406 78.3325 248.268 78.5947C247.847 79.3924 247.398 80.1747 246.932 80.921C246.829 81.0834 246.655 81.1724 246.476 81.1724ZM248.942 76.5005C248.87 76.5005 248.797 76.486 248.727 76.4549C248.456 76.3348 248.334 76.0185 248.453 75.7477C248.8 74.9607 249.128 74.1468 249.426 73.3276C249.527 73.0498 249.835 72.9072 250.113 73.0075C250.39 73.1088 250.534 73.4166 250.433 73.6948C250.127 74.5355 249.79 75.3719 249.433 76.1809C249.344 76.3814 249.148 76.5005 248.942 76.5005ZM250.753 71.5342C250.704 71.5342 250.653 71.5272 250.603 71.5127C250.32 71.4296 250.156 71.1315 250.239 70.8474C250.482 70.0185 250.701 69.1681 250.893 68.3194C250.958 68.0304 251.242 67.8487 251.533 67.9141C251.821 67.979 252.003 68.2658 251.938 68.5548C251.742 69.4255 251.516 70.2978 251.268 71.1487C251.199 71.3824 250.985 71.5342 250.753 71.5342ZM251.914 66.3759C251.886 66.3759 251.858 66.3738 251.829 66.3689C251.537 66.3223 251.338 66.0472 251.385 65.755C251.521 64.9004 251.632 64.0292 251.715 63.1639C251.743 62.869 252.011 62.6449 252.299 62.6819C252.594 62.7103 252.809 62.9719 252.781 63.2668C252.696 64.1536 252.582 65.0479 252.442 65.9239C252.4 66.1877 252.173 66.3759 251.914 66.3759ZM252.415 61.1115C252.41 61.1115 252.404 61.1115 252.398 61.1115C252.103 61.1018 251.871 60.8547 251.879 60.5587C251.892 60.1459 251.899 59.7325 251.899 59.3197C251.899 58.8624 251.891 58.4056 251.875 57.9488C251.864 57.6528 252.096 57.404 252.391 57.3944C252.697 57.3719 252.936 57.6153 252.945 57.9112C252.962 58.3804 252.97 58.85 252.97 59.3197C252.97 59.7438 252.963 60.1679 252.951 60.592C252.941 60.882 252.703 61.1115 252.415 61.1115ZM252.228 55.8272C251.956 55.8272 251.725 55.6219 251.696 55.3463C251.607 54.4788 251.486 53.6103 251.338 52.7642C251.287 52.4726 251.481 52.1943 251.773 52.1434C252.07 52.0924 252.342 52.2881 252.394 52.5793C252.546 53.4505 252.67 54.3448 252.762 55.2369C252.793 55.5318 252.578 55.7951 252.284 55.8256C252.264 55.8262 252.246 55.8272 252.228 55.8272ZM251.313 50.6191C251.074 50.6191 250.856 50.4572 250.794 50.2143C250.581 49.3704 250.334 48.5298 250.06 47.7164C249.965 47.436 250.116 47.1315 250.397 47.0371C250.677 46.9406 250.981 47.0945 251.075 47.3738C251.358 48.2129 251.613 49.0804 251.833 49.9516C251.906 50.2385 251.731 50.5301 251.445 50.603C251.401 50.6143 251.357 50.6191 251.313 50.6191ZM249.622 45.6115C249.415 45.6115 249.218 45.4904 249.13 45.2877C248.786 44.4894 248.406 43.7018 248.001 42.948C247.861 42.6874 247.959 42.3619 248.219 42.222C248.479 42.0821 248.805 42.1797 248.945 42.4402C249.364 43.2214 249.758 44.0369 250.114 44.8631C250.231 45.1354 250.106 45.4507 249.834 45.5676C249.765 45.5976 249.693 45.6115 249.622 45.6115ZM247.12 40.9605C246.946 40.9605 246.775 40.8757 246.672 40.7192C246.196 39.997 245.684 39.2914 245.147 38.6218C244.962 38.3907 245 38.0535 245.23 37.8685C245.462 37.6835 245.799 37.7211 245.983 37.9516C246.54 38.647 247.073 39.3799 247.566 40.13C247.729 40.3771 247.661 40.7095 247.413 40.8725C247.323 40.9315 247.22 40.9605 247.12 40.9605ZM243.823 36.8343C243.682 36.8343 243.541 36.7785 243.436 36.6681C242.849 36.0526 242.221 35.4414 241.57 34.8516C241.351 34.6527 241.334 34.3139 241.532 34.094C241.73 33.8748 242.07 33.8581 242.289 34.056C242.96 34.6634 243.606 35.2934 244.211 35.9277C244.415 36.1421 244.407 36.4815 244.193 36.6858C244.089 36.7855 243.956 36.8343 243.823 36.8343ZM239.908 33.2845C239.792 33.2845 239.675 33.2469 239.577 33.1692C238.907 32.6406 238.201 32.1183 237.478 31.617C237.235 31.4482 237.174 31.1141 237.343 30.8707C237.51 30.6273 237.844 30.5667 238.088 30.7351C238.829 31.2487 239.553 31.7843 240.24 32.3269C240.473 32.5103 240.513 32.8475 240.329 33.0797C240.224 33.2142 240.067 33.2845 239.908 33.2845ZM235.568 30.2703C235.472 30.2703 235.376 30.2451 235.288 30.1914C234.557 29.7443 233.795 29.3063 233.022 28.8881C232.761 28.7476 232.664 28.4222 232.805 28.1621C232.945 27.9021 233.271 27.8029 233.53 27.945C234.32 28.3718 235.1 28.8194 235.847 29.2762C236.099 29.4306 236.179 29.7604 236.025 30.0134C235.924 30.1791 235.748 30.2703 235.568 30.2703ZM230.918 27.7563C230.842 27.7563 230.763 27.7396 230.688 27.7037C229.906 27.3311 229.102 26.9713 228.299 26.6357C228.026 26.5215 227.897 26.2073 228.011 25.9339C228.125 25.6599 228.44 25.5318 228.712 25.646C229.531 25.9891 230.352 26.3553 231.149 26.736C231.416 26.863 231.53 27.1831 231.402 27.4501C231.31 27.6437 231.119 27.7563 230.918 27.7563ZM176.832 26.4239C176.613 26.4239 176.406 26.2872 176.328 26.0685C176.228 25.7891 176.374 25.4825 176.652 25.3833C177.49 25.083 178.337 24.7946 179.17 24.5265C179.455 24.437 179.754 24.5909 179.844 24.8729C179.935 25.1549 179.78 25.4573 179.498 25.5479C178.676 25.8122 177.84 26.0964 177.012 26.3928C176.953 26.4143 176.892 26.4239 176.832 26.4239ZM226.046 25.7109C225.984 25.7109 225.922 25.7001 225.861 25.6782C225.056 25.3827 224.222 25.0981 223.381 24.8311C223.099 24.7415 222.944 24.4402 223.033 24.1577C223.123 23.8762 223.424 23.718 223.706 23.8092C224.561 24.081 225.41 24.371 226.23 24.6707C226.507 24.7726 226.65 25.0809 226.549 25.3586C226.469 25.5763 226.264 25.7109 226.046 25.7109ZM181.863 24.8042C181.63 24.8042 181.416 24.6514 181.348 24.4161C181.267 24.1314 181.431 23.8344 181.715 23.7529C182.557 23.5111 183.422 23.2778 184.284 23.0607C184.571 22.9889 184.862 23.1626 184.934 23.4499C185.007 23.7373 184.832 24.0284 184.545 24.1008C183.694 24.3147 182.841 24.5448 182.011 24.7833C181.961 24.7973 181.912 24.8042 181.863 24.8042ZM221.008 24.111C220.962 24.111 220.915 24.1051 220.868 24.0922C220.042 23.8681 219.186 23.6547 218.324 23.458C218.036 23.3926 217.855 23.1052 217.921 22.8162C217.986 22.5283 218.269 22.3449 218.562 22.413C219.438 22.613 220.308 22.8296 221.148 23.058C221.433 23.1358 221.602 23.4296 221.524 23.7159C221.46 23.9539 221.244 24.111 221.008 24.111ZM186.989 23.5143C186.742 23.5143 186.52 23.3427 186.466 23.0913C186.403 22.8023 186.587 22.517 186.876 22.4543C187.743 22.2667 188.62 22.0924 189.483 21.9353C189.779 21.8823 190.053 22.0769 190.106 22.3675C190.159 22.6591 189.965 22.9379 189.675 22.991C188.822 23.1454 187.957 23.3175 187.102 23.5025C187.064 23.5105 187.026 23.5143 186.989 23.5143ZM215.856 22.9374C215.823 22.9374 215.79 22.9347 215.757 22.9283C214.914 22.7712 214.043 22.627 213.17 22.4988C212.877 22.4559 212.674 22.1836 212.717 21.8908C212.76 21.5976 213.03 21.3906 213.325 21.4378C214.212 21.5675 215.097 21.7144 215.952 21.8737C216.243 21.9278 216.435 22.2077 216.382 22.4988C216.333 22.7572 216.108 22.9374 215.856 22.9374ZM192.184 22.5717C191.923 22.5717 191.693 22.3798 191.655 22.1133C191.612 21.8201 191.815 21.5482 192.108 21.5053C192.987 21.3767 193.874 21.2625 194.745 21.1649C195.037 21.1354 195.304 21.344 195.337 21.6388C195.37 21.9332 195.157 22.198 194.863 22.2307C194.005 22.3267 193.13 22.4393 192.263 22.5658C192.236 22.5701 192.21 22.5717 192.184 22.5717ZM210.626 22.175C210.607 22.175 210.588 22.1739 210.568 22.1718C209.715 22.0806 208.836 22.004 207.955 21.9423C207.66 21.9214 207.437 21.6651 207.458 21.3702C207.479 21.0748 207.737 20.8614 208.029 20.8722C208.923 20.9343 209.816 21.0132 210.682 21.1054C210.976 21.137 211.189 21.4008 211.157 21.6957C211.129 21.9707 210.896 22.175 210.626 22.175ZM197.433 21.9879C197.155 21.9879 196.921 21.774 196.899 21.4919C196.877 21.1965 197.098 20.9397 197.393 20.9172C198.28 20.8502 199.173 20.7976 200.048 20.7622C200.345 20.7317 200.594 20.9799 200.605 21.2759C200.617 21.5718 200.387 21.8217 200.092 21.8335C199.229 21.8683 198.348 21.9203 197.474 21.9863C197.46 21.9873 197.447 21.9879 197.433 21.9879ZM205.353 21.8104C205.347 21.8104 205.341 21.8104 205.336 21.8099C204.57 21.7857 203.799 21.774 203.045 21.774L202.714 21.7745C202.713 21.7745 202.712 21.7745 202.711 21.7745C202.416 21.7745 202.177 21.5364 202.175 21.241C202.174 20.9445 202.413 20.7038 202.708 20.7022L203.045 20.7017C203.811 20.7017 204.593 20.714 205.369 20.7387C205.665 20.7478 205.897 20.9955 205.888 21.2909C205.879 21.5809 205.64 21.8104 205.353 21.8104Z" fill="#E0E0E0"/>
<path d="M173.068 27.8743C172.858 27.8743 172.658 27.7493 172.573 27.5424C172.46 27.2684 172.59 26.9548 172.864 26.8422C173.281 26.6706 173.699 26.5017 174.114 26.3377C174.391 26.231 174.701 26.365 174.81 26.6395C174.918 26.9151 174.783 27.2266 174.508 27.3354C174.096 27.4979 173.684 27.6641 173.272 27.834C173.205 27.8614 173.136 27.8743 173.068 27.8743Z" fill="#E0E0E0"/>
<path d="M53.8015 76.7546L78.4328 64.6699L60.6689 81.5773L53.8015 76.7546Z" fill="#27DEBF"/>
<path d="M78.4328 64.6699L51.2739 73.6128L44.407 68.7897L78.4328 64.6699Z" fill="#27DEBF"/>
<path d="M51.2738 73.6128L52.3472 80.5162L53.8015 76.7546L78.4328 64.6699L51.2738 73.6128Z" fill="#27DEBF"/>
<path opacity="0.25" d="M51.2738 73.6128L52.3472 80.5162L53.8015 76.7546L78.4328 64.6699L51.2738 73.6128Z" fill="black"/>
<path d="M52.3473 80.5162L56.0903 78.362L53.8015 76.7546L52.3473 80.5162Z" fill="#27DEBF"/>
<path opacity="0.25" d="M53.8015 76.7546L56.0903 78.362L55.4931 78.7057L53.8015 76.7546Z" fill="black"/>
<path d="M55.6522 149.118C55.5922 149.118 55.5306 149.108 55.4711 149.087C54.6023 148.774 53.7544 148.454 52.9504 148.135C52.6751 148.027 52.5406 147.715 52.6499 147.44C52.7586 147.164 53.0704 147.03 53.3452 147.139C54.1384 147.454 54.9756 147.769 55.8337 148.078C56.1123 148.178 56.2569 148.485 56.1573 148.763C56.078 148.982 55.8718 149.118 55.6522 149.118ZM50.6777 147.141C50.6059 147.141 50.5325 147.127 50.4629 147.096C49.6289 146.729 48.8056 146.347 48.0156 145.959C47.7499 145.829 47.6401 145.508 47.7697 145.242C47.8999 144.977 48.2207 144.866 48.4864 144.996C49.2641 145.377 50.074 145.753 50.8941 146.115C51.1651 146.234 51.2878 146.551 51.1689 146.821C51.0805 147.022 50.8834 147.141 50.6777 147.141ZM45.8746 144.78C45.7878 144.78 45.6995 144.759 45.618 144.714C44.8216 144.278 44.0347 143.82 43.2811 143.355C43.0288 143.2 42.9511 142.869 43.1059 142.617C43.2607 142.366 43.5907 142.286 43.8429 142.442C44.5816 142.898 45.3518 143.346 46.1328 143.774C46.392 143.917 46.4874 144.242 46.3449 144.502C46.2474 144.68 46.0637 144.78 45.8746 144.78ZM41.3238 141.966C41.2183 141.966 41.1117 141.934 41.018 141.87C40.2697 141.347 39.5386 140.802 38.8454 140.25C38.6135 140.065 38.5755 139.728 38.7597 139.497C38.9435 139.265 39.2804 139.226 39.5118 139.411C40.1878 139.949 40.9007 140.48 41.6308 140.99C41.8734 141.159 41.9323 141.493 41.7636 141.737C41.6597 141.886 41.4931 141.966 41.3238 141.966ZM37.1421 138.631C37.013 138.631 36.8834 138.584 36.7806 138.49C36.1083 137.875 35.4575 137.234 34.8458 136.585C34.6428 136.369 34.653 136.03 34.8678 135.827C35.0826 135.623 35.4216 135.634 35.6252 135.849C36.2187 136.479 36.8507 137.101 37.5037 137.698C37.7217 137.898 37.7372 138.238 37.5374 138.456C37.4319 138.572 37.2873 138.631 37.1421 138.631ZM33.4778 134.737C33.3209 134.737 33.1661 134.669 33.0606 134.537C32.4939 133.833 31.9496 133.097 31.4424 132.349C31.2763 132.104 31.3406 131.771 31.5854 131.605C31.8297 131.437 32.1628 131.502 32.3299 131.747C32.8201 132.471 33.3461 133.183 33.8945 133.864C34.0804 134.095 34.044 134.433 33.8137 134.618C33.7146 134.698 33.5957 134.737 33.4778 134.737ZM30.4782 130.308C30.2908 130.308 30.1097 130.209 30.0112 130.035C29.5709 129.253 29.1542 128.438 28.7738 127.611C28.6501 127.342 28.7674 127.024 29.0363 126.9C29.3041 126.775 29.6228 126.894 29.7466 127.163C30.1151 127.962 30.5173 128.752 30.9437 129.508C31.0889 129.765 30.9984 130.093 30.7402 130.238C30.6577 130.286 30.5672 130.308 30.4782 130.308ZM28.2371 125.449C28.0197 125.449 27.8145 125.315 27.7347 125.099C27.4262 124.264 27.1418 123.396 26.8879 122.517C26.8059 122.233 26.9698 121.935 27.2542 121.853C27.5387 121.773 27.8354 121.935 27.9174 122.22C28.1638 123.074 28.4401 123.917 28.739 124.728C28.8419 125.006 28.7005 125.314 28.4225 125.416C28.3619 125.438 28.2993 125.449 28.2371 125.449ZM26.7465 120.307C26.5001 120.307 26.2783 120.136 26.2237 119.885C26.0357 119.021 25.8685 118.124 25.7261 117.219C25.6805 116.926 25.8798 116.651 26.1723 116.605C26.4647 116.561 26.7384 116.759 26.785 117.052C26.9238 117.936 27.0871 118.812 27.2708 119.656C27.3335 119.945 27.1503 120.231 26.8611 120.294C26.8231 120.303 26.784 120.307 26.7465 120.307ZM25.9103 115.014C25.6393 115.014 25.4068 114.809 25.3784 114.534C25.2874 113.669 25.214 112.761 25.1599 111.838C25.1422 111.542 25.3677 111.289 25.6629 111.271C25.9569 111.264 26.2108 111.48 26.229 111.775C26.2826 112.682 26.3544 113.573 26.4433 114.422C26.4744 114.717 26.2606 114.98 25.9666 115.011C25.9473 115.013 25.9285 115.014 25.9103 115.014ZM25.6318 109.663C25.6286 109.663 25.6254 109.663 25.6222 109.663C25.3259 109.657 25.0908 109.413 25.0962 109.117C25.1122 108.214 25.1663 107.299 25.2574 106.398C25.2874 106.103 25.5477 105.894 25.8444 105.918C26.139 105.948 26.3533 106.211 26.3238 106.505C26.2355 107.378 26.183 108.263 26.168 109.136C26.1621 109.429 25.9232 109.663 25.6318 109.663ZM26.1664 104.333C26.1342 104.333 26.1021 104.331 26.0689 104.324C25.778 104.271 25.5857 103.992 25.6388 103.7C25.8016 102.813 26.0025 101.919 26.236 101.044C26.3126 100.757 26.6109 100.587 26.8916 100.664C27.1776 100.741 27.3474 101.034 27.2708 101.32C27.0443 102.169 26.8498 103.034 26.6924 103.894C26.6452 104.153 26.4203 104.333 26.1664 104.333ZM27.5467 99.1575C27.4878 99.1575 27.4273 99.1479 27.3683 99.1264C27.0893 99.0278 26.943 98.7216 27.0421 98.4428C27.3421 97.592 27.6811 96.7411 28.0502 95.9133C28.1707 95.6431 28.4857 95.5203 28.7572 95.642C29.0272 95.7627 29.1488 96.079 29.0283 96.3497C28.6715 97.1513 28.3432 97.9759 28.0518 98.7994C27.9741 99.0208 27.7674 99.1575 27.5467 99.1575ZM29.7246 94.2652C29.6384 94.2652 29.5505 94.2443 29.4691 94.2003C29.2093 94.0583 29.1129 93.7333 29.2543 93.4733C29.6871 92.6777 30.1558 91.8906 30.648 91.1346C30.8093 90.8864 31.1403 90.8167 31.3894 90.9781C31.6374 91.14 31.7075 91.4719 31.5458 91.7201C31.0685 92.4525 30.6148 93.2149 30.196 93.9859C30.0985 94.1639 29.9142 94.2652 29.7246 94.2652ZM32.6465 89.7771C32.5324 89.7771 32.4167 89.7407 32.3198 89.6651C32.0852 89.4839 32.0423 89.1472 32.2234 88.9134C32.7767 88.1971 33.3653 87.4948 33.9727 86.8273C34.172 86.6101 34.5105 86.5924 34.7296 86.7924C34.9481 86.9919 34.9642 87.3307 34.7644 87.55C34.1763 88.196 33.6064 88.8759 33.0707 89.5691C32.9647 89.7058 32.8067 89.7771 32.6465 89.7771ZM36.2508 85.8204C36.1073 85.8204 35.9648 85.763 35.8593 85.6499C35.6573 85.4338 35.6696 85.0944 35.886 84.8923C36.5481 84.2741 37.2428 83.6769 37.9504 83.1177C38.1834 82.9332 38.5198 82.9729 38.7024 83.2056C38.8862 83.4383 38.8471 83.7755 38.6146 83.9583C37.93 84.4998 37.2578 85.0778 36.6167 85.6762C36.5127 85.7727 36.3815 85.8204 36.2508 85.8204ZM40.4486 82.5006C40.2756 82.5006 40.1047 82.4169 40.0019 82.2614C39.838 82.0148 39.9049 81.6819 40.1513 81.5178C40.9018 81.0181 41.6838 80.5431 42.476 80.104C42.7342 79.9608 43.0609 80.0536 43.2039 80.3136C43.3475 80.5726 43.2537 80.8991 42.9945 81.0422C42.2275 81.4669 41.4706 81.9274 40.7443 82.411C40.6538 82.4716 40.5504 82.5006 40.4486 82.5006ZM45.1285 79.9067C44.9244 79.9067 44.7294 79.7893 44.64 79.5914C44.5178 79.3218 44.6378 79.0038 44.9073 78.8821C45.7268 78.5111 46.5742 78.1664 47.4253 77.8586C47.7027 77.7578 48.0107 77.9015 48.1109 78.1808C48.2116 78.4596 48.0675 78.7668 47.789 78.8671C46.9641 79.1657 46.143 79.4998 45.3481 79.8595C45.2774 79.8917 45.2024 79.9067 45.1285 79.9067Z" fill="#E0E0E0"/>
<path d="M179.452 222.704C179.455 222.506 179.364 222.347 179.178 222.225C178.865 221.98 178.468 221.864 177.997 221.878C177.523 221.891 177.11 221.992 176.757 222.178L174.6 223.322C174.778 223.003 174.91 222.675 174.99 222.339C175.053 222.074 175.082 221.806 175.075 221.535C175.065 221.084 175.074 218.584 175.076 218.348C175.08 217.864 174.973 217.372 174.755 216.87C174.428 216.123 173.789 215.401 172.838 214.701C172.18 214.194 171.39 213.638 170.468 213.034C169.546 212.429 168.705 211.916 167.947 211.494C165.991 210.44 163.877 209.597 161.606 208.964C159.334 208.331 156.891 208.026 154.282 208.046C151.673 208.067 148.896 208.464 145.95 209.235C143.005 210.004 139.896 211.257 136.623 212.994C133.831 214.475 131.721 216.014 130.298 217.609C128.872 219.205 128.009 220.781 127.71 222.334C127.617 222.815 127.574 223.29 127.579 223.759C127.586 224.286 127.576 226.542 127.577 226.995C127.579 228.063 127.833 229.104 128.337 230.116C129.057 231.559 130.164 232.865 131.66 234.036C131.975 234.28 132.432 234.608 133.033 235.02C133.63 235.432 134.271 235.86 134.952 236.307C135.634 236.754 136.296 237.18 136.94 237.582C137.586 237.985 138.11 238.302 138.515 238.53C140.39 239.531 142.515 240.314 144.886 240.878C147.256 241.444 149.753 241.72 152.377 241.707C154.998 241.695 157.709 241.35 160.509 240.674C163.306 239.996 166.102 238.919 168.894 237.438C171.14 236.247 172.933 235.12 174.276 234.059C175.619 232.998 176.655 232.005 177.388 231.077C178.121 230.149 178.618 229.267 178.881 228.431C179.144 227.594 179.332 226.813 179.444 226.088C179.449 226.053 179.452 226.019 179.452 225.986C179.453 225.791 179.452 222.735 179.452 222.704ZM171.419 226.556C171.132 226.978 170.723 227.441 170.189 227.947C169.652 228.452 168.957 228.996 168.104 229.576C167.247 230.157 166.161 230.797 164.846 231.494C162.986 232.481 161.096 233.222 159.179 233.717C157.262 234.21 155.381 234.479 153.532 234.524C151.687 234.57 149.907 234.412 148.196 234.052C146.485 233.692 144.893 233.141 143.418 232.402C142.979 232.192 142.458 231.897 141.855 231.52C141.251 231.144 140.634 230.749 140.006 230.337C139.378 229.926 138.785 229.528 138.226 229.142C137.668 228.757 137.246 228.434 136.964 228.172C135.874 227.229 135.101 226.228 134.646 225.169C134.594 225.048 134.549 224.927 134.506 224.806C134.831 223.877 135.437 222.95 136.33 222.026C137.364 220.955 138.812 219.925 140.673 218.937C142.886 217.762 144.99 216.869 146.986 216.254C148.091 215.914 149.166 215.662 150.216 215.483L149.664 215.776C149.311 215.963 149.113 216.195 149.07 216.472C149.028 216.749 149.154 216.982 149.447 217.174L149.808 217.411C148.883 217.3 147.931 217.306 146.956 217.426C145.979 217.549 144.835 217.958 143.52 218.655C142.332 219.286 141.466 219.983 140.921 220.748C140.442 221.417 140.205 222.105 140.207 222.812C140.207 222.913 140.208 225.559 140.208 226.103C140.208 226.204 140.212 226.304 140.222 226.405C140.3 227.217 140.666 228.047 141.315 228.891C141.963 229.736 142.905 230.56 144.134 231.366C145.363 232.172 146.663 232.806 148.034 233.266C149.406 233.728 150.796 234.012 152.208 234.119C153.617 234.226 155 234.151 156.349 233.895C157.7 233.638 158.969 233.195 160.156 232.565C161.15 232.038 161.919 231.551 162.459 231.105C162.999 230.66 163.386 230.249 163.621 229.871C163.855 229.492 163.983 229.139 164.005 228.811C164.028 228.483 164.032 228.163 164.022 227.851C164.926 227.911 166.014 227.833 167.285 227.619C168.552 227.405 169.991 226.872 171.594 226.022C171.68 225.976 171.757 225.927 171.84 225.88C171.714 226.099 171.576 226.324 171.419 226.556ZM152.303 223.393C153.631 223.56 154.953 224.072 156.261 224.93C156.738 225.243 157.134 225.549 157.455 225.85C157.269 225.982 157.065 226.112 156.827 226.238C155.702 226.835 154.477 227.058 153.146 226.907C151.815 226.758 150.494 226.253 149.185 225.395C148.694 225.073 148.286 224.755 147.962 224.441C148.131 224.319 148.315 224.201 148.529 224.087C149.716 223.459 150.974 223.227 152.303 223.393ZM167.234 220.219C166.665 220.467 166.028 220.612 165.315 220.643C164.47 220.679 163.725 220.486 163.084 220.066L155.833 215.313C156.563 215.397 157.288 215.514 158.005 215.685C159.735 216.098 161.432 216.735 163.095 217.596C163.886 218 164.676 218.461 165.463 218.978C166.1 219.396 166.683 219.808 167.234 220.219Z" fill="#27DEBF"/>
<path opacity="0.2" d="M179.452 222.704C179.455 222.506 179.364 222.347 179.178 222.225C178.865 221.98 178.468 221.864 177.997 221.878C177.523 221.891 177.11 221.992 176.757 222.178L174.6 223.322C174.778 223.003 174.91 222.675 174.99 222.339C175.053 222.074 175.082 221.806 175.075 221.535C175.065 221.084 175.074 218.584 175.076 218.348C175.08 217.864 174.973 217.372 174.755 216.87C174.428 216.123 173.789 215.401 172.838 214.701C172.18 214.194 171.39 213.638 170.468 213.034C169.546 212.429 168.705 211.916 167.947 211.494C165.991 210.44 163.877 209.597 161.606 208.964C159.334 208.331 156.891 208.026 154.282 208.046C151.673 208.067 148.896 208.464 145.95 209.235C143.005 210.004 139.896 211.257 136.623 212.994C133.831 214.475 131.721 216.014 130.298 217.609C128.872 219.205 128.009 220.781 127.71 222.334C127.617 222.815 127.574 223.29 127.579 223.759C127.586 224.286 127.576 226.542 127.577 226.995C127.579 228.063 127.833 229.104 128.337 230.116C129.057 231.559 130.164 232.865 131.66 234.036C131.975 234.28 132.432 234.608 133.033 235.02C133.63 235.432 134.271 235.86 134.952 236.307C135.634 236.754 136.296 237.18 136.94 237.582C137.586 237.985 138.11 238.302 138.515 238.53C140.39 239.531 142.515 240.314 144.886 240.878C147.256 241.444 149.753 241.72 152.377 241.707C154.998 241.695 157.709 241.35 160.509 240.674C163.306 239.996 166.102 238.919 168.894 237.438C171.14 236.247 172.933 235.12 174.276 234.059C175.619 232.998 176.655 232.005 177.388 231.077C178.121 230.149 178.618 229.267 178.881 228.431C179.144 227.594 179.332 226.813 179.444 226.088C179.449 226.053 179.452 226.019 179.452 225.986C179.453 225.791 179.452 222.735 179.452 222.704ZM171.419 226.556C171.132 226.978 170.723 227.441 170.189 227.947C169.652 228.452 168.957 228.996 168.104 229.576C167.247 230.157 166.161 230.797 164.846 231.494C162.986 232.481 161.096 233.222 159.179 233.717C157.262 234.21 155.381 234.479 153.532 234.524C151.687 234.57 149.907 234.412 148.196 234.052C146.485 233.692 144.893 233.141 143.418 232.402C142.979 232.192 142.458 231.897 141.855 231.52C141.251 231.144 140.634 230.749 140.006 230.337C139.378 229.926 138.785 229.528 138.226 229.142C137.668 228.757 137.246 228.434 136.964 228.172C135.874 227.229 135.101 226.228 134.646 225.169C134.594 225.048 134.549 224.927 134.506 224.806C134.831 223.877 135.437 222.95 136.33 222.026C137.364 220.955 138.812 219.925 140.673 218.937C142.886 217.762 144.99 216.869 146.986 216.254C148.091 215.914 149.166 215.662 150.216 215.483L149.664 215.776C149.311 215.963 149.113 216.195 149.07 216.472C149.028 216.749 149.154 216.982 149.447 217.174L149.808 217.411C148.883 217.3 147.931 217.306 146.956 217.426C145.979 217.549 144.835 217.958 143.52 218.655C142.332 219.286 141.466 219.983 140.921 220.748C140.442 221.417 140.205 222.105 140.207 222.812C140.207 222.913 140.208 225.559 140.208 226.103C140.208 226.204 140.212 226.304 140.222 226.405C140.3 227.217 140.666 228.047 141.315 228.891C141.963 229.736 142.905 230.56 144.134 231.366C145.363 232.172 146.663 232.806 148.034 233.266C149.406 233.728 150.796 234.012 152.208 234.119C153.617 234.226 155 234.151 156.349 233.895C157.7 233.638 158.969 233.195 160.156 232.565C161.15 232.038 161.919 231.551 162.459 231.105C162.999 230.66 163.386 230.249 163.621 229.871C163.855 229.492 163.983 229.139 164.005 228.811C164.028 228.483 164.032 228.163 164.022 227.851C164.926 227.911 166.014 227.833 167.285 227.619C168.552 227.405 169.991 226.872 171.594 226.022C171.68 225.976 171.757 225.927 171.84 225.88C171.714 226.099 171.576 226.324 171.419 226.556ZM152.303 223.393C153.631 223.56 154.953 224.072 156.261 224.93C156.738 225.243 157.134 225.549 157.455 225.85C157.269 225.982 157.065 226.112 156.827 226.238C155.702 226.835 154.477 227.058 153.146 226.907C151.815 226.758 150.494 226.253 149.185 225.395C148.694 225.073 148.286 224.755 147.962 224.441C148.131 224.319 148.315 224.201 148.529 224.087C149.716 223.459 150.974 223.227 152.303 223.393ZM167.234 220.219C166.665 220.467 166.028 220.612 165.315 220.643C164.47 220.679 163.725 220.486 163.084 220.066L155.833 215.313C156.563 215.397 157.288 215.514 158.005 215.685C159.735 216.098 161.432 216.735 163.095 217.596C163.886 218 164.676 218.461 165.463 218.978C166.1 219.396 166.683 219.808 167.234 220.219Z" fill="black"/>
<path opacity="0.1" d="M134.505 224.806C134.83 223.877 135.436 222.95 136.328 222.026C137.362 220.955 138.811 219.925 140.671 218.937C142.884 217.762 144.988 216.869 146.984 216.254C148.089 215.914 149.164 215.662 150.214 215.483L152.165 214.449C152.516 214.262 152.929 214.169 153.401 214.173C153.869 214.178 154.252 214.276 154.545 214.469L155.833 215.313C156.563 215.397 157.288 215.514 158.005 215.685C159.736 216.098 161.432 216.735 163.095 217.596C163.886 218 164.675 218.461 165.463 218.978C166.1 219.395 166.682 219.808 167.234 220.219C167.338 220.173 167.445 220.131 167.544 220.078C168.185 219.737 168.559 219.325 168.664 218.842C168.768 218.359 168.424 217.82 167.634 217.225C166.976 216.717 166.252 216.206 165.463 215.689C164.675 215.172 163.886 214.712 163.095 214.307C161.432 213.446 159.736 212.809 158.005 212.397C156.271 211.984 154.499 211.822 152.692 211.911C150.881 211.999 148.977 212.352 146.984 212.965C144.989 213.58 142.884 214.474 140.671 215.648C138.811 216.635 137.362 217.666 136.328 218.738C135.293 219.809 134.641 220.884 134.369 221.963C134.1 223.042 134.191 224.11 134.645 225.169C134.593 225.048 134.547 224.927 134.505 224.806Z" fill="black"/>
<path opacity="0.1" d="M156.261 221.641C154.952 220.784 153.631 220.271 152.303 220.104C150.975 219.938 149.716 220.17 148.53 220.799C147.404 221.395 146.908 222.095 147.034 222.9C147.112 223.405 147.424 223.92 147.967 224.445C147.966 224.444 147.964 224.443 147.962 224.441C148.131 224.32 148.315 224.201 148.53 224.088C149.716 223.459 150.974 223.227 152.303 223.393C153.631 223.56 154.952 224.072 156.261 224.93C156.738 225.243 157.134 225.549 157.455 225.85C157.365 225.914 157.27 225.978 157.17 226.04C158.114 225.463 158.54 224.824 158.437 224.125C158.321 223.346 157.598 222.519 156.261 221.641Z" fill="black"/>
<path opacity="0.1" d="M152.207 230.829C150.794 230.723 149.404 230.438 148.033 229.977C146.662 229.516 145.362 228.882 144.133 228.076C142.904 227.27 141.962 226.446 141.314 225.601C140.665 224.757 140.299 223.928 140.221 223.115C140.205 222.955 140.211 222.797 140.22 222.639C140.217 222.697 140.205 222.753 140.205 222.811C140.206 222.912 140.206 225.558 140.206 226.103C140.206 226.203 140.211 226.303 140.22 226.404C140.299 227.217 140.665 228.046 141.314 228.89C141.962 229.735 142.903 230.559 144.132 231.365C145.361 232.171 146.661 232.805 148.033 233.266C149.404 233.727 150.794 234.011 152.206 234.118L152.207 230.829Z" fill="black"/>
<path opacity="0.1" d="M164.021 224.561C164.031 224.873 164.027 225.193 164.004 225.521L164.021 227.85C164.925 227.909 166.012 227.832 167.283 227.618V224.329C166.013 224.544 164.925 224.621 164.021 224.561Z" fill="black"/>
<path opacity="0.1" d="M144.886 237.589C142.515 237.025 140.39 236.242 138.515 235.24C138.109 235.012 137.585 234.696 136.939 234.293C136.295 233.891 135.634 233.465 134.952 233.018C134.27 232.571 133.63 232.142 133.033 231.731C132.432 231.319 131.975 230.991 131.66 230.746C130.164 229.575 129.056 228.269 128.337 226.827C127.829 225.808 127.581 224.76 127.583 223.684C127.583 223.709 127.58 223.734 127.58 223.759C127.586 224.286 127.577 226.542 127.578 226.995C127.58 228.063 127.833 229.103 128.338 230.116C129.057 231.558 130.165 232.865 131.66 234.035C131.975 234.28 132.433 234.608 133.034 235.02C133.631 235.432 134.271 235.86 134.953 236.307C135.635 236.754 136.296 237.18 136.94 237.582C137.586 237.985 138.11 238.302 138.515 238.529C140.391 239.531 142.515 240.314 144.887 240.878C147.256 241.444 149.754 241.72 152.378 241.707V238.418C149.753 238.431 147.256 238.155 144.886 237.589Z" fill="black"/>
<path d="M172.839 214.701C173.79 215.402 174.429 216.125 174.756 216.87C175.08 217.618 175.159 218.344 174.99 219.052C174.821 219.759 174.437 220.431 173.839 221.065C173.241 221.7 172.49 222.255 171.593 222.732C169.989 223.583 168.55 224.116 167.283 224.329C166.012 224.544 164.924 224.621 164.02 224.562C164.03 224.873 164.027 225.194 164.003 225.521C163.982 225.85 163.853 226.203 163.619 226.582C163.385 226.96 162.998 227.371 162.457 227.816C161.917 228.261 161.149 228.748 160.154 229.276C158.967 229.906 157.698 230.349 156.347 230.605C154.999 230.862 153.616 230.937 152.206 230.83C150.794 230.723 149.404 230.439 148.033 229.977C146.661 229.517 145.361 228.882 144.132 228.076C142.903 227.271 141.962 226.447 141.314 225.602C140.665 224.758 140.299 223.928 140.22 223.116C140.14 222.302 140.372 221.513 140.919 220.748C141.464 219.983 142.33 219.285 143.518 218.655C144.833 217.957 145.977 217.549 146.953 217.426C147.929 217.305 148.881 217.3 149.806 217.411L149.445 217.174C149.152 216.981 149.026 216.748 149.068 216.472C149.111 216.195 149.309 215.963 149.661 215.776L152.164 214.448C152.516 214.262 152.928 214.169 153.401 214.173C153.869 214.178 154.251 214.276 154.545 214.469L163.083 220.065C163.724 220.486 164.47 220.679 165.314 220.642C166.159 220.606 166.901 220.419 167.544 220.078C168.185 219.737 168.558 219.325 168.663 218.841C168.767 218.358 168.423 217.819 167.633 217.224C166.975 216.718 166.251 216.206 165.462 215.689C164.674 215.172 163.885 214.712 163.094 214.307C161.43 213.446 159.735 212.809 158.003 212.396C156.27 211.984 154.498 211.822 152.69 211.911C150.879 211.999 148.976 212.351 146.983 212.965C144.987 213.58 142.883 214.473 140.67 215.648C138.809 216.635 137.361 217.666 136.327 218.737C135.292 219.809 134.64 220.884 134.368 221.963C134.099 223.042 134.19 224.11 134.644 225.168C135.099 226.228 135.871 227.228 136.961 228.171C137.244 228.434 137.665 228.756 138.224 229.142C138.783 229.527 139.376 229.926 140.003 230.337C140.632 230.749 141.249 231.143 141.852 231.52C142.456 231.897 142.977 232.191 143.415 232.402C144.891 233.141 146.484 233.692 148.193 234.051C149.905 234.412 151.685 234.57 153.53 234.524C155.378 234.479 157.259 234.21 159.177 233.716C161.094 233.222 162.983 232.481 164.844 231.494C166.16 230.796 167.245 230.156 168.102 229.576C168.956 228.995 169.65 228.451 170.187 227.946C170.721 227.44 171.13 226.977 171.417 226.556C171.702 226.135 171.935 225.735 172.112 225.356C172.252 225.029 172.377 224.78 172.492 224.607C172.608 224.436 172.841 224.255 173.195 224.068L176.756 222.179C177.109 221.992 177.521 221.892 177.996 221.879C178.467 221.865 178.863 221.981 179.177 222.226C179.39 222.366 179.48 222.557 179.442 222.799C179.33 223.524 179.142 224.305 178.879 225.142C178.616 225.977 178.119 226.86 177.387 227.787C176.653 228.716 175.617 229.709 174.275 230.77C172.931 231.831 171.138 232.958 168.892 234.149C166.101 235.63 163.305 236.708 160.508 237.385C157.708 238.062 154.997 238.406 152.376 238.419C149.752 238.432 147.255 238.155 144.885 237.59C142.514 237.026 140.389 236.243 138.514 235.241C138.108 235.013 137.584 234.697 136.938 234.294C136.295 233.892 135.633 233.466 134.951 233.019C134.269 232.572 133.629 232.143 133.033 231.731C132.432 231.32 131.974 230.992 131.659 230.747C130.164 229.576 129.056 228.27 128.337 226.828C127.619 225.387 127.409 223.889 127.709 222.335C128.009 220.782 128.872 219.206 130.298 217.61C131.722 216.015 133.832 214.476 136.623 212.995C139.896 211.258 143.005 210.005 145.95 209.235C148.897 208.464 151.673 208.069 154.282 208.047C156.891 208.026 159.334 208.332 161.606 208.964C163.877 209.598 165.99 210.441 167.947 211.495C168.706 211.917 169.546 212.43 170.468 213.034C171.391 213.639 172.181 214.194 172.839 214.701ZM149.186 225.396C150.495 226.254 151.816 226.759 153.147 226.908C154.478 227.058 155.702 226.835 156.828 226.239C158.014 225.61 158.552 224.905 158.438 224.125C158.321 223.347 157.599 222.518 156.262 221.642C154.953 220.784 153.632 220.272 152.304 220.105C150.975 219.938 149.717 220.17 148.53 220.799C147.405 221.396 146.908 222.095 147.034 222.9C147.159 223.706 147.876 224.537 149.186 225.396Z" fill="#27DEBF"/>
<path d="M173.587 200.093V200.487C173.587 201.118 174.03 201.884 174.576 202.2L195.775 214.451C196.321 214.766 197.206 214.766 197.752 214.451L232.856 194.163C233.402 193.848 233.844 193.081 233.844 192.45V192.056C233.844 191.425 233.402 190.658 232.856 190.342L211.657 178.091C211.111 177.776 210.226 177.776 209.68 178.091L174.576 198.379C174.03 198.695 173.587 199.462 173.587 200.093Z" fill="#27DEBF"/>
<path d="M173.587 200.093V200.487C173.587 201.118 174.03 201.884 174.576 202.2L195.775 214.451C196.321 214.766 197.206 214.766 197.752 214.451L232.856 194.163C233.402 193.848 233.844 193.081 233.844 192.45V192.056C233.844 191.425 233.402 190.658 232.856 190.342L211.657 178.091C211.111 177.776 210.226 177.776 209.68 178.091L174.576 198.379C174.03 198.695 173.587 199.462 173.587 200.093Z" fill="#27DEBF"/>
<path opacity="0.2" d="M196.763 185.557L174.576 198.38C174.03 198.695 173.587 199.462 173.587 200.093V200.487C173.587 201.118 174.03 201.885 174.576 202.2L195.775 214.451C196.048 214.608 196.405 214.687 196.763 214.687H196.763V185.557Z" fill="black"/>
<path opacity="0.15" d="M196.763 185.557L174.576 198.38C174.03 198.695 173.587 199.462 173.587 200.093V200.487C173.587 201.118 174.03 201.885 174.576 202.2L195.775 214.451C196.048 214.608 196.405 214.687 196.763 214.687H196.763V185.557Z" fill="black"/>
<path opacity="0.2" d="M232.856 190.343L211.656 178.092C211.11 177.777 210.225 177.777 209.68 178.092L196.763 185.557V214.688C197.121 214.688 197.478 214.609 197.751 214.452L232.856 194.164C233.401 193.849 233.844 193.082 233.844 192.451V192.057C233.844 191.426 233.401 190.659 232.856 190.343Z" fill="black"/>
<path d="M192.381 209.811L174.575 199.521C174.03 199.206 174.03 198.694 174.575 198.379L209.68 178.092C210.226 177.777 211.111 177.777 211.657 178.092L232.856 190.343C233.402 190.658 233.402 191.17 232.856 191.485L227.033 194.85L224.994 196.029L197.752 211.772C197.206 212.087 196.321 212.087 195.776 211.772L194.049 210.774L192.381 209.811Z" fill="#27DEBF"/>
<path opacity="0.15" d="M208.544 192.718L232.856 190.343L208.758 191.709L211.657 178.093C211.36 177.922 210.967 177.852 210.58 177.866L206.034 196.272L174.174 198.902C174.151 199.124 174.281 199.351 174.576 199.522L200.305 198.027L196.763 212.009L201.292 197.97L205.686 197.714C206.239 197.682 206.744 197.459 207.136 197.107L207.139 197.107L207.14 197.104C207.505 196.775 207.773 196.335 207.882 195.827L208.544 192.718Z" fill="black"/>
<path opacity="0.3" d="M181.776 198.275L206.034 196.272L206.902 192.793L207.382 190.856L210.584 177.866C210.255 177.878 209.931 177.948 209.681 178.093L192.128 188.236L174.576 198.379C174.325 198.524 174.195 198.712 174.175 198.902L179.041 198.5L181.776 198.275Z" fill="white"/>
</svg>
