<svg width="551" height="551" viewBox="0 0 551 551" fill="none" xmlns="http://www.w3.org/2000/svg">
<path d="M138.004 428.942C213.943 465.132 337.058 465.143 412.997 428.942C488.936 392.742 488.925 334.071 412.997 297.882C337.069 261.692 213.943 261.692 138.004 297.882C62.0649 334.071 62.0759 392.753 138.004 428.942Z" fill="#F5F5F5"/>
<path d="M412.732 402.197C426.718 402.197 438.056 396.794 438.056 390.13C438.056 383.466 426.718 378.063 412.732 378.063C398.746 378.063 387.408 383.466 387.408 390.13C387.408 396.794 398.746 402.197 412.732 402.197Z" fill="#EBEBEB"/>
<path d="M132.24 391.86L141.2 386.692C146.202 382.61 150.009 377.253 152.219 371.187C154.986 363.561 154.6 357.764 152.616 354.855C150.181 351.274 143.866 351.902 143.613 359.439C143.084 374.294 138.753 384.598 132.24 391.86Z" fill="#37474F"/>
<path opacity="0.2" d="M132.24 391.86L141.2 386.692C146.202 382.61 150.009 377.253 152.219 371.187C154.986 363.561 154.6 357.764 152.616 354.855C150.181 351.274 143.866 351.902 143.613 359.439C143.084 374.294 138.753 384.598 132.24 391.86Z" fill="black"/>
<path d="M132.24 392.411C132.123 392.41 132.01 392.371 131.916 392.301C131.823 392.232 131.754 392.134 131.72 392.022C131.685 391.911 131.687 391.791 131.725 391.681C131.763 391.571 131.835 391.475 131.931 391.408C152.649 377.082 148.637 357.103 148.593 356.905C148.578 356.832 148.577 356.758 148.591 356.685C148.605 356.612 148.632 356.543 148.673 356.481C148.713 356.419 148.765 356.366 148.826 356.324C148.888 356.282 148.956 356.253 149.029 356.238C149.101 356.223 149.176 356.222 149.248 356.236C149.321 356.249 149.39 356.277 149.452 356.318C149.514 356.358 149.567 356.41 149.609 356.471C149.651 356.532 149.68 356.601 149.695 356.673C149.695 356.883 153.927 377.545 132.592 392.312C132.489 392.383 132.365 392.418 132.24 392.411Z" fill="white"/>
<path d="M114.288 402.23C114.288 402.23 111.17 399.695 111.919 396.257C112.668 392.819 114.685 390.35 111.236 385.92C107.786 381.49 106.828 375.584 110.949 372.388C114.09 369.908 118.994 373.413 120.757 366.878C122.057 362.095 121.617 351.505 127.711 347.979C133.805 344.452 137.629 349.764 136.67 356.949C135.832 363.373 134.642 369.556 135.568 371.275C137.353 374.581 140.406 374.129 140.262 380.168C140.141 385.788 134.818 390.439 134.818 390.439L114.288 402.23Z" fill="#37474F"/>
<path d="M124.525 396.841C124.391 396.84 124.261 396.79 124.16 396.701C124.059 396.612 123.993 396.49 123.974 396.356C122.399 383.298 126.178 360.751 129.264 354.051C129.29 353.976 129.332 353.908 129.386 353.851C129.44 353.795 129.506 353.75 129.58 353.721C129.653 353.692 129.731 353.678 129.81 353.682C129.888 353.686 129.965 353.706 130.035 353.742C130.101 353.772 130.16 353.814 130.209 353.867C130.259 353.92 130.297 353.982 130.321 354.05C130.346 354.118 130.357 354.19 130.353 354.262C130.349 354.334 130.331 354.404 130.3 354.469C127.247 361.081 123.6 383.694 125.109 396.18C125.125 396.325 125.083 396.469 124.992 396.583C124.901 396.696 124.769 396.769 124.625 396.786L124.525 396.841Z" fill="white"/>
<path d="M124.228 386.67C124.144 386.674 124.06 386.655 123.985 386.615C120.162 384.752 117.737 378.107 117.638 377.799C117.611 377.73 117.598 377.657 117.6 377.583C117.602 377.51 117.618 377.437 117.648 377.37C117.679 377.303 117.722 377.242 117.776 377.192C117.83 377.142 117.894 377.104 117.963 377.079C118.032 377.053 118.106 377.043 118.18 377.046C118.253 377.05 118.325 377.069 118.392 377.101C118.458 377.133 118.517 377.178 118.565 377.234C118.614 377.289 118.651 377.354 118.674 377.424C118.674 377.49 121.043 383.926 124.47 385.59C124.583 385.644 124.673 385.735 124.727 385.848C124.781 385.961 124.795 386.088 124.767 386.21C124.739 386.332 124.67 386.44 124.572 386.518C124.474 386.595 124.353 386.637 124.228 386.637V386.67Z" fill="white"/>
<path d="M124.162 391.078C124.052 391.078 123.944 391.044 123.853 390.981C123.762 390.918 123.693 390.829 123.655 390.725C123.6 390.591 123.601 390.44 123.656 390.306C123.712 390.172 123.819 390.065 123.953 390.009C130.388 387.43 134.4 379.771 134.444 379.683C134.511 379.553 134.627 379.455 134.766 379.411C134.906 379.366 135.057 379.379 135.187 379.446C135.318 379.513 135.416 379.63 135.46 379.769C135.504 379.909 135.492 380.06 135.424 380.19C135.248 380.521 131.182 388.301 124.404 391.034C124.329 391.069 124.245 391.085 124.162 391.078Z" fill="white"/>
<path d="M349.113 331.79C349.113 331.79 344.298 323.988 343.824 315.514C343.35 307.039 345.212 303.513 347.769 302.499C350.326 301.485 350.524 304.604 351.835 306.444C353.147 308.284 355.825 307.238 356.816 301.496C357.808 295.755 361.423 286.068 368.938 284.184C377.203 282.134 372.773 291.832 370.691 295.612C368.608 299.391 366.999 304.549 368.365 305.948C369.732 307.348 371.859 304.758 373.875 307.16C376.333 310.059 368.696 320.495 364.31 323.018L349.113 331.79Z" fill="#37474F"/>
<path d="M355.714 328.517C355.642 328.514 355.571 328.497 355.505 328.467C355.439 328.437 355.38 328.394 355.331 328.34C355.282 328.287 355.243 328.225 355.218 328.157C355.193 328.089 355.182 328.017 355.185 327.944C355.931 314.312 360.182 301.103 367.527 289.595C367.569 289.535 367.622 289.484 367.684 289.445C367.746 289.406 367.815 289.38 367.887 289.369C367.959 289.358 368.033 289.361 368.104 289.379C368.174 289.397 368.241 289.429 368.299 289.473C368.414 289.559 368.492 289.687 368.514 289.829C368.537 289.971 368.503 290.116 368.42 290.234C361.206 301.574 357.032 314.579 356.298 327.999C356.294 328.072 356.275 328.143 356.244 328.208C356.212 328.273 356.168 328.331 356.114 328.38C356.059 328.428 355.996 328.465 355.928 328.488C355.859 328.512 355.786 328.522 355.714 328.517Z" fill="white"/>
<path d="M356.342 322.004C356.25 322.004 356.16 321.981 356.078 321.938C352.992 320.23 351.284 315.161 351.218 314.952C351.194 314.883 351.183 314.81 351.187 314.737C351.191 314.664 351.21 314.593 351.242 314.528C351.273 314.462 351.318 314.403 351.372 314.355C351.427 314.307 351.491 314.27 351.56 314.246C351.699 314.201 351.85 314.213 351.98 314.279C352.11 314.345 352.209 314.46 352.254 314.599C352.254 314.599 353.907 319.481 356.662 320.969C356.787 321.042 356.878 321.161 356.917 321.301C356.956 321.441 356.94 321.59 356.871 321.718C356.822 321.813 356.745 321.891 356.65 321.942C356.556 321.993 356.449 322.014 356.342 322.004Z" fill="white"/>
<path d="M356.882 318.665C356.76 318.664 356.642 318.622 356.546 318.546C356.451 318.471 356.383 318.365 356.353 318.247C356.335 318.177 356.331 318.105 356.341 318.034C356.352 317.963 356.376 317.894 356.413 317.833C356.45 317.771 356.499 317.718 356.557 317.675C356.614 317.633 356.68 317.602 356.75 317.585C364.707 315.569 367.462 311.403 367.484 311.359C367.523 311.298 367.573 311.244 367.633 311.203C367.693 311.161 367.76 311.131 367.831 311.115C367.902 311.099 367.976 311.097 368.048 311.11C368.119 311.123 368.188 311.149 368.249 311.188C368.311 311.227 368.364 311.278 368.406 311.338C368.448 311.397 368.478 311.465 368.493 311.536C368.509 311.607 368.511 311.681 368.498 311.752C368.486 311.824 368.459 311.893 368.42 311.954C368.299 312.141 365.434 316.516 357.026 318.654L356.882 318.665Z" fill="white"/>
<path d="M229.216 314.665C229.216 314.665 218.647 312.086 218.096 292.294C217.512 270.938 220.686 246.01 208.178 243.994C195.671 241.977 188.728 257.218 188.882 275.015C189.026 290.597 195.307 324.429 229.172 331.063L229.216 314.665Z" fill="#37474F"/>
<path opacity="0.2" d="M229.216 314.665C229.216 314.665 218.647 312.086 218.096 292.294C217.512 270.938 220.686 246.01 208.178 243.994C195.671 241.977 188.728 257.218 188.882 275.015C189.026 290.597 195.307 324.429 229.172 331.063L229.216 314.665Z" fill="black"/>
<path d="M229.216 329.035H229.116C221.502 327.647 215.297 323.448 210.68 316.572C196.993 296.151 201.302 258.022 202.724 251.366C202.755 251.224 202.841 251.1 202.962 251.02C203.083 250.94 203.231 250.91 203.374 250.936C203.516 250.971 203.64 251.058 203.72 251.181C203.8 251.304 203.83 251.453 203.803 251.598C202.404 258.21 198.117 295.854 211.595 315.954C213.556 319.072 216.145 321.747 219.195 323.811C222.246 325.875 225.692 327.282 229.315 327.944C229.387 327.957 229.455 327.985 229.516 328.025C229.578 328.065 229.63 328.116 229.671 328.177C229.712 328.237 229.741 328.305 229.755 328.377C229.77 328.449 229.77 328.523 229.756 328.594C229.732 328.72 229.665 328.833 229.566 328.914C229.467 328.994 229.343 329.037 229.216 329.035Z" fill="white"/>
<path d="M229.216 379.826C218.295 381.303 200.564 381.281 190.326 373.214C180.089 365.148 182.227 358.205 186.161 355.307C190.095 352.409 193.511 349.103 186.745 342.667C179.979 336.231 169.113 325.894 165.586 310.389C162.06 294.884 163.801 285.187 170.722 281.958C177.433 278.828 179.207 283.809 183.318 294.08C187.428 304.35 196.674 295.545 204.586 298.752C212.499 301.959 212.179 308.307 212.675 313.761C213.171 319.216 215.783 320.726 220.268 320.726C224.753 320.726 229.216 323.305 229.216 328.44V379.826Z" fill="#37474F"/>
<path d="M229.216 361.82C229.169 361.83 229.12 361.83 229.073 361.82C228.599 361.687 217.303 358.403 200.85 343.295C183.329 327.206 175.064 303.072 174.976 302.83C174.933 302.691 174.946 302.541 175.012 302.411C175.078 302.282 175.191 302.183 175.328 302.135C175.466 302.09 175.615 302.1 175.745 302.164C175.875 302.228 175.975 302.34 176.022 302.477C176.1 302.719 184.287 326.589 201.6 342.48C217.821 357.39 229.249 360.729 229.37 360.762C229.44 360.782 229.504 360.816 229.561 360.861C229.617 360.906 229.664 360.962 229.699 361.026C229.734 361.089 229.756 361.159 229.764 361.231C229.772 361.303 229.765 361.376 229.745 361.445C229.709 361.556 229.638 361.653 229.543 361.721C229.448 361.788 229.333 361.823 229.216 361.82Z" fill="white"/>
<path d="M205.445 347.13C205.335 347.132 205.226 347.099 205.135 347.035C205.044 346.972 204.975 346.882 204.938 346.777C201.401 337.697 200.597 318.269 200.53 317.442C200.527 317.297 200.581 317.156 200.679 317.049C200.778 316.942 200.914 316.878 201.059 316.869C201.203 316.871 201.341 316.926 201.447 317.024C201.553 317.122 201.619 317.255 201.632 317.398C201.632 317.596 202.459 337.465 205.93 346.381C205.957 346.449 205.97 346.521 205.968 346.594C205.966 346.667 205.95 346.739 205.92 346.806C205.89 346.872 205.848 346.932 205.795 346.982C205.741 347.032 205.679 347.071 205.611 347.097C205.557 347.116 205.502 347.127 205.445 347.13Z" fill="white"/>
<path d="M205.358 360.189C204.342 360.197 203.326 360.145 202.316 360.034C202.244 360.026 202.174 360.003 202.11 359.967C202.047 359.931 201.991 359.884 201.946 359.826C201.901 359.769 201.867 359.703 201.848 359.633C201.828 359.563 201.822 359.49 201.831 359.417C201.84 359.345 201.863 359.275 201.898 359.211C201.934 359.148 201.982 359.092 202.039 359.047C202.097 359.002 202.162 358.969 202.232 358.949C202.303 358.929 202.376 358.924 202.448 358.932C202.547 358.932 212.807 360.101 217.513 355.307C217.562 355.249 217.622 355.202 217.69 355.168C217.758 355.135 217.833 355.115 217.908 355.112C217.984 355.109 218.06 355.121 218.131 355.148C218.202 355.175 218.266 355.217 218.32 355.27C218.374 355.323 218.417 355.387 218.445 355.458C218.473 355.528 218.487 355.604 218.484 355.68C218.482 355.756 218.464 355.83 218.431 355.899C218.399 355.967 218.352 356.028 218.295 356.078C214.89 359.594 208.95 360.189 205.358 360.189Z" fill="white"/>
<path d="M197.423 151.514L196.232 144.649L190.105 148.682C189.545 147.58 188.752 146.613 187.78 145.85L190.711 137.915L185.201 136.692L181.168 144.406C179.709 144.652 178.294 145.113 176.969 145.773L175.217 139.954L168.671 145.1L169.101 151.933C167.768 153.426 166.559 155.025 165.487 156.715L160.087 156.44L156.296 164.936L160.935 166.92C160.451 168.677 160.145 170.479 160.021 172.298L154.125 177.72L155.304 184.596L161.442 180.563C161.999 181.664 162.793 182.627 163.767 183.384L160.891 191.329L166.401 192.541L172.176 186.921C173.509 186.712 173.179 184.199 174.633 183.483L176.385 189.28L182.92 184.144L182.755 181.455C184.077 179.979 189.08 176.728 190.16 175.031L191.516 172.827L195.307 164.33L193.544 161.134L191.582 156.969L197.423 151.514ZM177.421 174.116C172.396 178.061 170.809 178.932 169.961 173.653C169.112 168.375 171.988 160.352 177.014 156.396C182.039 152.44 183.956 152.164 184.86 157.432C185.763 162.699 182.457 170.215 177.421 174.116Z" fill="#E0E0E0"/>
<path d="M185.246 136.692L192.398 140.814L188.365 148.506L181.213 144.384L185.246 136.692Z" fill="#F5F5F5"/>
<path d="M203.385 148.77L197.257 152.803L190.105 148.682L196.233 144.649L203.385 148.77Z" fill="#F5F5F5"/>
<path d="M202.404 168.419L197.764 166.446L190.612 162.325L195.252 164.297L202.404 168.419Z" fill="#E0E0E0"/>
<path d="M160.881 191.329L168.033 195.44L170.964 187.505L163.812 183.384L160.881 191.329Z" fill="#E0E0E0"/>
<path d="M183.471 193.401L176.33 189.28L174.578 183.483L181.73 187.604L183.471 193.401Z" fill="#E0E0E0"/>
<path d="M204.564 155.635L203.385 148.77L197.258 152.803C196.694 151.701 195.896 150.734 194.921 149.971L197.853 142.037L192.398 140.814L188.353 148.528C186.894 148.774 185.479 149.234 184.155 149.894L182.414 144.098L175.868 149.244L176.297 156.076C174.963 157.58 173.754 159.191 172.683 160.892L167.272 160.616L163.481 169.113L168.121 171.097C167.641 172.859 167.334 174.663 167.206 176.485L161.321 181.83L162.5 188.706L168.628 184.673C169.192 185.772 169.989 186.735 170.964 187.494L168.032 195.429L173.542 196.652L177.576 188.938C179.041 188.694 180.46 188.23 181.785 187.56L183.527 193.357L190.072 188.222L189.643 181.389C190.976 179.896 192.185 178.296 193.257 176.607L198.668 176.871L202.459 168.375L197.753 166.402C198.241 164.641 198.551 162.836 198.679 161.013L204.564 155.635ZM184.585 178.282C179.57 182.227 174.766 181.158 173.851 175.89C172.936 170.623 176.275 163.14 181.301 159.195C186.326 155.25 191.119 156.33 192.034 161.597C192.949 166.865 189.61 174.336 184.585 178.282Z" fill="#EBEBEB"/>
<path d="M182.414 144.075L175.262 139.954L168.716 145.1L175.868 149.222L182.414 144.075Z" fill="#F5F5F5"/>
<path d="M168.716 145.1L169.146 151.933L176.298 156.054L175.868 149.222L168.716 145.1Z" fill="#E0E0E0"/>
<path d="M172.683 160.837L165.531 156.715L160.131 156.451L167.272 160.572L172.683 160.837Z" fill="#F5F5F5"/>
<path d="M160.131 156.451L156.34 164.936L163.481 169.058L167.272 160.572L160.131 156.451Z" fill="#E0E0E0"/>
<path d="M167.206 176.419L160.065 172.298L154.169 177.72L161.31 181.841L167.206 176.419Z" fill="#F5F5F5"/>
<path d="M162.5 188.717L155.348 184.596L154.169 177.72L161.31 181.841L162.5 188.717Z" fill="#E0E0E0"/>
<path d="M192.398 140.814L185.246 136.692L190.712 137.915L197.853 142.037L192.398 140.814Z" fill="#F5F5F5"/>
<path d="M165.399 120.349V110.09L157.233 113.77C156.8 112.03 156.053 110.383 155.029 108.911L160.175 98.5408L153.894 94.9153L147.48 104.558C145.693 104.402 143.892 104.577 142.169 105.076L141.265 96.1605L132.383 101.296L131.49 111.214C129.557 112.927 127.78 114.807 126.179 116.834L119.765 114.63L113.484 125.518L118.619 129.926C117.67 132.325 116.932 134.803 116.415 137.331L108.249 143.073V153.343L116.415 149.663C116.847 151.403 117.594 153.05 118.619 154.522L113.506 164.903L119.787 168.529L126.201 158.886C127.988 159.042 129.789 158.866 131.512 158.368L132.405 167.284L141.287 162.148L142.191 152.23C144.963 151.219 147.419 149.493 149.31 147.227L153.916 148.847L160.197 137.97L156.34 134.664C157.178 131.908 157.488 129.018 157.255 126.146L165.399 120.349ZM136.824 145.982C130.014 149.916 125.804 147.084 125.804 139.249C125.804 131.413 131.435 121.727 138.256 117.793C145.078 113.859 149.199 116.691 149.199 124.592C149.199 132.493 143.645 142.037 136.824 145.982Z" fill="#E0E0E0"/>
<path d="M161.035 99.0257L153.894 94.9153L147.48 104.558L154.621 108.679L161.035 99.0257Z" fill="#F5F5F5"/>
<path d="M172.55 114.211L165.398 110.09L157.232 113.77L164.384 117.892L172.55 114.211Z" fill="#F5F5F5"/>
<path d="M139.524 171.405L132.383 167.284L131.49 158.368L138.631 162.49L139.524 171.405Z" fill="#E0E0E0"/>
<path d="M113.473 164.903L120.625 169.025L125.771 158.655L118.619 154.533L113.473 164.903Z" fill="#E0E0E0"/>
<path d="M172.551 124.526V114.266L164.385 117.914C163.957 116.172 163.21 114.524 162.181 113.054L167.328 102.684L161.046 99.0477L154.633 108.701C152.845 108.54 151.043 108.715 149.321 109.219L148.417 100.282L139.535 105.417L138.632 115.335C136.701 117.051 134.924 118.932 133.32 120.956L126.906 118.752L120.625 129.639L125.771 134.047C124.817 136.445 124.08 138.923 123.567 141.453L115.401 147.194V157.465L123.567 153.784C123.995 155.526 124.742 157.174 125.771 158.644L120.625 169.014L126.906 172.639L133.32 162.997C135.107 163.153 136.908 162.977 138.632 162.479L139.535 171.394L148.417 166.259L149.31 156.341C151.243 154.628 153.02 152.747 154.622 150.721L161.035 152.925L167.317 142.048L162.17 137.64C163.124 135.242 163.861 132.764 164.374 130.234L172.551 124.526ZM143.976 150.159C137.155 154.093 131.623 150.897 131.623 143.029C131.623 135.16 137.133 125.584 143.976 121.639C150.82 117.694 156.319 120.9 156.319 128.769C156.319 136.637 150.787 146.158 143.976 150.103V150.159Z" fill="#EBEBEB"/>
<path d="M126.178 116.856L133.319 120.978L126.906 118.74L119.765 114.608L126.178 116.856Z" fill="#F0F0F0"/>
<path d="M119.765 114.619L113.481 125.511L120.631 129.635L126.914 118.744L119.765 114.619Z" fill="#F5F5F5"/>
<path d="M113.473 125.496L120.625 129.617L125.771 134.047L118.619 129.937L113.473 125.496Z" fill="#E0E0E0"/>
<path d="M116.415 137.342L123.567 141.464L115.401 147.205L108.249 143.084L116.415 137.342Z" fill="#F5F5F5"/>
<path d="M108.249 143.084L115.401 147.205V157.476L108.249 153.354V143.084Z" fill="#E0E0E0"/>
<path d="M148.417 100.282L141.265 96.1605L132.383 101.296L139.524 105.417L148.417 100.282Z" fill="#F5F5F5"/>
<path d="M240.104 394.571L343.692 334.755C343.92 334.674 344.118 334.525 344.257 334.328C344.397 334.13 344.472 333.894 344.472 333.653C344.472 333.411 344.397 333.175 344.257 332.977C344.118 332.78 343.92 332.631 343.692 332.551L334.115 327.041C333.522 326.742 332.867 326.587 332.203 326.587C331.539 326.587 330.885 326.742 330.291 327.041L226.67 386.802C226.442 386.882 226.244 387.031 226.105 387.229C225.965 387.426 225.89 387.662 225.89 387.904C225.89 388.146 225.965 388.382 226.105 388.579C226.244 388.777 226.442 388.926 226.67 389.006L236.28 394.516C236.869 394.823 237.521 394.988 238.185 394.998C238.849 395.007 239.506 394.861 240.104 394.571Z" fill="#E0E0E0"/>
<path d="M340.848 103.808L247.443 157.74C246.054 158.646 244.898 159.867 244.069 161.303C243.24 162.739 242.761 164.35 242.671 166.005V387.584C242.671 390.626 244.809 391.86 247.443 390.339L340.848 336.408C342.238 335.503 343.395 334.283 344.225 332.847C345.054 331.411 345.532 329.799 345.62 328.143V106.563C345.62 103.522 343.493 102.288 340.848 103.808Z" fill="#455A64"/>
<path d="M247.443 157.74L340.849 103.808C343.207 102.442 345.158 103.29 345.554 105.66C345.334 104.17 344.801 102.744 343.99 101.475C343.179 100.206 342.108 99.1238 340.849 98.2984L336.97 96.0944C335.491 95.3441 333.856 94.9532 332.198 94.9532C330.54 94.9532 328.905 95.3441 327.426 96.0944L234.01 149.982C232.603 150.864 231.443 152.089 230.638 153.542L244.071 161.256C244.876 159.815 246.037 158.604 247.443 157.74Z" fill="#37474F"/>
<path d="M229.216 379.826C229.306 381.482 229.785 383.093 230.614 384.529C231.443 385.965 232.599 387.185 233.987 388.091L237.878 390.295C239.224 390.969 240.697 391.35 242.201 391.415C243.705 391.48 245.206 391.226 246.605 390.67C244.401 391.53 242.649 390.262 242.649 387.54V166.005C242.704 164.343 243.186 162.722 244.049 161.3L230.615 153.586C229.765 154.997 229.284 156.601 229.216 158.247V379.826Z" fill="#263238"/>
<path d="M250.011 187.263L338.314 136.295C339.901 135.392 341.179 136.13 341.179 137.948V301.948C341.126 302.942 340.839 303.909 340.341 304.771C339.843 305.633 339.149 306.365 338.314 306.907L250.044 357.874C248.457 358.789 247.179 358.051 247.179 356.221V192.222C247.229 191.231 247.511 190.266 248.003 189.405C248.495 188.543 249.183 187.809 250.011 187.263Z" fill="white"/>
<path d="M294.146 139.172C293.658 139.492 293.253 139.922 292.962 140.427C292.671 140.932 292.503 141.499 292.471 142.081C292.471 143.183 293.22 143.591 294.146 143.051C294.635 142.733 295.042 142.303 295.333 141.797C295.624 141.292 295.791 140.724 295.821 140.141C295.821 139.072 295.071 138.643 294.146 139.172Z" fill="#37474F"/>
<path d="M294.146 340.231C292.22 341.492 290.617 343.188 289.468 345.183C288.32 347.178 287.657 349.416 287.534 351.714C287.534 355.935 290.499 357.654 294.146 355.538C296.072 354.277 297.674 352.581 298.823 350.586C299.971 348.591 300.634 346.354 300.758 344.055C300.78 339.835 297.805 338.116 294.146 340.231Z" fill="#37474F"/>
<path d="M278.288 156.231C277.32 156.873 276.516 157.735 275.942 158.746C275.368 159.756 275.039 160.888 274.982 162.049C274.982 164.187 276.481 165.058 278.288 163.989C279.267 163.352 280.082 162.493 280.666 161.482C281.25 160.471 281.587 159.336 281.65 158.17C281.65 156.032 280.151 155.162 278.288 156.231Z" fill="#37474F"/>
<path d="M286.52 155.503C286.52 156.936 287.622 157.476 288.911 156.715L310.951 143.965C311.634 143.539 312.206 142.957 312.622 142.268C313.037 141.579 313.284 140.801 313.342 139.998C313.342 138.576 312.24 138.037 310.951 138.797L288.911 151.547C288.23 151.972 287.658 152.552 287.243 153.239C286.827 153.927 286.579 154.702 286.52 155.503Z" fill="#37474F"/>
<path d="M236.665 194.36C237.447 194.869 238.098 195.556 238.565 196.364C239.033 197.172 239.303 198.078 239.354 199.01C239.354 200.729 238.153 201.424 236.665 200.564C235.886 200.053 235.237 199.366 234.772 198.558C234.307 197.75 234.038 196.844 233.987 195.914C233.987 194.205 235.188 193.511 236.665 194.36Z" fill="#37474F"/>
<path d="M236.665 215.055C237.447 215.565 238.098 216.251 238.565 217.059C239.033 217.867 239.303 218.774 239.354 219.706C239.354 221.414 238.153 222.108 236.665 221.26C235.886 220.748 235.237 220.061 234.772 219.253C234.307 218.446 234.038 217.54 233.987 216.609C233.987 214.89 235.188 214.196 236.665 215.055Z" fill="#37474F"/>
<path d="M235.828 194.778C236.61 195.288 237.261 195.974 237.728 196.782C238.195 197.59 238.465 198.497 238.516 199.429C238.516 201.137 237.315 201.831 235.828 200.983C235.046 200.473 234.395 199.787 233.927 198.979C233.46 198.171 233.19 197.264 233.139 196.332C233.15 194.613 234.351 193.952 235.828 194.778Z" fill="#455A64"/>
<path d="M235.828 215.463C236.611 215.974 237.263 216.662 237.73 217.472C238.197 218.282 238.467 219.191 238.516 220.124C238.516 221.833 237.315 222.527 235.828 221.667C235.044 221.16 234.391 220.474 233.924 219.665C233.456 218.857 233.187 217.949 233.139 217.017C233.15 215.309 234.351 214.615 235.828 215.463Z" fill="#455A64"/>
<path d="M359.053 143.139C359.053 141.309 357.775 140.571 356.188 141.486L345.62 147.58L267.918 192.453C267.083 192.996 266.389 193.727 265.891 194.589C265.393 195.451 265.106 196.418 265.053 197.412V361.368C265.053 363.197 266.331 363.936 267.918 363.021L345.653 318.136L356.188 312.053C357.023 311.511 357.717 310.779 358.215 309.917C358.713 309.056 359 308.088 359.053 307.094V143.139Z" fill="white"/>
<path d="M360.156 143.139C360.225 142.586 360.13 142.025 359.882 141.526C359.635 141.028 359.245 140.613 358.763 140.334C358.281 140.055 357.727 139.925 357.171 139.959C356.615 139.994 356.082 140.191 355.638 140.527L345.554 146.357L267.367 191.539C266.361 192.174 265.524 193.045 264.929 194.076C264.333 195.107 263.998 196.267 263.951 197.456V361.368C263.907 361.918 264.013 362.47 264.257 362.965C264.502 363.46 264.876 363.879 265.34 364.178C265.734 364.407 266.184 364.525 266.64 364.52C267.286 364.499 267.916 364.313 268.469 363.98L346.711 318.798L356.773 312.99C357.774 312.348 358.606 311.476 359.2 310.447C359.795 309.417 360.134 308.26 360.189 307.072L360.156 143.139ZM345.576 316.913L344.673 317.442L267.412 362.051C267.282 362.151 267.131 362.22 266.971 362.255C266.811 362.289 266.645 362.287 266.486 362.249C266.343 362.161 266.199 361.853 266.199 361.346V197.412C266.256 196.612 266.494 195.835 266.895 195.141C267.296 194.446 267.849 193.851 268.514 193.401L345.698 148.77L356.718 142.389C356.847 142.29 356.998 142.22 357.158 142.186C357.318 142.151 357.484 142.153 357.643 142.191C357.787 142.279 357.93 142.588 357.93 143.095V307.094C357.873 307.895 357.635 308.671 357.234 309.366C356.833 310.061 356.28 310.656 355.616 311.106L345.554 316.913H345.576Z" fill="#37474F"/>
<path d="M312.053 181.235C321.971 175.527 329.961 180.133 329.961 191.583C329.961 203.032 321.938 216.929 312.053 222.593C302.168 228.257 294.146 223.695 294.146 212.256C294.146 200.817 302.168 186.954 312.053 181.235Z" fill="#37474F"/>
<path d="M312.054 190.227C315.26 188.376 317.861 189.875 317.861 193.533C317.752 195.549 317.17 197.51 316.161 199.258C315.151 201.006 313.744 202.492 312.054 203.594C308.847 205.446 306.246 203.947 306.246 200.288C306.355 198.273 306.938 196.312 307.947 194.563C308.956 192.815 310.363 191.33 312.054 190.227Z" fill="#37474F"/>
<path d="M323.371 209.975C323.371 203.892 319.106 201.424 313.828 204.465L310.522 206.372C305.254 209.413 300.979 216.818 300.979 222.902V224.544C304.031 225.546 307.866 225.006 311.999 222.593C316.576 219.769 320.448 215.936 323.316 211.386L323.371 209.975Z" fill="#37474F"/>
<path opacity="0.7" d="M312.054 190.227C315.26 188.376 317.861 189.875 317.861 193.533C317.752 195.549 317.17 197.51 316.161 199.258C315.151 201.006 313.744 202.492 312.054 203.594C308.847 205.446 306.246 203.947 306.246 200.288C306.355 198.273 306.938 196.312 307.947 194.563C308.956 192.815 310.363 191.33 312.054 190.227Z" fill="white"/>
<path opacity="0.7" d="M323.371 209.975C323.371 203.892 319.106 201.424 313.828 204.465L310.522 206.372C305.254 209.413 300.979 216.818 300.979 222.902V224.544C304.031 225.546 307.866 225.006 311.999 222.593C316.576 219.769 320.448 215.936 323.316 211.386L323.371 209.975Z" fill="white"/>
<path d="M277.406 247.774L300.449 234.473C301.551 233.866 302.356 234.351 302.356 235.575V236.335C302.321 236.997 302.13 237.642 301.799 238.216C301.467 238.791 301.005 239.279 300.449 239.641L277.406 252.942C276.36 253.548 275.5 253.052 275.5 251.84V251.08C275.536 250.418 275.727 249.773 276.058 249.199C276.389 248.625 276.851 248.136 277.406 247.774Z" fill="#37474F"/>
<path opacity="0.1" d="M277.406 247.774L300.449 234.473C301.551 233.866 302.356 234.351 302.356 235.575V236.335C302.321 236.997 302.13 237.642 301.799 238.216C301.467 238.791 301.005 239.279 300.449 239.641L277.406 252.942C276.36 253.548 275.5 253.052 275.5 251.84V251.08C275.536 250.418 275.727 249.773 276.058 249.199C276.389 248.625 276.851 248.136 277.406 247.774Z" fill="black"/>
<path d="M276.459 263.83L346.171 223.585C346.689 223.276 347.119 223.519 347.119 224.136V232.269C347.1 232.599 347.004 232.92 346.839 233.206C346.675 233.493 346.446 233.738 346.171 233.922L276.459 274.167C275.93 274.475 275.5 274.222 275.5 273.616V265.483C275.519 265.151 275.616 264.829 275.782 264.542C275.949 264.255 276.18 264.011 276.459 263.83Z" fill="#37474F"/>
<path opacity="0.2" d="M276.459 263.83L346.171 223.585C346.689 223.276 347.119 223.519 347.119 224.136V232.269C347.1 232.599 347.004 232.92 346.839 233.206C346.675 233.493 346.446 233.738 346.171 233.922L276.459 274.167C275.93 274.475 275.5 274.222 275.5 273.616V265.483C275.519 265.151 275.616 264.829 275.782 264.542C275.949 264.255 276.18 264.011 276.459 263.83Z" fill="white"/>
<path d="M277.406 283.952L300.449 270.651C301.551 270.045 302.356 270.541 302.356 271.753V272.514C302.322 273.176 302.131 273.821 301.8 274.396C301.468 274.97 301.006 275.458 300.449 275.82L277.406 289.121C276.36 289.738 275.5 289.242 275.5 288.019V287.258C275.537 286.597 275.729 285.953 276.061 285.379C276.392 284.805 276.853 284.316 277.406 283.952Z" fill="#37474F"/>
<path opacity="0.1" d="M277.406 283.952L300.449 270.651C301.551 270.045 302.356 270.541 302.356 271.753V272.514C302.322 273.176 302.131 273.821 301.8 274.396C301.468 274.97 301.006 275.458 300.449 275.82L277.406 289.121C276.36 289.738 275.5 289.242 275.5 288.019V287.258C275.537 286.597 275.729 285.953 276.061 285.379C276.392 284.805 276.853 284.316 277.406 283.952Z" fill="black"/>
<path d="M276.459 300.008L346.171 259.763C346.689 259.455 347.119 259.708 347.119 260.314V268.447C347.1 268.777 347.004 269.098 346.839 269.385C346.675 269.672 346.446 269.917 346.171 270.1L276.459 310.345C275.93 310.654 275.5 310.411 275.5 309.794V301.661C275.519 301.33 275.616 301.008 275.782 300.721C275.949 300.433 276.18 300.189 276.459 300.008Z" fill="#37474F"/>
<path opacity="0.2" d="M276.459 300.008L346.171 259.763C346.689 259.455 347.119 259.708 347.119 260.314V268.447C347.1 268.777 347.004 269.098 346.839 269.385C346.675 269.672 346.446 269.917 346.171 270.1L276.459 310.345C275.93 310.654 275.5 310.411 275.5 309.794V301.661C275.519 301.33 275.616 301.008 275.782 300.721C275.949 300.433 276.18 300.189 276.459 300.008Z" fill="white"/>
<path d="M304.262 304.626L331.812 288.746C332.914 288.129 333.729 288.625 333.729 289.848V298.355C333.693 299.019 333.501 299.664 333.167 300.239C332.834 300.813 332.37 301.301 331.812 301.661L304.262 317.552C303.16 318.158 302.355 317.663 302.355 316.45V307.932C302.394 307.27 302.586 306.627 302.917 306.053C303.248 305.479 303.709 304.99 304.262 304.626Z" fill="#37474F"/>
<path opacity="0.1" d="M304.262 304.626L331.812 288.746C332.914 288.129 333.729 288.625 333.729 289.848V298.355C333.693 299.019 333.501 299.664 333.167 300.239C332.834 300.813 332.37 301.301 331.812 301.661L304.262 317.552C303.16 318.158 302.355 317.663 302.355 316.45V307.932C302.394 307.27 302.586 306.627 302.917 306.053C303.248 305.479 303.709 304.99 304.262 304.626Z" fill="black"/>
<path d="M369.501 268.723C369.501 268.723 355.968 250.055 355.175 247.785C354.546 246.11 355.175 243.619 355.373 242.462C355.571 241.305 355.748 238.726 355.946 238.054C356.277 236.798 354.657 237.051 353.742 238.197C352.827 239.343 352.519 241.636 352.045 242.01C351.571 242.385 347.967 237.128 346.083 234.704C344.199 232.28 343.019 230.803 341.862 231.707C341.036 232.357 341.653 233.767 343.019 235.839C343.818 236.955 344.553 238.113 345.223 239.31C345.433 239.762 344.309 239.795 343.703 240.732C343.229 241.459 343.703 242.638 343.042 243.2C342.635 243.51 342.356 243.959 342.258 244.461C342.161 244.962 342.251 245.483 342.513 245.922C343.739 247.849 345.321 249.524 347.174 250.859C349.202 252.259 350.017 252.755 351.218 254.661C352.42 256.568 363.197 276.04 363.924 277.208C364.652 278.376 366.051 280.757 368.178 280.823C370.305 280.889 387.717 265.902 388.609 265.152C391.474 262.761 392.389 262.419 392.874 264.568C393.041 265.332 393.167 266.105 393.249 266.882C393.59 269.615 395.453 279.379 395.453 279.379C395.453 279.379 404.269 283.644 411.509 281.583C418.749 279.522 421.195 276.448 421.195 276.448L417.57 270.541C418.551 268.106 423.08 258.232 424.545 251.322L401.844 247.652C401.381 247.553 400.632 247.366 399.64 247.112C398.395 246.782 395.232 245.691 392.841 247.785C385.039 254.584 369.523 268.723 369.523 268.723" fill="#FFA8A7"/>
<path d="M414.506 383.265L410.439 388.918C412.287 389.781 414.307 390.214 416.346 390.185C419.994 390.317 420.997 389.083 421.129 388.841C421.746 387.518 420.787 385.138 420.523 383.088L414.506 383.265Z" fill="#37474F"/>
<path d="M410.671 386.207C410.671 386.207 405.734 385.887 402.329 385.469C398.924 385.05 396.224 386.703 397.017 388.102C397.811 389.502 399.695 390.67 402.627 391.651C405.128 392.499 408.137 393.105 410.737 393.855C413.338 394.604 415.145 395.585 416.655 395.056C418.341 394.472 419.069 393.8 418.925 392.565C418.557 390.81 418.101 389.074 417.559 387.364L410.671 386.207Z" fill="#37474F"/>
<path d="M421.129 377.589C421.129 377.589 420.512 382.725 420.468 383.827C420.424 384.929 415.454 385.281 414.506 383.265L414.352 376.983L421.129 377.589Z" fill="#F28F8F"/>
<path d="M416.126 380.741L417.901 388.543C417.901 388.543 418.066 389.491 414.011 390.097C409.955 390.703 403.586 387.97 402.495 387.419C401.404 386.868 401.282 385.755 405.272 385.975C409.261 386.196 410.671 386.207 410.671 386.207L409.371 382.758L416.126 380.741Z" fill="#FFA8A7"/>
<path d="M424.48 251.256L427.29 250.474C427.29 250.474 433.164 269.064 433.814 270.861C434.464 272.657 435.202 274.552 433.935 276.767C432.425 279.401 424.48 289.991 424.48 289.991L419.433 285.054L425.163 274.563L420.094 264.315L424.48 251.256Z" fill="#F28F8F"/>
<path d="M395.617 227.111C394.959 225.874 394.624 224.491 394.645 223.09C394.667 221.689 395.043 220.316 395.739 219.1C398.538 213.909 404.775 211.386 412.203 212.344C415.641 212.796 419.696 215.65 421.911 219.915C424.358 224.643 424.589 234.164 425.217 237.768L395.617 227.111Z" fill="#37474F"/>
<path d="M395.42 229.15C395.42 229.15 393.656 232.511 393.965 232.82C394.422 233.086 394.921 233.273 395.442 233.371L395.42 229.15Z" fill="#FFA8A7"/>
<path d="M400.776 218.527C398.858 219.772 395.552 222.064 395.409 229.613C395.255 237.327 396.357 239.872 397.503 240.765C398.274 241.371 402.803 241.062 404.743 240.611C406.682 240.159 412.27 237.393 414.286 233.194C416.656 228.257 416.171 221.072 412.655 218.868C410.866 217.81 408.837 217.224 406.76 217.164C404.682 217.104 402.623 217.573 400.776 218.527Z" fill="#FFA8A7"/>
<path d="M421.129 276.404C424.524 281.693 427.741 286.322 428.447 292.294C429.901 304.846 425.141 319.194 424.116 328.484C426.043 331.127 427.154 334.276 427.312 337.543C427.312 341.389 421.129 377.589 421.129 377.589C421.129 377.589 416.633 378.956 414.352 376.983L410.109 310.389L412.313 302.279L421.129 276.404Z" fill="#37474F"/>
<path opacity="0.2" d="M421.129 276.404C424.524 281.693 427.741 286.322 428.447 292.294C429.901 304.846 425.141 319.194 424.116 328.484C426.043 331.127 427.154 334.276 427.312 337.543C427.312 341.389 421.129 377.589 421.129 377.589C421.129 377.589 416.633 378.956 414.352 376.983L410.109 310.389L412.313 302.279L421.129 276.404Z" fill="black"/>
<path d="M410.109 310.389L412.313 302.279C416.533 301.168 420.604 299.551 424.435 297.463C424.435 297.463 422.143 301.639 415.553 303.932L412.148 314.346L411.862 338.204L410.109 310.389Z" fill="#37474F"/>
<path opacity="0.3" d="M410.109 310.389L412.313 302.279C416.533 301.168 420.604 299.551 424.435 297.463C424.435 297.463 422.143 301.639 415.553 303.932L412.148 314.346L411.862 338.204L410.109 310.389Z" fill="black"/>
<path d="M421.129 276.404C422.948 279.379 427.29 284.448 426.364 289.33C425.262 295.237 422.066 299.391 412.346 302.279L403.222 335.339C403.222 335.339 407.972 339.747 409.426 344.011C410.881 348.276 416.126 380.763 416.126 380.763C416.126 380.763 414.495 383.419 409.371 382.78C409.371 382.78 391.508 342.006 390.251 339.35C388.727 336.66 388.192 333.521 388.742 330.479C389.304 326.203 395.354 279.401 395.354 279.401L421.129 276.404Z" fill="#37474F"/>
<path opacity="0.2" d="M421.129 276.404C422.948 279.379 427.29 284.448 426.364 289.33C425.262 295.237 422.066 299.391 412.346 302.279L403.222 335.339C403.222 335.339 407.972 339.747 409.426 344.011C410.881 348.276 416.126 380.763 416.126 380.763C416.126 380.763 414.495 383.419 409.371 382.78C409.371 382.78 391.508 342.006 390.251 339.35C388.727 336.66 388.192 333.521 388.742 330.479C389.304 326.203 395.354 279.401 395.354 279.401L421.129 276.404Z" fill="black"/>
<path d="M424.479 251.256L401.778 247.586C401.315 247.487 400.566 247.3 399.574 247.046C399.574 247.046 398.604 261.284 392.774 264.546C392.918 265.229 393.039 265.99 393.149 266.86C393.491 269.593 395.353 279.357 395.353 279.357C395.353 279.357 404.169 283.622 411.409 281.561C418.649 279.5 421.096 276.426 421.096 276.426L417.47 270.519C418.484 268.061 423.046 258.188 424.479 251.256Z" fill="#37474F"/>
<path opacity="0.7" d="M424.479 251.256L401.778 247.586C401.315 247.487 400.566 247.3 399.574 247.046C399.574 247.046 398.604 261.284 392.774 264.546C392.918 265.229 393.039 265.99 393.149 266.86C393.491 269.593 395.353 279.357 395.353 279.357C395.353 279.357 404.169 283.622 411.409 281.561C418.649 279.5 421.096 276.426 421.096 276.426L417.47 270.519C418.484 268.061 423.046 258.188 424.479 251.256Z" fill="white"/>
<path d="M418.496 268.172C415.481 269.982 412.322 271.541 409.052 272.833C412.02 272.774 414.926 271.971 417.504 270.497L418.496 268.172Z" fill="#37474F"/>
<path d="M400.213 218.901C400.213 218.901 399.111 226.064 401.712 230.274C401.712 230.274 402.682 227.42 405.095 227.96C407.509 228.5 407.641 231.684 405.944 233.47C405.512 233.97 404.949 234.339 404.317 234.534C403.685 234.729 403.012 234.742 402.373 234.572C402.373 234.572 401.988 239.751 401.778 244.093C401.569 248.435 400.423 257.901 405.305 261.725C410.186 265.549 422.441 266.893 428.182 258.871C431.378 254.408 427.135 246.517 425.163 237.668C423.344 229.536 422.319 217.48 413.691 215.54C405.062 213.601 400.213 218.901 400.213 218.901Z" fill="#37474F"/>
<path d="M431.874 121.033L430.056 122.135C430.209 121.488 430.294 120.827 430.309 120.162C430.309 116.47 427.72 114.983 424.524 116.856C423.551 117.443 422.684 118.188 421.956 119.06C421.956 114.101 418.474 112.084 414.176 114.564C411.911 116.041 410.027 118.031 408.675 120.373C407.323 122.714 406.542 125.342 406.396 128.041C406.396 128.295 406.396 128.537 406.396 128.78C405.289 128.64 404.168 128.898 403.233 129.507C401.549 130.604 400.148 132.083 399.143 133.824C398.137 135.564 397.557 137.517 397.448 139.524C397.447 139.991 397.495 140.456 397.591 140.913L396.621 141.475C393.988 142.996 391.85 145.96 391.85 148.087C391.85 150.214 393.988 150.721 396.621 149.189L431.885 128.857C434.519 127.336 436.657 124.372 436.657 122.245C436.657 120.118 434.508 119.501 431.874 121.033Z" fill="#EBEBEB"/>
</svg>
