<svg width="455" height="431" viewBox="0 0 455 431" fill="none" xmlns="http://www.w3.org/2000/svg">
<path d="M257.994 82.6658H216.926V131.774H257.994V82.6658Z" fill="#EBEBEB"/>
<path d="M240.568 130.671H234.871V131.981H240.568V130.671Z" fill="#E0E0E0"/>
<path d="M238.775 99.5696L231.213 100.621L228.392 107.353L233.133 113.034L240.695 111.982L243.516 105.25L238.775 99.5696Z" fill="#E0E0E0"/>
<path d="M242.315 103.923L234.753 104.974L231.923 111.698L236.664 117.387L244.235 116.336L247.056 109.603L242.315 103.923Z" fill="#FAFAFA"/>
<path d="M241.378 82.0021H235.681V83.1227H241.378V82.0021Z" fill="#E0E0E0"/>
<path d="M309.964 102.552H282.064V159.117H309.964V102.552Z" fill="#F5F5F5"/>
<path d="M345.4 163.073H311.12V217.724H345.4V163.073Z" fill="#F5F5F5"/>
<path d="M349.567 101.578H382.118V51.4011H383.274V101.578H413.404V50.2891H349.567V101.578Z" fill="#F5F5F5"/>
<path d="M309.964 163.073H282.064V217.724H309.964V163.073Z" fill="#F5F5F5"/>
<path d="M413.395 163.073H383.274V217.724H413.395V163.073Z" fill="#F5F5F5"/>
<path d="M345.4 102.552H311.12V159.117H345.4V102.552Z" fill="#F5F5F5"/>
<path d="M413.395 102.552H383.274V159.117H413.395V102.552Z" fill="#F5F5F5"/>
<path d="M309.964 218.707H282.064V267.953H309.964V218.707Z" fill="#F5F5F5"/>
<path d="M309.955 101.578V51.4011H311.12V101.578H345.4V50.2891H282.064V101.578H309.955Z" fill="#F5F5F5"/>
<path d="M345.4 218.707H311.12V267.953H345.4V218.707Z" fill="#F5F5F5"/>
<path d="M413.395 218.707H383.274V267.953H413.395V218.707Z" fill="#F5F5F5"/>
<path d="M382.118 102.552H349.567V159.117H382.118V102.552Z" fill="#F5F5F5"/>
<path d="M382.118 218.707H349.567V267.953H382.118V218.707Z" fill="#F5F5F5"/>
<path d="M382.118 163.073H349.567V217.724H382.118V163.073Z" fill="#F5F5F5"/>
<path d="M94.1486 102.552H66.248V159.117H94.1486V102.552Z" fill="#F5F5F5"/>
<path d="M129.584 163.073H95.3043V217.724H129.584V163.073Z" fill="#F5F5F5"/>
<path d="M133.752 101.578H166.303V51.4011H167.467V101.578H197.588V50.2891H133.752V101.578Z" fill="#F5F5F5"/>
<path d="M94.1486 163.073H66.248V217.724H94.1486V163.073Z" fill="#F5F5F5"/>
<path d="M197.588 163.073H167.467V217.724H197.588V163.073Z" fill="#F5F5F5"/>
<path d="M129.584 102.552H95.3043V159.117H129.584V102.552Z" fill="#F5F5F5"/>
<path d="M197.588 102.552H167.467V159.117H197.588V102.552Z" fill="#F5F5F5"/>
<path d="M94.1486 218.707H66.248V267.953H94.1486V218.707Z" fill="#F5F5F5"/>
<path d="M94.1486 101.578V51.4011H95.3043V101.578H129.584V50.2891H66.248V101.578H94.1486Z" fill="#F5F5F5"/>
<path d="M129.584 218.707H95.3043V267.953H129.584V218.707Z" fill="#F5F5F5"/>
<path d="M197.588 218.707H167.467V267.953H197.588V218.707Z" fill="#F5F5F5"/>
<path d="M166.303 102.552H133.752V159.117H166.303V102.552Z" fill="#F5F5F5"/>
<path d="M166.303 218.707H133.752V267.953H166.303V218.707Z" fill="#F5F5F5"/>
<path d="M166.303 163.073H133.752V217.724H166.303V163.073Z" fill="#F5F5F5"/>
<path d="M347.866 355.161V380.495H386.978H430.112V355.161H347.866Z" fill="#EBEBEB"/>
<path d="M344.417 348.076V355.161H432.987V348.076H386.977H344.417Z" fill="#E0E0E0"/>
<path d="M388.707 380.495H430.112V355.161H432.987V348.076H386.978V354.506L388.707 380.495Z" fill="#E0E0E0"/>
<path d="M376.057 359.247H359.377V363.057H376.057V359.247Z" fill="#E0E0E0"/>
<path d="M378.651 367.824H357.23V375.875H378.651V367.824Z" fill="#F5F5F5"/>
<path d="M368.186 320.104L368.068 310.587L403.294 313.44L404.395 322.862L368.186 320.104Z" fill="#EBEBEB"/>
<path d="M375.791 314.912L375.637 316.621L397.669 318.407L397.824 316.697L375.791 314.912Z" fill="#E0E0E0"/>
<path d="M363.991 311.061L363.973 301.536L399.171 304.752L400.063 313.268L363.991 311.061Z" fill="#E0E0E0"/>
<path d="M363.982 302.838L363.964 309.26L398.252 311.656L397.679 305.726L363.982 302.838Z" fill="white"/>
<path d="M395.65 308.2C395.235 308.236 394.818 308.236 394.403 308.2L391.036 307.95C388.188 307.717 384.266 307.372 379.925 306.958C375.584 306.544 371.671 306.139 368.832 305.829L365.474 305.432C365.061 305.406 364.652 305.337 364.255 305.226C364.667 305.189 365.081 305.189 365.492 305.226L368.859 305.476C371.708 305.708 375.639 306.062 379.971 306.476C384.302 306.889 388.233 307.286 391.073 307.605L394.43 307.993C394.844 308.02 395.252 308.09 395.65 308.2Z" fill="#F5F5F5"/>
<path d="M395.577 309.001C395.163 309.044 394.745 309.044 394.33 309.001L390.918 308.846C388.051 308.699 384.084 308.467 379.707 308.174C375.329 307.881 371.362 307.596 368.495 307.372L365.11 307.079C364.693 307.061 364.278 307.003 363.873 306.907C364.287 306.864 364.705 306.864 365.119 306.907L368.523 307.062C371.398 307.208 375.366 307.45 379.743 307.734C384.12 308.018 388.079 308.312 390.945 308.544L394.339 308.837C394.756 308.857 395.17 308.912 395.577 309.001Z" fill="#F5F5F5"/>
<path d="M368.595 328.887L368.459 319.362L403.694 322.19L404.695 330.689L368.595 328.887Z" fill="#E0E0E0"/>
<path d="M372.472 329.086C372.178 327.538 372.035 325.969 372.045 324.396C371.896 322.83 371.912 321.254 372.09 319.69C372.386 321.237 372.529 322.807 372.518 324.379C372.666 325.946 372.651 327.522 372.472 329.086Z" fill="#F5F5F5"/>
<path d="M373.801 319.802C374.069 321.349 374.185 322.916 374.146 324.483C374.256 326.046 374.213 327.616 374.019 329.172C373.741 327.626 373.625 326.058 373.673 324.491C373.558 322.928 373.601 321.358 373.801 319.802Z" fill="#F5F5F5"/>
<path d="M377.004 323.983C383.146 324.629 390.372 324.991 396.614 325.517L377.004 323.983Z" fill="white"/>
<path d="M396.614 325.517C395.652 325.571 394.688 325.548 393.73 325.448C391.91 325.362 389.498 325.215 386.786 325.026C384.075 324.836 381.627 324.621 379.861 324.414C378.896 324.357 377.94 324.213 377.004 323.983C377.967 323.955 378.932 323.995 379.889 324.103L386.823 324.578C389.553 324.767 391.983 324.957 393.757 325.138C394.719 325.188 395.675 325.315 396.614 325.517Z" fill="#F5F5F5"/>
<path d="M399.181 330.422C398.88 329.02 398.727 327.594 398.726 326.164C398.569 324.731 398.569 323.286 398.726 321.854C399.032 323.254 399.184 324.681 399.181 326.112C399.348 327.544 399.348 328.99 399.181 330.422Z" fill="#F5F5F5"/>
<path d="M401.355 330.525C400.738 327.716 400.433 324.853 400.445 321.983C400.831 323.373 401.06 324.797 401.128 326.233C401.359 327.652 401.435 329.091 401.355 330.525Z" fill="#F5F5F5"/>
<path d="M382.2 326.12C386.077 326.37 389.034 326.551 392.128 326.62L382.2 326.12Z" fill="white"/>
<path d="M392.21 326.62C388.891 326.753 385.567 326.586 382.282 326.12C383.937 325.968 385.604 325.968 387.26 326.12C388.923 326.14 390.58 326.307 392.21 326.62Z" fill="#F5F5F5"/>
<path d="M370.953 347.489L370.297 337.982L405.633 339.042L407.107 347.481L370.953 347.489Z" fill="#EBEBEB"/>
<path d="M372.354 346.291L406.743 345.826L405.787 339.912L371.708 339.309L372.354 346.291Z" fill="white"/>
<path d="M371.917 338.171L371.589 328.646L406.879 330.827L408.053 339.309L371.917 338.171Z" fill="#F5F5F5"/>
<path d="M379.384 332.804L379.266 334.516L401.333 335.875L401.45 334.163L379.384 332.804Z" fill="#E0E0E0"/>
<path d="M406.142 342.343C405.694 342.414 405.24 342.446 404.786 342.438L401.146 342.524C398.043 342.576 393.748 342.619 389.007 342.636C384.266 342.654 379.98 342.636 376.867 342.636L373.227 342.576C372.777 342.589 372.326 342.563 371.881 342.498C372.325 342.426 372.776 342.395 373.227 342.404L376.867 342.317C379.971 342.266 384.266 342.231 389.007 342.205C393.748 342.18 398.043 342.205 401.146 342.205L404.832 342.266C405.27 342.256 405.708 342.282 406.142 342.343Z" fill="#EBEBEB"/>
<path d="M406.543 344.188C406.094 344.257 405.64 344.28 405.187 344.257H401.474C398.353 344.257 394.03 344.257 389.253 344.162C384.475 344.067 380.153 344.016 377.031 343.938L373.328 343.817C372.873 343.826 372.419 343.791 371.972 343.714C372.42 343.651 372.874 343.628 373.328 343.645H377.031C380.162 343.645 384.484 343.645 389.262 343.74C394.039 343.835 398.362 343.886 401.483 343.964L405.187 344.085C405.641 344.087 406.094 344.122 406.543 344.188Z" fill="#EBEBEB"/>
<path d="M423.305 380.495C423.305 380.625 335.635 380.72 227.509 380.72C119.383 380.72 31.6953 380.625 31.6953 380.495C31.6953 380.366 119.347 380.271 227.509 380.271C335.672 380.271 423.305 380.375 423.305 380.495Z" fill="#263238"/>
<path d="M61.8799 273.47C57.066 274.202 54.9093 279.805 55.3279 284.408C55.7465 289.011 57.7485 293.511 57.2116 298.105C56.5382 303.933 51.879 308.863 51.3421 314.708C50.7051 321.604 55.8921 327.715 57.3845 334.482C58.1307 337.775 58.0306 341.249 59.3228 344.386C60.4249 347.055 62.4698 349.28 65.1092 350.681C67.7486 352.081 70.8191 352.572 73.7975 352.069C76.776 351.566 79.4781 350.1 81.4433 347.921C83.4086 345.742 84.5155 342.985 84.5753 340.119C84.6754 334.827 81.2356 329.836 81.6542 324.56C81.9636 320.655 84.3842 316.957 83.8564 313.078C83.2376 308.458 78.724 305.182 77.1315 300.778C75.539 296.373 77.0678 291.52 76.5127 286.891C75.5299 278.59 70.6432 272.797 61.8799 273.47Z" fill="#92E3A9"/>
<path d="M37.2554 313.665C36.4 321.354 40.04 330.405 44.2078 337.042C48.443 343.73 54.8181 348.966 62.4078 351.989C63.2541 352.325 64.3097 352.601 65.0286 352.058C65.2813 351.793 65.4714 351.479 65.5859 351.139C65.7005 350.799 65.737 350.439 65.6929 350.084C65.7479 341.918 63.0086 333.956 57.8852 327.388C52.7619 320.821 45.5303 316.003 37.2736 313.656" fill="#92E3A9"/>
<g opacity="0.1">
<path d="M37.2554 313.665C36.4 321.354 40.04 330.405 44.2078 337.042C48.443 343.73 54.8181 348.966 62.4078 351.989C63.2541 352.325 64.3097 352.601 65.0286 352.058C65.2813 351.793 65.4714 351.479 65.5859 351.139C65.7005 350.799 65.737 350.439 65.6929 350.084C65.7479 341.918 63.0086 333.956 57.8852 327.388C52.7619 320.821 45.5303 316.003 37.2736 313.656" fill="black"/>
</g>
<path d="M72.6362 368.074C72.5387 367.943 72.4592 367.801 72.3996 367.652C72.254 367.315 72.0538 366.902 71.8263 366.393C71.3349 365.29 70.6069 363.712 69.6787 361.764C67.8587 357.885 65.0741 352.601 61.6161 346.981C58.6485 342.193 55.4291 337.55 51.9701 333.068C50.6415 331.344 49.5404 329.974 48.776 329.034L47.866 327.931C47.6658 327.681 47.5657 327.543 47.5839 327.534C47.7122 327.639 47.8309 327.755 47.9388 327.879L48.8488 328.922C49.6678 329.836 50.8053 331.189 52.1703 332.887C55.7164 337.327 58.9829 341.961 61.9528 346.765C64.9141 351.572 67.5729 356.54 69.9153 361.643C70.8253 363.6 71.4896 365.204 71.9264 366.324L72.4269 367.617C72.512 367.763 72.5821 367.916 72.6362 368.074Z" fill="#263238"/>
<path d="M67.4036 294.744C67.4545 294.988 67.4849 295.236 67.4946 295.485C67.531 296.008 67.5856 296.715 67.6584 297.605C67.7858 299.485 67.9678 302.14 68.1862 305.363C68.623 311.949 69.2418 321.035 70.0062 331.077C70.7706 341.119 71.4895 350.196 72.0264 356.773C72.2903 360.032 72.4996 362.678 72.6543 364.531C72.718 365.393 72.7635 366.126 72.809 366.643C72.8312 366.89 72.8312 367.138 72.809 367.384C72.7488 367.144 72.7093 366.899 72.6907 366.652C72.6361 366.135 72.5542 365.428 72.4541 364.54C72.2721 362.661 72.0082 360.014 71.6806 356.782C71.0618 350.213 70.2701 341.128 69.5239 331.086C68.7777 321.043 68.2499 312.044 67.8586 305.415C67.7039 302.148 67.5674 299.493 67.4764 297.614C67.4764 296.752 67.4218 296.011 67.4036 295.494C67.3856 295.244 67.3856 294.993 67.4036 294.744Z" fill="#263238"/>
<path d="M59.9326 357.109H80.2711V371.255C80.2711 373.706 79.2433 376.056 77.4139 377.789C75.5844 379.522 73.1032 380.495 70.5159 380.495C68.0167 380.497 65.6122 379.59 63.7974 377.963C61.9826 376.335 60.8958 374.11 60.7607 371.746L59.9326 357.109Z" fill="#455A64"/>
<path d="M324.797 240.748C323.665 239.955 322.27 239.576 320.866 239.679C320.866 238.955 320.866 238.515 320.866 238.515H299.39C299.39 238.515 298.717 251.937 309.564 252.411C314.423 252.626 317.199 250.566 318.791 247.972C319.591 248.151 320.409 248.247 321.23 248.256C322.429 248.306 323.613 247.989 324.606 247.351C325.153 246.945 325.587 246.419 325.869 245.818C326.151 245.217 326.274 244.559 326.226 243.903C326.256 243.309 326.143 242.716 325.895 242.17C325.648 241.623 325.272 241.137 324.797 240.748ZM323.323 245.739C322.413 246.385 320.766 246.291 319.683 246.11C320.223 244.682 320.575 243.197 320.73 241.688C321.67 241.585 322.619 241.795 323.414 242.282C323.647 242.487 323.827 242.739 323.941 243.02C324.054 243.301 324.098 243.603 324.069 243.903C324.112 244.243 324.066 244.588 323.936 244.908C323.806 245.228 323.595 245.513 323.323 245.739Z" fill="#92E3A9"/>
<path d="M314.56 237.291C314.667 237.14 314.73 236.965 314.742 236.783C314.709 236.523 314.609 236.276 314.45 236.062C314.291 235.848 314.078 235.675 313.832 235.559C313.47 235.392 313.088 235.268 312.694 235.188C312.198 235.086 311.73 234.886 311.32 234.602C311.093 234.415 310.913 234.182 310.792 233.922C310.671 233.661 310.612 233.378 310.619 233.093C310.621 232.466 310.807 231.851 311.156 231.318C311.893 230.188 313.222 229.473 314.159 228.352C314.631 227.739 314.946 227.031 315.08 226.283C315.214 225.536 315.164 224.769 314.933 224.042C314.707 223.253 314.271 222.532 313.668 221.948C312.984 221.377 312.21 220.912 311.375 220.569C310.441 220.205 309.61 219.641 308.945 218.922C308.627 218.519 308.41 218.054 308.308 217.56C308.186 217.041 308.26 216.498 308.517 216.026C308.66 215.782 308.863 215.575 309.109 215.422L309.354 215.81C308.575 216.27 307.96 216.943 307.591 217.74C307.222 218.537 307.117 219.421 307.289 220.275C307.437 221.087 307.858 221.831 308.49 222.396C309.2 222.911 309.829 223.521 310.355 224.206C310.578 224.591 310.685 225.026 310.665 225.465C310.651 225.899 310.53 226.324 310.31 226.706C309.909 227.382 309.34 227.956 308.654 228.378C307.334 229.171 305.978 229.568 304.968 230.292C304.512 230.6 304.131 230.999 303.853 231.46C303.575 231.922 303.406 232.435 303.358 232.964C303.272 233.771 303.42 234.584 303.785 235.317C304.119 235.935 304.595 236.474 305.178 236.895L305.041 236.835C304.917 236.768 304.798 236.693 304.686 236.61C304.241 236.284 303.878 235.869 303.621 235.395C303.21 234.638 303.031 233.787 303.103 232.938C303.142 232.404 303.294 231.882 303.549 231.404C303.845 230.871 304.261 230.406 304.768 230.042C305.815 229.266 307.207 228.835 308.408 228.077C309.032 227.678 309.549 227.146 309.919 226.525C310.109 226.21 310.208 225.853 310.208 225.491C310.208 225.128 310.109 224.771 309.919 224.456C309.397 223.806 308.785 223.227 308.099 222.732C307.393 222.103 306.929 221.269 306.779 220.362C306.59 219.417 306.709 218.44 307.118 217.559C307.527 216.679 308.209 215.937 309.072 215.431L309.309 215.819C309.13 215.932 308.981 216.083 308.872 216.259C308.705 216.66 308.655 217.095 308.725 217.521C308.795 217.947 308.984 218.347 309.273 218.681C309.896 219.34 310.667 219.858 311.529 220.198C312.408 220.562 313.219 221.056 313.932 221.663C314.587 222.301 315.057 223.088 315.297 223.948C315.533 224.735 315.573 225.563 315.415 226.367C315.257 227.172 314.905 227.931 314.387 228.585C313.358 229.766 312.048 230.456 311.366 231.481C310.683 232.507 310.619 233.8 311.411 234.412C312.203 235.024 313.231 235.007 313.85 235.404C314.115 235.538 314.339 235.737 314.498 235.979C314.658 236.221 314.748 236.498 314.76 236.783C314.751 236.929 314.697 237.07 314.605 237.188C314.605 237.266 314.569 237.291 314.56 237.291Z" fill="#263238"/>
<path d="M180.69 130.869H75.9759C74.3526 130.869 73.0366 132.115 73.0366 133.653V157.453C73.0366 158.991 74.3526 160.237 75.9759 160.237H180.69C182.313 160.237 183.629 158.991 183.629 157.453V133.653C183.629 132.115 182.313 130.869 180.69 130.869Z" fill="#455A64"/>
<path d="M96.3508 150.453C95.5167 151.437 94.3936 152.163 93.1236 152.542C91.8535 152.921 90.4935 152.934 89.2153 152.581C87.9372 152.227 86.7983 151.523 85.9426 150.557C85.087 149.59 84.5529 148.406 84.4079 147.152C84.263 145.898 84.5137 144.632 85.1283 143.513C85.7429 142.394 86.6939 141.473 87.861 140.866C89.0281 140.259 90.359 139.993 91.6855 140.103C93.012 140.212 94.2744 140.691 95.3134 141.48C96.004 142.004 96.5788 142.653 97.0047 143.387C97.4307 144.122 97.6996 144.93 97.7959 145.763C97.8923 146.596 97.8142 147.44 97.5663 148.245C97.3183 149.049 96.9053 149.8 96.3508 150.453Z" fill="white"/>
<path d="M94.8857 144.29C93.7876 145.615 92.5696 146.847 91.2457 147.971C90.9363 148.247 90.636 148.514 90.3357 148.781L90.1719 148.936L90.0081 148.781C88.9985 147.907 88.0839 146.94 87.2781 145.893C88.3829 146.657 89.4042 147.523 90.3266 148.479H89.999L90.909 147.617C92.129 146.4 93.4597 145.287 94.8857 144.29Z" fill="#92E3A9"/>
<path d="M172.845 143.402C172.845 143.523 158.786 143.626 141.441 143.626C124.097 143.626 110.046 143.523 110.046 143.402C110.046 143.282 124.097 143.178 141.441 143.178C158.786 143.178 172.845 143.273 172.845 143.402Z" fill="white"/>
<path d="M147.083 149.212C147.083 149.333 138.957 149.436 128.938 149.436C118.919 149.436 110.738 149.333 110.738 149.212C110.738 149.092 118.864 148.988 128.938 148.988C139.012 148.988 147.083 149.126 147.083 149.212Z" fill="white"/>
<path d="M180.69 164.461H75.9759C74.3526 164.461 73.0366 165.708 73.0366 167.245V191.045C73.0366 192.583 74.3526 193.829 75.9759 193.829H180.69C182.313 193.829 183.629 192.583 183.629 191.045V167.245C183.629 165.708 182.313 164.461 180.69 164.461Z" fill="#455A64"/>
<path d="M96.3508 184.046C95.5167 185.029 94.3936 185.755 93.1236 186.134C91.8535 186.513 90.4935 186.526 89.2153 186.173C87.9372 185.82 86.7983 185.115 85.9426 184.149C85.087 183.183 84.5529 181.998 84.4079 180.744C84.263 179.49 84.5137 178.224 85.1283 177.105C85.7429 175.986 86.6939 175.065 87.861 174.458C89.0281 173.851 90.359 173.585 91.6855 173.695C93.012 173.804 94.2744 174.283 95.3134 175.072C96.7061 176.133 97.5977 177.673 97.7922 179.356C97.9867 181.038 97.4683 182.725 96.3508 184.046Z" fill="white"/>
<path d="M94.8857 177.891C93.7887 179.214 92.5707 180.443 91.2457 181.563L90.3357 182.425L90.1719 182.572L90.0081 182.416C88.9985 181.543 88.0839 180.575 87.2781 179.529C88.381 180.294 89.402 181.16 90.3266 182.115H89.999L90.909 181.253C92.1245 180.021 93.4555 178.895 94.8857 177.891Z" fill="#92E3A9"/>
<path d="M172.845 176.994C172.845 177.124 158.786 177.219 141.441 177.219C124.097 177.219 110.046 177.124 110.046 176.994C110.046 176.865 124.097 176.77 141.441 176.77C158.786 176.77 172.845 176.874 172.845 176.994Z" fill="white"/>
<path d="M147.083 182.804C147.083 182.934 138.957 183.028 128.938 183.028C118.919 183.028 110.738 182.934 110.738 182.804C110.738 182.675 118.864 182.58 128.938 182.58C139.012 182.58 147.083 182.684 147.083 182.804Z" fill="white"/>
<path d="M180.69 198.062H75.9759C74.3526 198.062 73.0366 199.308 73.0366 200.846V224.646C73.0366 226.184 74.3526 227.43 75.9759 227.43H180.69C182.313 227.43 183.629 226.184 183.629 224.646V200.846C183.629 199.308 182.313 198.062 180.69 198.062Z" fill="#455A64"/>
<path d="M96.3508 217.646C95.5167 218.629 94.3936 219.356 93.1236 219.735C91.8535 220.114 90.4935 220.127 89.2153 219.774C87.9372 219.42 86.7983 218.716 85.9426 217.75C85.087 216.783 84.5529 215.598 84.4079 214.345C84.263 213.091 84.5137 211.825 85.1283 210.706C85.7429 209.587 86.6939 208.666 87.861 208.059C89.0281 207.452 90.359 207.186 91.6855 207.296C93.012 207.405 94.2744 207.884 95.3134 208.673C96.004 209.197 96.5788 209.845 97.0047 210.58C97.4307 211.315 97.6996 212.123 97.7959 212.956C97.8923 213.789 97.8142 214.633 97.5663 215.437C97.3183 216.242 96.9053 216.993 96.3508 217.646Z" fill="white"/>
<path d="M94.8857 211.483C93.793 212.812 92.5747 214.044 91.2457 215.164L90.3357 215.974L90.1719 216.129L90.0081 215.974C88.9985 215.1 88.0839 214.133 87.2781 213.086C88.3829 213.85 89.4042 214.716 90.3266 215.672H89.999L90.909 214.81C92.129 213.593 93.4597 212.48 94.8857 211.483Z" fill="#92E3A9"/>
<path d="M172.845 210.595C172.845 210.716 158.786 210.819 141.441 210.819C124.097 210.819 110.046 210.716 110.046 210.595C110.046 210.475 124.097 210.371 141.441 210.371C158.786 210.371 172.845 210.475 172.845 210.595Z" fill="white"/>
<path d="M147.083 216.405C147.083 216.526 138.957 216.629 128.938 216.629C118.919 216.629 110.738 216.526 110.738 216.405C110.738 216.284 118.864 216.181 128.938 216.181C139.012 216.181 147.083 216.284 147.083 216.405Z" fill="white"/>
<path d="M246.31 309.268L244.572 380.495H241.259L241.469 309.449L246.31 309.268Z" fill="#263238"/>
<path d="M258.294 308.475L274.42 380.495H278.114L264.692 308.475H258.294Z" fill="#263238"/>
<path d="M228.064 309.268L210.219 380.495H206.524L222.713 308.975L228.064 309.268Z" fill="#263238"/>
<path d="M279.233 230.964C279.233 230.964 299.672 229.861 297.634 252.264C295.595 274.668 294.421 297.39 286.823 305.148C279.224 312.906 202.712 313.173 196.287 306.812C189.862 300.45 208.554 300.726 212.057 300.726C215.561 300.726 237.173 302.657 244.18 285.21C251.187 267.763 249.44 229.861 279.233 230.964Z" fill="#263238"/>
<path d="M280.544 231.016C280.544 231.016 296.169 234.05 294.713 249.54C293.257 265.031 289.162 292.149 281.563 299.062C273.965 305.976 244.253 307.484 228.119 306.536C209.427 305.424 197.634 302.053 197.634 302.053C197.634 302.053 194.221 304.131 195.25 305.501C196.278 306.872 205.396 312.225 249.577 311.329C293.757 310.432 290.69 304.26 292.519 297.537C294.349 290.813 298.207 254.833 297.67 246.929C297.133 239.024 292.929 232.361 280.544 231.016Z" fill="#455A64"/>
<path d="M236.645 165.271C239.104 164.468 241.774 164.455 244.242 165.235C246.709 166.014 248.837 167.541 250.295 169.581C252.27 172.478 252.734 176.115 254.745 178.986C256.174 181.011 258.285 182.503 260.033 184.296C261.78 186.089 263.208 188.459 262.763 190.864C262.344 193.114 260.333 195.114 260.733 197.372C261.115 199.484 263.463 200.863 263.964 202.967C264.501 205.44 261.989 207.751 259.35 208.139C256.711 208.526 254.09 207.561 251.606 206.63C249.122 205.699 246.483 204.768 243.853 205.216C240.804 205.742 238.465 208.009 235.799 209.526C232.988 211.048 229.77 211.761 226.538 211.579C223.306 211.397 220.2 210.327 217.599 208.501C215.597 207.044 213.841 204.785 214.332 202.467C214.787 200.277 217.062 198.76 217.663 196.614C218.628 193.424 215.843 190.166 216.252 186.864C216.817 182.434 222.622 180.408 224.697 176.408C225.707 174.486 225.798 172.245 226.681 170.271C227.564 168.297 229.893 166.538 231.968 167.383" fill="#263238"/>
<path d="M234.68 205.596C234.98 204.018 234.443 197.381 234.443 197.381C234.443 197.381 228.237 196.639 227.964 190.631C227.691 184.623 228.328 170.805 228.328 170.805L239.767 165.633L249.777 176.408L249.968 205.535L234.68 205.596Z" fill="#FFBE9D"/>
<path d="M229.138 181.399C229.14 181.546 229.187 181.69 229.275 181.812C229.362 181.934 229.485 182.028 229.629 182.084C229.773 182.14 229.931 182.155 230.083 182.126C230.235 182.098 230.376 182.027 230.486 181.924C230.597 181.82 230.673 181.688 230.704 181.544C230.736 181.4 230.723 181.25 230.665 181.113C230.608 180.977 230.509 180.859 230.382 180.775C230.254 180.691 230.103 180.644 229.948 180.641C229.735 180.641 229.53 180.72 229.378 180.862C229.227 181.004 229.14 181.197 229.138 181.399Z" fill="#263238"/>
<path d="M228.628 180.055C228.728 180.158 229.329 179.684 230.175 179.649C231.022 179.615 231.659 180.029 231.75 179.917C231.841 179.805 231.695 179.684 231.413 179.494C231.044 179.251 230.6 179.13 230.151 179.15C229.701 179.17 229.272 179.331 228.929 179.606C228.665 179.813 228.583 180.011 228.628 180.055Z" fill="#263238"/>
<path d="M238.42 181.399C238.408 181.504 238.42 181.61 238.454 181.71C238.488 181.81 238.544 181.902 238.618 181.981C238.692 182.059 238.783 182.122 238.885 182.164C238.986 182.207 239.096 182.23 239.207 182.23C239.318 182.23 239.428 182.207 239.53 182.164C239.631 182.122 239.722 182.059 239.796 181.981C239.87 181.902 239.927 181.81 239.961 181.71C239.995 181.61 240.006 181.504 239.994 181.399C240.006 181.295 239.995 181.189 239.961 181.089C239.927 180.988 239.87 180.896 239.796 180.818C239.722 180.74 239.631 180.677 239.53 180.634C239.428 180.591 239.318 180.569 239.207 180.569C239.096 180.569 238.986 180.591 238.885 180.634C238.783 180.677 238.692 180.74 238.618 180.818C238.544 180.896 238.488 180.988 238.454 181.089C238.42 181.189 238.408 181.295 238.42 181.399Z" fill="#263238"/>
<path d="M238.056 180.21C238.156 180.313 238.757 179.839 239.603 179.805C240.449 179.77 241.086 180.184 241.177 180.072C241.268 179.96 241.123 179.839 240.841 179.649C240.473 179.407 240.032 179.286 239.585 179.305C239.135 179.325 238.704 179.482 238.356 179.753C238.101 179.968 238.01 180.158 238.056 180.21Z" fill="#263238"/>
<path d="M234.862 187.14C234.413 187.014 233.947 186.947 233.479 186.942C233.26 186.942 233.051 186.89 233.014 186.744C232.994 186.515 233.041 186.285 233.151 186.08C233.342 185.545 233.551 184.977 233.761 184.356C234.331 182.907 234.79 181.42 235.135 179.908C234.446 181.301 233.871 182.742 233.415 184.218C233.215 184.821 233.014 185.39 232.823 185.942C232.697 186.213 232.665 186.515 232.732 186.804C232.761 186.88 232.81 186.948 232.873 187.002C232.937 187.057 233.013 187.095 233.096 187.114C233.217 187.13 233.34 187.13 233.46 187.114C233.924 187.187 234.396 187.195 234.862 187.14Z" fill="#263238"/>
<path d="M234.443 197.398C237.381 197.308 240.226 196.409 242.633 194.812C242.633 194.812 240.704 199.191 234.516 198.838L234.443 197.398Z" fill="#EB996E"/>
<path d="M235.171 189.261C235.223 189.007 235.34 188.769 235.511 188.568C235.683 188.366 235.903 188.208 236.154 188.106C236.327 188.031 236.515 187.992 236.705 187.992C236.895 187.992 237.082 188.031 237.255 188.106C237.421 188.184 237.558 188.308 237.648 188.462C237.737 188.616 237.775 188.793 237.756 188.968C237.704 189.169 237.59 189.351 237.427 189.489C237.265 189.627 237.062 189.716 236.846 189.743C236.422 189.797 235.992 189.767 235.581 189.657C235.465 189.64 235.354 189.602 235.253 189.545C235.204 189.516 235.164 189.473 235.14 189.422C235.116 189.372 235.108 189.316 235.117 189.261" fill="#EB996E"/>
<path d="M237.283 187.114C237.337 187.114 237.437 187.33 237.41 187.718C237.359 188.237 237.11 188.721 236.709 189.08C236.312 189.436 235.791 189.641 235.244 189.657C234.826 189.657 234.589 189.554 234.607 189.502C234.625 189.45 235.599 189.45 236.382 188.752C237.164 188.054 237.146 187.106 237.283 187.114Z" fill="#263238"/>
<path d="M227.809 170.124C228.037 171.865 228.927 173.466 230.313 174.629C231.698 175.793 233.484 176.437 235.335 176.443L233.615 172.857C235.144 174.538 236.727 176.305 238.829 177.27C240.932 178.236 243.671 178.391 245.454 176.943C246.037 178.417 246.028 180.046 246.564 181.529C247.101 183.011 248.384 189.149 249.986 188.907C251.588 188.666 252.561 182.52 252.943 181.149C253.403 179.201 253.373 177.177 252.856 175.241C252.339 173.305 251.35 171.511 249.968 170.004C248.339 168.204 246.291 166.788 243.985 165.866C241.679 164.945 239.179 164.543 236.682 164.694C234.455 164.787 232.308 165.504 230.512 166.754C228.978 167.913 227.909 169.534 227.482 171.348" fill="#263238"/>
<path d="M219.31 197.191C219.16 197.182 219.013 197.15 218.873 197.096C218.469 196.98 218.078 196.824 217.708 196.631C216.318 195.928 215.169 194.863 214.396 193.562C213.797 192.601 213.434 191.525 213.333 190.414C213.233 189.302 213.397 188.184 213.814 187.14C214.307 185.907 215.102 184.802 216.134 183.916C217.241 182.963 218.599 182.311 220.065 182.029C220.746 181.937 221.381 181.652 221.885 181.21C222.31 180.722 222.556 180.117 222.586 179.486C222.695 178.219 222.167 176.986 222.022 175.745C221.863 174.55 222.122 173.339 222.759 172.297C223.319 171.394 224.135 170.659 225.116 170.176C226.026 169.736 226.836 169.452 227.536 169.159C228.15 168.933 228.736 168.644 229.284 168.297C229.732 167.982 230.133 167.611 230.476 167.194C230.425 167.326 230.355 167.451 230.266 167.564C230.018 167.899 229.71 168.191 229.356 168.426C228.814 168.807 228.228 169.128 227.609 169.383C226.909 169.693 226.08 170.004 225.243 170.443C224.331 170.914 223.577 171.619 223.068 172.478C222.479 173.454 222.249 174.588 222.413 175.701C222.559 176.882 223.114 178.115 223.014 179.529C222.983 180.263 222.695 180.967 222.195 181.529C221.625 182.039 220.904 182.373 220.129 182.485C218.79 182.753 217.542 183.334 216.501 184.176C215.46 185.017 214.658 186.093 214.169 187.304C213.766 188.294 213.599 189.355 213.679 190.413C213.76 191.471 214.085 192.499 214.633 193.424C215.359 194.696 216.434 195.759 217.745 196.502C218.709 197.001 219.31 197.148 219.31 197.191Z" fill="#263238"/>
<path d="M260.506 205.087C260.506 205.087 261.043 204.742 261.98 204.104C263.337 203.253 264.415 202.059 265.092 200.656C265.506 199.683 265.57 198.608 265.274 197.596C265.11 197.049 264.796 196.552 264.364 196.157C263.872 195.749 263.328 195.401 262.744 195.122C262.072 194.78 261.506 194.279 261.101 193.667C260.695 193.055 260.465 192.353 260.433 191.631C260.369 190.071 261.388 188.778 261.752 187.39C262.063 185.995 261.82 184.541 261.07 183.304C260.377 182.127 259.45 181.088 258.34 180.244C256.256 178.589 254.081 177.374 252.58 175.934C251.342 174.863 250.42 173.506 249.904 171.995C249.78 171.582 249.707 171.157 249.686 170.728C249.662 170.579 249.662 170.428 249.686 170.279C249.761 170.842 249.883 171.398 250.05 171.943C250.619 173.392 251.557 174.686 252.78 175.71C254.272 177.063 256.42 178.227 258.586 179.908C259.735 180.78 260.696 181.854 261.416 183.072C262.231 184.402 262.493 185.972 262.153 187.476C261.734 188.985 260.76 190.226 260.833 191.597C260.856 192.267 261.068 192.918 261.447 193.484C261.827 194.049 262.359 194.508 262.99 194.812C263.603 195.111 264.175 195.482 264.692 195.915C265.161 196.366 265.5 196.925 265.674 197.536C265.973 198.623 265.89 199.773 265.438 200.812C265.055 201.649 264.494 202.403 263.791 203.027C263.262 203.497 262.689 203.921 262.08 204.294C261.589 204.596 261.17 204.811 260.924 204.941C260.792 205.006 260.651 205.056 260.506 205.087Z" fill="#263238"/>
<path d="M227.6 177.313C228.48 176.621 229.099 175.677 229.366 174.624C229.625 173.575 229.762 172.503 229.775 171.426C229.775 171.116 229.775 170.71 229.429 170.633C229.083 170.555 228.865 170.848 228.719 171.116C227.607 173.111 227.214 175.397 227.6 177.624L227.8 177.443" fill="#263238"/>
<path d="M211.721 376.229L211.548 368.471L226.872 368.074L227.245 379.409L226.335 379.496C222.113 379.823 204.841 380.892 201.993 380.151C198.78 379.332 211.721 376.229 211.721 376.229Z" fill="#92E3A9"/>
<g opacity="0.5">
<path d="M221.685 379.452C221.877 378.22 222.545 377.098 223.56 376.306C224.547 375.512 225.815 375.102 227.109 375.16L227.227 379.211L221.685 379.452Z" fill="white"/>
</g>
<g opacity="0.4">
<path d="M205.405 377.961C205.405 377.961 200.855 379.323 201.465 380.021C202.075 380.72 219.547 380.263 227.245 379.418V379.099L206.834 379.797C206.834 379.797 206.297 377.97 205.405 377.961Z" fill="white"/>
</g>
<path d="M227.5 379.082H227.236L226.481 379.142L223.696 379.332C221.348 379.47 218.1 379.625 214.505 379.728C210.911 379.832 207.662 379.84 205.305 379.823C207.662 379.823 210.911 379.763 214.505 379.668C218.1 379.573 221.339 379.435 223.696 379.332L226.481 379.194H227.236L227.5 379.082Z" fill="#263238"/>
<path d="M206.825 380.021C206.685 379.587 206.496 379.168 206.261 378.771C205.98 378.407 205.653 378.077 205.287 377.789C205.753 377.968 206.15 378.278 206.425 378.677C206.7 379.076 206.839 379.545 206.825 380.021Z" fill="#263238"/>
<path d="M211.284 377.728C211.238 377.728 211.011 377.513 210.783 377.185C210.556 376.858 210.392 376.573 210.437 376.539C210.483 376.504 210.701 376.763 210.938 377.091C211.099 377.278 211.217 377.495 211.284 377.728Z" fill="#263238"/>
<path d="M212.503 377.073C212.503 377.116 212.221 376.97 211.957 376.746C211.693 376.522 211.493 376.323 211.52 376.289C211.548 376.254 211.802 376.392 212.075 376.616C212.348 376.841 212.54 377.039 212.503 377.073Z" fill="#263238"/>
<path d="M213.249 375.685C212.996 375.784 212.722 375.826 212.449 375.806C212.18 375.836 211.908 375.816 211.648 375.746C212.169 375.605 212.718 375.584 213.249 375.685Z" fill="#263238"/>
<path d="M213.486 374.711C213.222 374.892 212.902 374.986 212.576 374.979C212.27 375.033 211.954 375.003 211.666 374.892C211.966 374.837 212.271 374.808 212.576 374.806C212.876 374.753 213.181 374.721 213.486 374.711Z" fill="#263238"/>
<path d="M210.72 376.479C210.394 376.53 210.062 376.53 209.737 376.479C209.38 376.445 209.026 376.382 208.681 376.289C208.474 376.237 208.272 376.165 208.081 376.073C207.962 376.011 207.872 375.91 207.826 375.789C207.808 375.72 207.811 375.648 207.835 375.58C207.859 375.513 207.904 375.454 207.962 375.41C208.331 375.225 208.756 375.167 209.165 375.244C209.574 375.321 209.943 375.528 210.21 375.832C210.366 376.012 210.481 376.22 210.547 376.444C210.567 376.529 210.567 376.618 210.547 376.703C210.437 376.418 210.277 376.152 210.073 375.918C209.846 375.676 209.549 375.502 209.218 375.418C208.828 375.306 208.406 375.343 208.044 375.522C207.899 375.642 207.962 375.815 208.135 375.91C208.315 375.996 208.504 376.066 208.699 376.116C209.032 376.216 209.373 376.291 209.719 376.341C210.346 376.461 210.72 376.444 210.72 376.479Z" fill="#263238"/>
<path d="M210.474 376.53C210.34 376.34 210.291 376.108 210.337 375.884C210.362 375.639 210.446 375.403 210.583 375.194C210.663 375.054 210.779 374.935 210.921 374.849C211.063 374.763 211.225 374.713 211.393 374.703C211.494 374.72 211.584 374.773 211.643 374.852C211.703 374.931 211.727 375.029 211.711 375.125C211.688 375.274 211.635 375.417 211.557 375.548C211.431 375.754 211.278 375.945 211.102 376.116C210.958 376.29 210.77 376.426 210.556 376.513C210.556 376.513 210.747 376.341 211.011 376.039C211.158 375.86 211.289 375.67 211.402 375.47C211.529 375.263 211.611 374.91 211.402 374.875C211.193 374.841 210.911 375.099 210.765 375.289C210.634 375.474 210.545 375.682 210.501 375.901C210.466 376.109 210.457 376.32 210.474 376.53Z" fill="#263238"/>
<path d="M227.027 375.117C227.027 375.117 226.59 375.117 225.898 375.185C224.996 375.3 224.147 375.656 223.45 376.212C222.754 376.768 222.239 377.5 221.967 378.323C221.758 378.952 221.74 379.366 221.712 379.366C221.685 379.366 221.712 379.263 221.712 379.073C221.729 378.807 221.778 378.544 221.858 378.289C222.107 377.428 222.624 376.659 223.341 376.082C224.065 375.511 224.952 375.157 225.889 375.065C226.17 375.034 226.454 375.034 226.736 375.065C226.835 375.068 226.933 375.085 227.027 375.117Z" fill="#263238"/>
<path d="M225.262 369.117C225.401 370.106 225.474 371.102 225.48 372.1C225.545 373.093 225.545 374.089 225.48 375.082C225.346 374.096 225.273 373.103 225.262 372.108C225.202 371.112 225.202 370.113 225.262 369.117Z" fill="#263238"/>
<path d="M219.72 378.082C218.993 378.27 218.243 378.36 217.49 378.349C216.739 378.406 215.984 378.371 215.242 378.246C215.242 378.194 216.252 378.246 217.481 378.177C218.709 378.108 219.71 378.03 219.72 378.082Z" fill="#263238"/>
<path d="M222.723 378.004C222.723 378.004 222.65 378.203 222.55 378.427C222.45 378.651 222.404 378.84 222.349 378.84C222.295 378.84 222.267 378.608 222.349 378.358C222.431 378.108 222.687 377.97 222.723 378.004Z" fill="#263238"/>
<path d="M223.86 376.642C223.86 376.642 223.805 376.823 223.651 376.978C223.496 377.134 223.341 377.237 223.305 377.203C223.268 377.168 223.359 377.022 223.514 376.858C223.669 376.694 223.778 376.608 223.86 376.642Z" fill="#263238"/>
<path d="M225.416 375.987C225.416 376.039 225.207 376.039 224.979 376.116C224.752 376.194 224.597 376.323 224.561 376.289C224.524 376.254 224.643 376.048 224.916 375.953C225.189 375.858 225.434 375.944 225.416 375.987Z" fill="#263238"/>
<path d="M226.59 375.668C226.59 375.711 226.526 375.789 226.399 375.841C226.271 375.892 226.153 375.892 226.135 375.841C226.117 375.789 226.199 375.72 226.326 375.668C226.453 375.617 226.59 375.625 226.59 375.668Z" fill="#263238"/>
<path d="M174.72 334.758L178.269 327.775L192.128 333.999L187.041 344.266L186.131 343.929C182.209 342.421 166.293 335.965 164.109 334.085C161.689 331.991 174.72 334.758 174.72 334.758Z" fill="#92E3A9"/>
<g opacity="0.5">
<path d="M182.064 341.904C182.824 340.891 183.951 340.179 185.231 339.904C186.491 339.624 187.815 339.803 188.943 340.404L187.123 344.076L182.064 341.904Z" fill="white"/>
</g>
<g opacity="0.4">
<path d="M168.25 333.594C168.25 333.594 163.563 332.87 163.754 333.741C163.946 334.611 179.761 341.705 187.032 344.257L187.16 343.955L168.632 335.827C168.632 335.827 169.042 333.991 168.25 333.594Z" fill="white"/>
</g>
<path d="M187.378 344.05C187.292 344.036 187.21 344.01 187.132 343.972L186.423 343.705L183.82 342.679C181.654 341.817 178.688 340.542 175.43 339.085C172.172 337.628 169.269 336.258 167.185 335.232L164.71 334.008L164.046 333.663L163.818 333.525L164.064 333.628L164.746 333.939L167.24 335.12C169.351 336.111 172.263 337.473 175.512 338.93C178.76 340.387 181.718 341.654 183.875 342.559L186.413 343.636L187.105 343.938L187.378 344.05Z" fill="#263238"/>
<path d="M168.532 336.042C168.619 335.599 168.652 335.148 168.632 334.697C168.547 334.252 168.412 333.815 168.232 333.396C168.581 333.744 168.788 334.2 168.814 334.68C168.903 335.152 168.803 335.638 168.532 336.042Z" fill="#263238"/>
<path d="M173.601 335.913C173.546 335.913 173.464 335.602 173.419 335.215C173.373 334.827 173.364 334.499 173.419 334.49C173.531 334.709 173.593 334.946 173.601 335.189C173.656 335.585 173.656 335.904 173.601 335.913Z" fill="#263238"/>
<path d="M175.002 335.852C174.957 335.852 174.811 335.637 174.665 335.327C174.52 335.016 174.456 334.749 174.511 334.732C174.565 334.715 174.702 334.947 174.838 335.258C174.975 335.568 175.048 335.835 175.002 335.852Z" fill="#263238"/>
<path d="M176.331 334.93C176.061 334.907 175.8 334.828 175.566 334.697C175.307 334.616 175.071 334.48 174.875 334.301C175.145 334.324 175.406 334.403 175.639 334.534C176.049 334.715 176.358 334.887 176.331 334.93Z" fill="#263238"/>
<path d="M177.013 334.172C176.7 334.182 176.388 334.132 176.096 334.026C175.803 333.919 175.537 333.757 175.312 333.551C175.878 333.76 176.445 333.967 177.013 334.172Z" fill="#263238"/>
<path d="M173.701 334.559C173.374 334.477 173.066 334.339 172.791 334.154C172.486 333.972 172.2 333.764 171.935 333.534C171.776 333.393 171.63 333.24 171.499 333.077C171.423 332.97 171.394 332.841 171.417 332.715C171.431 332.645 171.467 332.581 171.521 332.532C171.575 332.483 171.643 332.45 171.717 332.439C171.988 332.434 172.257 332.487 172.504 332.593C172.75 332.7 172.969 332.857 173.144 333.054C173.318 333.25 173.444 333.481 173.512 333.73C173.58 333.978 173.588 334.238 173.537 334.49C173.537 334.646 173.455 334.732 173.446 334.723C173.484 334.436 173.468 334.144 173.4 333.861C173.308 333.55 173.125 333.269 172.873 333.051C172.729 332.917 172.558 332.812 172.37 332.742C172.183 332.673 171.982 332.64 171.781 332.646C171.59 332.646 171.562 332.861 171.681 333.016C171.796 333.172 171.927 333.316 172.072 333.447C172.324 333.679 172.595 333.893 172.882 334.085C173.373 334.378 173.719 334.534 173.701 334.559Z" fill="#263238"/>
<path d="M173.455 334.499C173.43 334.272 173.495 334.045 173.637 333.861C173.78 333.655 173.969 333.481 174.192 333.353C174.33 333.261 174.49 333.205 174.657 333.188C174.824 333.172 174.993 333.196 175.148 333.258C175.229 333.318 175.283 333.405 175.298 333.501C175.313 333.597 175.289 333.695 175.23 333.775C175.141 333.897 175.026 334 174.893 334.077C174.681 334.213 174.452 334.323 174.21 334.404C173.998 334.49 173.768 334.528 173.537 334.516C173.537 334.516 173.783 334.447 174.165 334.284C174.386 334.193 174.596 334.08 174.793 333.947C175.002 333.827 175.248 333.542 175.039 333.404C174.912 333.366 174.777 333.355 174.645 333.371C174.513 333.388 174.386 333.431 174.274 333.499C174.072 333.611 173.893 333.757 173.746 333.93C173.626 334.109 173.529 334.299 173.455 334.499Z" fill="#263238"/>
<path d="M188.889 340.335C188.889 340.335 188.516 340.119 187.851 339.912C186.993 339.632 186.068 339.587 185.183 339.784C184.299 339.981 183.492 340.411 182.855 341.024C182.355 341.49 182.146 341.886 182.118 341.843C182.148 341.748 182.194 341.657 182.255 341.576C182.399 341.348 182.566 341.134 182.755 340.938C183.391 340.279 184.221 339.816 185.139 339.612C186.056 339.407 187.018 339.47 187.897 339.792C188.158 339.887 188.409 340.008 188.643 340.154C188.816 340.257 188.898 340.326 188.889 340.335Z" fill="#263238"/>
<path d="M190.19 334.232C189.838 335.17 189.428 336.089 188.962 336.982C188.552 337.897 188.087 338.789 187.569 339.654C187.921 338.715 188.332 337.797 188.798 336.904C189.202 335.987 189.667 335.094 190.19 334.232Z" fill="#263238"/>
<path d="M180.953 339.844C180.22 339.694 179.51 339.453 178.842 339.128C178.146 338.853 177.489 338.497 176.886 338.068C176.886 338.025 177.796 338.482 178.915 338.973C180.034 339.464 180.972 339.8 180.953 339.844Z" fill="#263238"/>
<path d="M183.674 341.059C183.674 341.111 183.511 341.205 183.319 341.361C183.128 341.516 182.992 341.671 182.946 341.645C182.901 341.619 182.946 341.404 183.201 341.231C183.456 341.059 183.665 341.016 183.674 341.059Z" fill="#263238"/>
<path d="M185.303 340.309C185.303 340.361 185.158 340.456 184.948 340.524C184.739 340.593 184.548 340.628 184.53 340.576C184.512 340.524 184.675 340.438 184.885 340.361C185.094 340.283 185.285 340.266 185.303 340.309Z" fill="#263238"/>
<path d="M187.041 340.421C187.041 340.421 186.823 340.369 186.586 340.352C186.35 340.335 186.15 340.352 186.131 340.352C186.113 340.352 186.313 340.18 186.614 340.214C186.914 340.249 187.078 340.387 187.041 340.421Z" fill="#263238"/>
<path d="M188.215 340.628C188.215 340.628 188.097 340.705 187.961 340.697C187.824 340.688 187.715 340.637 187.724 340.593C187.733 340.55 187.842 340.507 187.97 340.516C188.097 340.524 188.215 340.576 188.215 340.628Z" fill="#263238"/>
<path d="M275.73 233.309L272.472 217.793C270.106 205.156 251.36 204.294 251.36 204.294L236.6 204.061C236.6 204.061 225.68 202.673 218.955 209.863C211.994 217.302 203.43 226.103 203.43 226.103L209.964 241.679L225.434 229.611C224.141 231.761 223.428 234.18 223.359 236.653C223.359 240.782 227.909 242.687 227.909 242.687L229.32 255.212L224.77 275.495L272.827 273.668C272.016 266.865 269.586 260.325 265.72 254.54L266.63 233.309H275.73Z" fill="#92E3A9"/>
<path d="M255.137 215.957C255.266 216.276 255.351 216.609 255.392 216.948C255.546 217.681 255.728 218.586 255.956 219.663C256.447 222.06 257.084 225.18 257.776 228.628C258.467 232.076 259.086 235.317 259.468 237.628C259.669 238.783 259.805 239.722 259.887 240.369C259.953 240.704 259.974 241.046 259.951 241.386C259.83 241.065 259.748 240.733 259.705 240.395C259.55 239.662 259.359 238.757 259.141 237.679C258.649 235.283 258.012 232.162 257.321 228.714C256.629 225.266 256.01 222.034 255.628 219.715C255.428 218.56 255.291 217.629 255.21 216.974C255.15 216.638 255.126 216.297 255.137 215.957Z" fill="#263238"/>
<path d="M276.012 232.499C273.059 232.738 270.094 232.825 267.13 232.757C264.168 232.84 261.204 232.774 258.249 232.559C261.202 232.325 264.167 232.242 267.13 232.309C270.092 232.226 273.057 232.289 276.012 232.499Z" fill="#263238"/>
<path d="M277.841 246.532C276.931 239.102 275.63 232.74 275.63 232.74H258.613C258.613 232.74 260.724 242.222 260.26 244.377C259.841 246.282 226.872 247.541 218.282 247.67C217.763 247.308 217.026 247.92 216.362 247.368C215.775 246.875 215.28 246.292 214.896 245.644C214.39 244.858 213.995 244.011 213.723 243.127C213.69 242.962 213.608 242.809 213.485 242.687C213.362 242.565 213.204 242.481 213.031 242.443C212.858 242.405 212.677 242.417 212.51 242.475C212.343 242.534 212.199 242.638 212.094 242.774C211.748 243.472 212.139 245.791 213.768 248.032C215.397 250.273 211.12 249.109 209.555 248.713C207.99 248.316 203.076 247.308 202.575 247.678C201.829 248.221 202.293 249.092 203.867 249.454C205.442 249.816 210.092 251.178 209.837 252.04C209.582 252.902 201.647 250.687 201.647 250.687C201.647 250.687 200.027 249.971 199.699 250.876C199.117 252.514 207.735 254.169 208.563 254.324C209.136 254.428 208.89 255.299 208.281 255.186C207.671 255.074 200.4 252.885 199.79 254.549C199.317 255.824 206.87 255.98 208.117 257.238C209.364 258.497 202.402 256.557 202.002 257.79C201.856 258.255 204.732 258.462 208.918 259.022C213.197 259.409 217.497 259.553 221.794 259.453C231.449 259.953 265.593 260.626 272.882 260.134C281.363 259.522 278.169 249.118 277.841 246.532Z" fill="#FFBE9D"/>
<path d="M223.769 233.749C223.901 233.039 224.096 232.341 224.351 231.663C224.552 231.016 224.797 230.257 225.107 229.421C225.261 229.008 225.434 228.559 225.625 228.12C225.735 227.878 225.871 227.671 225.935 227.473C226.007 227.256 226.038 227.028 226.026 226.801C225.981 226.32 225.905 225.842 225.798 225.37C225.707 224.904 225.616 224.456 225.525 224.017C225.38 223.155 225.234 222.413 225.107 221.706C224.938 221.002 224.846 220.282 224.834 219.56C225.113 220.233 225.314 220.932 225.434 221.646C225.598 222.344 225.771 223.111 225.953 223.93L226.253 225.292C226.377 225.785 226.459 226.287 226.499 226.792C226.514 227.07 226.474 227.348 226.381 227.611C226.285 227.844 226.176 228.071 226.053 228.292C225.862 228.723 225.68 229.154 225.516 229.568C225.216 230.352 224.925 231.085 224.67 231.757C224.458 232.454 224.155 233.123 223.769 233.749Z" fill="#263238"/>
<path d="M243.607 174.986C244.917 176.589 246.337 178.434 246.055 180.442C245.827 182.166 244.344 183.761 244.59 185.52C244.881 187.545 247.32 188.873 247.484 190.916C247.584 192.64 246.046 193.916 244.963 195.226C244.168 196.195 243.583 197.302 243.241 198.486C242.899 199.669 242.807 200.905 242.97 202.122C243.149 203.332 243.617 204.488 244.337 205.502C245.058 206.516 246.012 207.362 247.129 207.975C248.261 208.568 249.535 208.873 250.828 208.861C252.122 208.849 253.39 208.52 254.509 207.906C256.482 206.602 257.919 204.693 258.577 202.501C259.596 199.725 259.869 196.467 258.131 194.019C257.421 193.036 256.393 192.192 256.165 191.019C255.874 189.537 256.984 188.14 257.157 186.64C257.394 184.632 255.928 182.796 254.309 181.468C252.689 180.141 250.778 179.089 249.568 177.425" fill="#263238"/>
<g opacity="0.3">
<path d="M255.71 220.155C256.301 228.775 256.62 236.748 256.838 245.394C258.053 245.344 259.233 244.994 260.26 244.377C260.724 240.688 257.776 229.456 255.71 220.155Z" fill="black"/>
</g>
<path d="M233.524 216.181C233.392 215.523 233.465 214.843 233.734 214.224C234.043 213.173 234.525 212.405 234.644 212.457C234.604 213.106 234.45 213.744 234.189 214.345C234.071 214.986 233.847 215.606 233.524 216.181Z" fill="#FAFAFA"/>
<path d="M223.86 216.155C223.787 216.259 223.141 215.957 222.513 215.388C221.885 214.819 221.521 214.224 221.603 214.155C221.685 214.086 222.213 214.526 222.814 215.06C223.414 215.595 223.924 216.052 223.86 216.155Z" fill="#FAFAFA"/>
<path d="M214.623 223.31C214.623 223.31 214.542 223.232 214.487 223.077H214.696C214.838 223.78 214.838 224.503 214.696 225.206C214.642 226.011 214.324 226.779 213.786 227.404C213.893 226.636 214.054 225.876 214.269 225.129C214.432 224.267 214.469 223.456 214.523 223.086H214.733C214.678 223.258 214.66 223.301 214.623 223.31Z" fill="#FAFAFA"/>
<path d="M214.214 232.257C213.519 232.23 212.839 232.059 212.221 231.757C211.165 231.369 210.346 230.964 210.401 230.844C211.099 230.869 211.782 231.04 212.403 231.344C213.44 231.731 214.259 232.137 214.214 232.257Z" fill="#FAFAFA"/>
<path d="M222.04 227.301C221.913 227.301 221.931 226.525 222.231 225.637C222.531 224.749 222.95 224.111 223.068 224.163C223.187 224.215 222.959 224.913 222.677 225.766C222.395 226.62 222.131 227.318 222.04 227.301Z" fill="#FAFAFA"/>
<path d="M230.23 207.682C230.23 207.802 229.548 207.932 228.692 207.975C227.837 208.018 227.145 207.975 227.136 207.82C227.127 207.664 227.819 207.561 228.674 207.527C229.529 207.492 230.23 207.552 230.23 207.682Z" fill="#FAFAFA"/>
<path d="M231.895 224.517C231.813 224.603 231.076 224.086 230.585 223.137C230.217 222.596 230.087 221.941 230.221 221.31C230.357 221.31 230.549 222.077 231.004 222.939C231.459 223.801 231.995 224.422 231.895 224.517Z" fill="#FAFAFA"/>
<path d="M248.057 220.905C248.148 220.991 247.575 221.681 246.71 222.387C245.846 223.094 245.036 223.525 244.963 223.422C244.89 223.318 245.554 222.732 246.401 222.043C247.247 221.353 247.966 220.819 248.057 220.905Z" fill="#FAFAFA"/>
<path d="M240.067 218.526C240.14 218.629 239.639 219.103 238.939 219.595C238.238 220.086 237.601 220.413 237.528 220.31C237.455 220.207 237.956 219.732 238.657 219.241C239.357 218.75 239.985 218.431 240.067 218.526Z" fill="#FAFAFA"/>
<path d="M243.989 212.336C243.25 212.19 242.574 211.835 242.051 211.319C241.141 210.552 240.586 209.725 240.695 209.656C240.804 209.587 241.459 210.25 242.36 210.974C243.261 211.699 244.053 212.224 243.989 212.336Z" fill="#FAFAFA"/>
<path d="M253.189 209.923C253.262 210.018 252.752 210.518 252.034 211.026C251.315 211.535 250.669 211.888 250.587 211.785C250.505 211.681 251.023 211.19 251.742 210.673C252.461 210.156 253.107 209.819 253.189 209.923Z" fill="#FAFAFA"/>
<path d="M260.87 213.371C260.858 212.748 260.956 212.127 261.161 211.535C261.37 210.543 261.507 209.725 261.643 209.733C261.845 210.348 261.845 211.006 261.643 211.621C261.416 212.655 260.988 213.414 260.87 213.371Z" fill="#FAFAFA"/>
<path d="M262.226 221.672C262.135 221.758 261.316 221.181 260.406 220.37C259.496 219.56 258.795 218.836 258.886 218.75C258.977 218.664 259.796 219.232 260.706 220.043C261.616 220.853 262.317 221.577 262.226 221.672Z" fill="#FAFAFA"/>
<path d="M268.45 218.181C268.332 218.129 268.568 217.319 268.978 216.457C269.387 215.595 269.824 214.836 269.942 214.888C269.909 215.494 269.729 216.084 269.415 216.612C268.996 217.526 268.559 218.233 268.45 218.181Z" fill="#FAFAFA"/>
<path d="M268.769 228.154C268.924 227.433 269.234 226.749 269.679 226.146C269.985 225.476 270.427 224.87 270.98 224.361C270.825 225.08 270.516 225.761 270.07 226.361C269.765 227.034 269.323 227.644 268.769 228.154Z" fill="#FAFAFA"/>
<path d="M262.635 229.68C262.526 229.757 261.907 229.137 261.234 228.292C260.56 227.447 260.114 226.715 260.214 226.637C260.315 226.559 260.952 227.18 261.616 228.025C262.28 228.87 262.735 229.602 262.635 229.68Z" fill="#FAFAFA"/>
<path d="M251.06 233.947C251.279 233.043 251.705 232.196 252.307 231.464C252.782 230.656 253.441 229.959 254.236 229.421C253.811 230.233 253.298 231.002 252.707 231.714C252.239 232.509 251.687 233.257 251.06 233.947Z" fill="#FAFAFA"/>
<path d="M242.743 233.154C242.186 232.573 241.751 231.897 241.459 231.163C241.03 230.49 240.737 229.748 240.595 228.973C241.585 230.225 242.314 231.644 242.743 233.154Z" fill="#FAFAFA"/>
<path d="M232.268 230.844C231.746 231.564 231.1 232.196 230.357 232.714C229.718 233.344 228.971 233.866 228.146 234.257C228.055 234.162 228.91 233.326 230.048 232.378C230.689 231.749 231.44 231.23 232.268 230.844Z" fill="#FAFAFA"/>
<path d="M236.245 241.619C236.136 241.696 235.39 240.895 234.425 239.964C233.461 239.033 232.605 238.309 232.687 238.24C233.493 238.539 234.211 239.018 234.78 239.636C235.433 240.173 235.936 240.854 236.245 241.619Z" fill="#FAFAFA"/>
<path d="M243.58 241.946C243.632 241.157 243.912 240.397 244.389 239.748C245.072 238.627 245.9 237.903 245.991 238.024C245.664 238.714 245.262 239.37 244.79 239.981C244.459 240.674 244.053 241.332 243.58 241.946Z" fill="#FAFAFA"/>
<path d="M253.89 243.084C253.057 242.712 252.297 242.207 251.642 241.593C250.887 241.088 250.226 240.467 249.686 239.757C250.522 240.128 251.285 240.633 251.943 241.248C252.695 241.753 253.353 242.373 253.89 243.084Z" fill="#FAFAFA"/>
<path d="M252.98 217.414C252.267 217.305 251.601 217.006 251.06 216.552C250.095 215.888 249.504 215.155 249.595 215.069C249.686 214.983 250.414 215.552 251.342 216.19C252.27 216.827 252.98 217.302 252.98 217.414Z" fill="#FAFAFA"/>
<path d="M238.083 261.591C238.138 261.712 237.401 262.082 236.582 262.66C235.763 263.238 235.153 263.781 235.053 263.703C234.953 263.625 235.417 262.91 236.3 262.298C237.182 261.686 238.047 261.479 238.083 261.591Z" fill="#FAFAFA"/>
<path d="M249.094 265.849C248.301 264.685 247.788 263.37 247.593 261.996C248.382 263.162 248.895 264.477 249.094 265.849Z" fill="#FAFAFA"/>
<path d="M260.196 262.126C260.296 262.212 259.723 262.919 258.931 263.703C258.14 264.487 257.421 265.056 257.33 264.97C257.239 264.884 257.803 264.177 258.595 263.393C259.386 262.608 260.105 262.048 260.196 262.126Z" fill="#FAFAFA"/>
<path d="M268.45 267.798C268.35 267.892 267.613 267.341 266.521 267.142C265.429 266.944 264.528 267.142 264.482 267.03C264.787 266.822 265.139 266.683 265.511 266.626C265.882 266.569 266.262 266.596 266.621 266.703C267.822 266.936 268.514 267.729 268.45 267.798Z" fill="#FAFAFA"/>
<path d="M272.936 271.633C272.936 271.633 210.092 259.16 204.004 261.893C197.916 264.625 169.861 330.318 169.861 330.318L192.456 339.525L216.762 283.701C216.762 283.701 260.76 298.924 268.45 297.39C276.139 295.856 272.936 271.633 272.936 271.633Z" fill="#455A64"/>
<path d="M244.845 275.133C243.889 275.435 207.535 289.598 204.968 294.14C202.402 298.683 208.699 374.255 208.699 374.255H229.375L228.101 307.096L268.45 297.39L244.845 275.133Z" fill="#455A64"/>
<path d="M268.659 297.571C268.46 297.564 268.263 297.541 268.068 297.502L266.375 297.218C264.91 296.959 262.79 296.562 260.178 296.037C254.964 294.994 247.775 293.451 239.949 291.287C236.036 290.218 232.341 289.098 229.029 288.011C225.716 286.925 222.723 285.839 220.275 284.848C219.037 284.374 217.936 283.9 216.971 283.486C216.007 283.072 215.151 282.719 214.505 282.391L212.976 281.659C212.79 281.582 212.613 281.486 212.449 281.374C212.642 281.429 212.831 281.498 213.013 281.581L214.587 282.236C215.261 282.529 216.098 282.874 217.071 283.262C218.045 283.65 219.155 284.124 220.393 284.555C222.859 285.512 225.853 286.52 229.174 287.624C232.496 288.727 236.2 289.787 240.094 290.856C247.911 292.985 255.073 294.606 260.269 295.726L266.43 297.045L268.104 297.407C268.295 297.444 268.481 297.499 268.659 297.571Z" fill="#263238"/>
<path d="M204.978 311.501C204.876 311.131 204.812 310.753 204.786 310.372C204.695 309.553 204.577 308.51 204.441 307.269C204.304 306.027 204.158 304.381 203.995 302.674C203.716 300.784 203.716 298.866 203.995 296.976C204.398 295.066 205.457 293.335 207.007 292.054C208.24 291.013 209.637 290.161 211.147 289.529C212.148 289.097 213.172 288.714 214.214 288.382C214.59 288.239 214.98 288.132 215.379 288.063C215.379 288.141 213.777 288.684 211.293 289.787C209.837 290.436 208.493 291.291 207.307 292.321C205.848 293.559 204.849 295.21 204.459 297.028C204.204 298.879 204.204 300.754 204.459 302.605C204.595 304.329 204.714 305.872 204.814 307.208C204.914 308.544 204.959 309.501 205.005 310.32C205.042 310.713 205.033 311.109 204.978 311.501Z" fill="#263238"/>
<path d="M223.114 305.01C224.86 305.413 226.517 306.104 228.01 307.053C226.265 306.647 224.608 305.955 223.114 305.01Z" fill="#263238"/>
<path d="M224.943 302.941C225.532 303.649 226.082 304.386 226.59 305.148C227.5 306.329 228.474 307.148 228.41 307.251C227.519 306.842 226.766 306.206 226.235 305.415C225.566 304.723 225.118 303.865 224.943 302.941Z" fill="#263238"/>
<path d="M232.878 306.01C232.878 306.01 232.814 306.174 232.559 306.32C232.19 306.506 231.776 306.598 231.358 306.588C230.785 306.569 230.21 306.583 229.638 306.631C229.332 306.674 229.054 306.826 228.863 307.057C228.672 307.288 228.581 307.58 228.61 307.872C228.68 309.62 228.595 311.37 228.355 313.104C228.122 311.361 228.049 309.601 228.137 307.846C228.141 307.446 228.278 307.057 228.528 306.734C228.796 306.448 229.165 306.264 229.566 306.217C230.173 306.186 230.782 306.203 231.386 306.269C231.898 306.304 232.412 306.215 232.878 306.01Z" fill="#263238"/>
<path opacity="0.3" d="M227.918 261.505L270.752 264.763L268.923 260.221L228.337 259.669L227.918 261.505Z" fill="black"/>
<path d="M343.853 252.6H91.3367V258.979H104.841L97.8796 380.297L101.72 380.495L108.699 258.979H330.084L336.017 380.401H339.876L333.934 258.979H343.853V252.6Z" fill="#263238"/>
<path d="M164.983 214.879L178.988 253.635H242.397L241.923 251.644L216.289 250.885L204.477 214.854L164.983 214.879Z" fill="#263238"/>
<path d="M193.084 233.076C193.502 234.671 192.783 236.222 191.482 236.524C190.181 236.826 188.752 235.835 188.361 234.24C187.97 232.645 188.661 231.102 189.962 230.792C191.264 230.482 192.665 231.49 193.084 233.076Z" fill="white"/>
</svg>
