<svg width="49" height="58" viewBox="0 0 49 58" fill="none" xmlns="http://www.w3.org/2000/svg">
<path d="M2.42219 53.2522L1.04468 48.6808H1.0077C1.01348 48.7913 1.02273 48.9559 1.03544 49.1746C1.047 49.3945 1.05855 49.6284 1.0678 49.8754C1.07935 50.1199 1.08629 50.3433 1.08629 50.5432V53.2522H0V47.425H1.65023L3.00925 51.8836H3.03236L4.46533 47.425H6.12019V53.2522H4.98767V50.4962C4.98767 50.3116 4.98999 50.0999 4.99692 49.8612C5.0027 49.6237 5.01079 49.3956 5.02003 49.1793C5.03159 48.9629 5.04083 48.8007 5.04777 48.6902H5.01079L3.53621 53.2522H2.42219Z" fill="#40694B"/>
<path d="M11.9792 53.2521L11.5632 51.8647H9.47846L9.06244 53.2521H7.75427L9.7743 47.4014H11.2581L13.2874 53.2521H11.9792ZM11.2766 50.83L10.8606 49.4755C10.8329 49.3849 10.797 49.2685 10.7543 49.1274C10.7104 48.984 10.6676 48.8382 10.6248 48.6901C10.5809 48.5431 10.5474 48.4161 10.5231 48.3091C10.4954 48.4161 10.4584 48.5513 10.4122 48.7136C10.3683 48.8735 10.3255 49.0263 10.2828 49.1698C10.2423 49.3109 10.2134 49.4132 10.195 49.4755L9.78355 50.83H11.2766Z" fill="#40694B"/>
<path d="M17.3538 48.3703C17.1226 48.3703 16.9169 48.4173 16.739 48.5113C16.5598 48.6031 16.4085 48.7347 16.286 48.9064C16.1658 49.0793 16.0733 49.2874 16.0086 49.5319C15.9462 49.7765 15.9162 50.0516 15.9162 50.355C15.9162 50.7665 15.9647 51.1169 16.0641 51.4085C16.1658 51.7001 16.3229 51.9235 16.5356 52.0763C16.7482 52.2268 17.0209 52.3021 17.3538 52.3021C17.5849 52.3021 17.8172 52.2762 18.0518 52.2221C18.2852 52.1692 18.5394 52.094 18.8145 51.9964V53.0311C18.5614 53.1381 18.3118 53.2145 18.0656 53.2615C17.8218 53.3085 17.5456 53.3321 17.2382 53.3321C16.6488 53.3321 16.1635 53.2086 15.7821 52.9605C15.4031 52.7136 15.1223 52.3656 14.9408 51.9164C14.7582 51.4684 14.6681 50.9452 14.6681 50.3456C14.6681 49.907 14.7259 49.5037 14.8437 49.1369C14.9605 48.77 15.1315 48.4537 15.3568 48.1868C15.5845 47.9176 15.8653 47.7106 16.1981 47.566C16.5333 47.419 16.9192 47.345 17.3538 47.345C17.6369 47.345 17.9223 47.3814 18.2089 47.4531C18.4955 47.526 18.7694 47.626 19.0317 47.7541L18.6388 48.7559C18.4227 48.6524 18.2066 48.5631 17.9917 48.4878C17.7756 48.4102 17.5629 48.3703 17.3538 48.3703Z" fill="#40694B"/>
<path d="M23.1561 53.2522H21.9404V48.455H20.3872V47.425H24.7092V48.455H23.1561V53.2522Z" fill="#40694B"/>
<path d="M31.1966 53.2522H29.9855V50.736H27.7205V53.2522H26.5048V47.425H27.7205V49.7107H29.9855V47.425H31.1966V53.2522Z" fill="#40694B"/>
<path d="M33.5548 53.2522V47.425H34.7705V53.2522H33.5548Z" fill="#40694B"/>
<path d="M42.2041 53.2522H40.6602L38.1687 48.8454H38.1317C38.1433 49.0276 38.1525 49.2122 38.1595 49.4003C38.1687 49.5861 38.1756 49.7707 38.1826 49.9553C38.1918 50.1411 38.2011 50.3257 38.2103 50.5103V53.2522H37.124V47.425H38.6541L41.141 51.7895H41.1687C41.1618 51.6085 41.1548 51.4297 41.1456 51.2534C41.1387 51.0747 41.1329 50.8959 41.1271 50.7172C41.1202 50.5385 41.1144 50.3621 41.1086 50.1858V47.425H42.2041V53.2522Z" fill="#40694B"/>
<path d="M46.7304 49.9787H49V53.0028C48.7007 53.104 48.3899 53.1839 48.0663 53.2427C47.7427 53.3015 47.3752 53.3321 46.9661 53.3321C46.3953 53.3321 45.9122 53.218 45.5147 52.9887C45.1195 52.7606 44.819 52.4232 44.6133 51.9776C44.4064 51.5331 44.3036 50.984 44.3036 50.3315C44.3036 49.7201 44.4192 49.1921 44.6503 48.7465C44.8814 48.3021 45.2188 47.9564 45.6626 47.7118C46.1087 47.4673 46.653 47.345 47.2943 47.345C47.596 47.345 47.8953 47.3779 48.1911 47.4437C48.4869 47.5096 48.7551 47.5966 48.9954 47.7024L48.5886 48.6901C48.4153 48.5995 48.2165 48.5243 47.9923 48.4643C47.767 48.402 47.5312 48.3703 47.2851 48.3703C46.9338 48.3703 46.6264 48.4537 46.3652 48.6195C46.1064 48.783 45.9053 49.0134 45.7643 49.3109C45.6222 49.606 45.5517 49.954 45.5517 50.355C45.5517 50.7348 45.6025 51.0722 45.7042 51.3662C45.8059 51.6577 45.9654 51.887 46.1849 52.0528C46.4034 52.2198 46.69 52.3021 47.0447 52.3021C47.2169 52.3021 47.3614 52.295 47.4792 52.2786C47.5994 52.2597 47.7115 52.2409 47.8167 52.2221V51.0087H46.7304V49.9787Z" fill="#40694B"/>
<path d="M4.83472 57.967V55.5496H5.10744V57.967H4.83472Z" fill="#40694B"/>
<path d="M9.95042 57.967H9.63609L8.33717 55.9399H8.3233C8.34179 56.1786 8.35104 56.3961 8.35104 56.5937V57.967H8.0968V55.5496H8.40651L9.70081 57.5719H9.71468C9.71121 57.5413 9.70659 57.4449 9.70081 57.285C9.69387 57.1228 9.69156 57.0064 9.69156 56.937V55.5496H9.95042V57.967Z" fill="#40694B"/>
<path d="M13.6686 57.967H13.3913V55.7988H12.6378V55.5496H14.4221V55.7988H13.6686V57.967Z" fill="#40694B"/>
<path d="M18.4346 57.967H17.1125V55.5496H18.4346V55.7988H17.3853V56.5795H18.3699V56.8241H17.3853V57.7177H18.4346V57.967Z" fill="#40694B"/>
<path d="M21.5695 56.9605V57.967H21.2968V55.5496H21.9485C22.2374 55.5496 22.4524 55.606 22.5911 55.7189C22.732 55.8317 22.8037 56.0034 22.8037 56.2315C22.8037 56.5513 22.6431 56.7677 22.3229 56.8805L22.9701 57.967H22.6419L22.0687 56.9605H21.5695ZM21.5695 56.7206H21.9485C22.145 56.7206 22.2883 56.6818 22.3784 56.6031C22.4709 56.5255 22.5171 56.4055 22.5171 56.2456C22.5171 56.0857 22.4709 55.9717 22.3784 55.9023C22.286 55.8306 22.1357 55.7941 21.93 55.7941H21.5695V56.7206Z" fill="#40694B"/>
<path d="M27.5408 57.967H27.2264L25.9275 55.9399H25.9136C25.9321 56.1786 25.9414 56.3961 25.9414 56.5937V57.967H25.6871V55.5496H25.9968L27.2911 57.5719H27.305C27.3015 57.5413 27.2969 57.4449 27.2911 57.285C27.2842 57.1228 27.2819 57.0064 27.2819 56.937V55.5496H27.5408V57.967Z" fill="#40694B"/>
<path d="M31.8691 57.3228C31.8691 57.5368 31.7917 57.7025 31.638 57.8213C31.4866 57.9412 31.2821 58 31.0232 58C30.7389 58 30.5217 57.9624 30.3715 57.8871V57.6191C30.4697 57.6602 30.576 57.6931 30.6904 57.7178C30.8037 57.7437 30.9181 57.7554 31.0325 57.7554C31.2174 57.7554 31.3561 57.7202 31.4485 57.6473C31.541 57.5756 31.5872 57.4768 31.5872 57.351C31.5872 57.2663 31.5698 57.1981 31.5363 57.144C31.5051 57.0911 31.4508 57.0429 31.3745 56.9982C31.2971 56.9512 31.1781 56.8995 31.0186 56.843C30.7967 56.7619 30.6373 56.6667 30.5425 56.5561C30.45 56.4468 30.4038 56.3022 30.4038 56.1235C30.4038 55.9389 30.4708 55.7919 30.6072 55.6814C30.7459 55.572 30.9285 55.5168 31.1573 55.5168C31.3907 55.5168 31.608 55.5614 31.8091 55.6484L31.7212 55.893C31.5236 55.8083 31.3329 55.766 31.148 55.766C31.0024 55.766 30.8892 55.7989 30.806 55.8648C30.7228 55.9283 30.6812 56.0153 30.6812 56.1282C30.6812 56.2128 30.6962 56.2822 30.7274 56.3351C30.7574 56.3892 30.8083 56.4374 30.8799 56.4809C30.9539 56.5256 31.0648 56.575 31.2128 56.6314C31.4624 56.7196 31.6334 56.8172 31.7259 56.923C31.8206 57.0265 31.8691 57.1605 31.8691 57.3228Z" fill="#40694B"/>
<path d="M36.4911 57.967H36.2138V56.8288H34.9611V57.967H34.6884V55.5496H34.9611V56.5795H36.2138V55.5496H36.4911V57.967Z" fill="#40694B"/>
<path d="M39.4764 57.967V55.5496H39.7492V57.967H39.4764Z" fill="#40694B"/>
<path d="M44.2453 56.255C44.2453 56.4996 44.1621 56.6877 43.9957 56.8194C43.8316 56.9511 43.5982 57.0169 43.2931 57.0169H43.0111V57.967H42.7384V55.5496H43.3532C43.9472 55.5496 44.2453 55.7847 44.2453 56.255ZM43.0111 56.7771H43.2607C43.5069 56.7771 43.6837 56.7371 43.7923 56.6548C43.9033 56.5737 43.9587 56.4455 43.9587 56.2691C43.9587 56.1092 43.9056 55.9905 43.8016 55.9117C43.6999 55.8341 43.5393 55.7941 43.3208 55.7941H43.0111V56.7771Z" fill="#40694B"/>
<path d="M27.0298 7.01895C28.5287 5.82083 28.7506 3.4575 27.8122 1.84903C26.9305 0.356961 25.0364 -0.313236 23.4058 0.13944C21.083 0.717926 19.8315 3.68443 20.9929 5.8126C21.989 8.06658 25.2675 8.72854 27.0298 7.01895Z" fill="#4B9960"/>
<path d="M11.3652 13.941C13.5309 14.0327 15.4492 11.9046 15.1857 9.7176C15.2031 7.37074 12.7809 5.51064 10.5575 6.01388C8.92687 6.31488 7.54358 7.73993 7.38642 9.42483C6.97502 11.7623 9.04243 14.0997 11.3652 13.941Z" fill="#4B9960"/>
<path d="M37.7367 13.9068C39.9185 14.0585 41.8461 11.9385 41.5329 9.74218C41.6566 7.34593 39.1281 5.5023 36.9127 6.022C35.4301 6.34064 34.2109 7.54699 33.8573 9.04729C33.2309 11.4188 35.2486 14.142 37.7367 13.9068Z" fill="#4B9960"/>
<path d="M27.4747 11.9045C26.066 10.9404 24.2702 10.9992 22.6731 11.3343C20.0129 12.2314 18.2991 15.0721 18.6284 17.8963C18.6538 23.9963 18.6284 30.1057 18.6458 36.2056C18.67 39.7506 22.4339 42.7665 25.8187 41.6519C28.4951 41.325 30.4065 38.5513 30.3811 35.8952C30.4065 29.6777 30.3904 23.4602 30.3904 17.2344C30.4146 15.0968 29.3029 12.9851 27.4747 11.9045ZM22.2201 35.8952C22.2201 29.6859 22.2201 23.4766 22.2201 17.2673C22.1542 16.2455 22.7875 15.2144 23.7432 14.8711C24.9289 14.4101 26.3792 15.1979 26.6669 16.4466C26.9304 23.0239 26.8819 29.6189 26.7086 36.2056C26.675 37.0769 26.0163 37.8141 25.2259 38.0904C23.8426 38.77 22.1704 37.3614 22.2201 35.8952Z" fill="#4B9960"/>
<mask id="mask0_611_57" style="mask-type:luminance" maskUnits="userSpaceOnUse" x="31" y="16" width="13" height="21">
<path d="M31.7124 16.4288H43.6962V36.5959H31.7124V16.4288Z" fill="white"/>
</mask>
<g mask="url(#mask0_611_57)">
<path d="M43.6085 22.4794C43.5761 19.9997 41.9698 17.6023 39.6146 16.8404C38.5688 16.6052 37.4733 16.3453 36.4182 16.664C33.7995 17.2166 31.7737 19.7728 31.8315 22.5053C31.8639 25.4377 31.7575 28.3701 31.8812 31.3037C32.2267 35.1414 36.8145 37.7387 40.1659 35.854C42.3153 35.0403 43.6166 32.6017 43.6166 30.3313C43.6004 27.7081 43.6166 25.0944 43.6085 22.4794ZM35.3978 30.0209C35.422 27.5071 35.3642 24.985 35.422 22.4712C35.3897 20.9039 37.2999 19.5294 38.667 20.443C39.5892 20.8204 39.9844 21.8598 39.9105 22.8145C39.8608 25.413 40.1254 28.0268 39.8862 30.6158C39.7706 31.881 38.6913 32.8957 37.4397 32.7946C37.152 32.7699 36.855 32.6946 36.5834 32.5429C36.5672 32.5347 36.5592 32.5265 36.5418 32.5183C36.4182 32.443 36.2957 32.3595 36.1882 32.2584C35.6115 31.6799 35.3561 30.8345 35.3978 30.0209Z" fill="#4B9960"/>
</g>
<mask id="mask1_611_57" style="mask-type:luminance" maskUnits="userSpaceOnUse" x="5" y="16" width="13" height="21">
<path d="M5.31091 16.4288H17.2162V36.5959H5.31091V16.4288Z" fill="white"/>
</mask>
<g mask="url(#mask1_611_57)">
<path d="M17.163 22.4794C17.1295 19.9997 15.5243 17.6023 13.168 16.8404C12.1222 16.6052 11.0266 16.3453 9.97271 16.664C7.35407 17.2084 5.32826 19.7728 5.38488 22.4959C5.4184 25.4295 5.31092 28.3619 5.43457 31.2954C5.78126 35.1332 10.3679 37.7305 13.7204 35.8445C15.8699 35.0321 17.1711 32.5935 17.1711 30.3231C17.1549 27.7081 17.1792 25.0944 17.163 22.4794ZM8.95923 30.0209C8.98465 27.5071 8.92687 24.985 8.98465 22.4712C8.95114 20.9039 10.8625 19.5294 12.2296 20.443C13.1518 20.8204 13.5471 21.8598 13.4731 22.8145C13.4234 25.413 13.6869 28.0268 13.4488 30.6158C13.3333 31.881 12.2539 32.8957 11.0024 32.7946C10.7146 32.7699 10.4176 32.6946 10.1461 32.5429C10.1287 32.5347 10.1206 32.5265 10.1045 32.5183C9.9808 32.443 9.85715 32.3595 9.75083 32.2584C9.16609 31.6799 8.91878 30.8345 8.95923 30.0209Z" fill="#4B9960"/>
</g>
</svg>
