<svg width="58" height="58" viewBox="0 0 58 58" fill="none" xmlns="http://www.w3.org/2000/svg">
<path d="M5.29618 57.9996H3.68661L1.08911 53.2268H1.05056C1.06261 53.4242 1.07225 53.6241 1.07948 53.8279C1.08911 54.0291 1.09634 54.229 1.10357 54.4289C1.11321 54.6301 1.12285 54.8301 1.13249 55.03V57.9996H0V51.6885H1.59512L4.18779 56.4155H4.21671C4.20948 56.2194 4.20225 56.0258 4.19261 55.8348C4.18538 55.6412 4.17936 55.4477 4.17333 55.2541C4.16611 55.0605 4.16008 54.8695 4.15406 54.6785V51.6885H5.29618V57.9996Z" fill="#40694B"/>
<path d="M11.186 57.9996H7.75V51.6885H11.186V52.7887H9.01742V54.1742H11.0366V55.2694H9.01742V56.8943H11.186V57.9996Z" fill="#40694B"/>
<path d="M17.0394 57.9997L16.6057 56.4971H14.4323L13.9986 57.9997H12.6348L14.7407 51.6631H16.2876L18.4032 57.9997H17.0394ZM16.3069 55.3764L15.8732 53.9094C15.8443 53.8114 15.8069 53.6853 15.7624 53.5325C15.7166 53.3771 15.672 53.2192 15.6274 53.0588C15.5816 52.8996 15.5467 52.7621 15.5214 52.6462C15.4925 52.7621 15.4539 52.9085 15.4057 53.0842C15.36 53.2574 15.3154 53.423 15.2708 53.5783C15.2286 53.7312 15.1985 53.8419 15.1792 53.9094L14.7503 55.3764H16.3069Z" fill="#40694B"/>
<path d="M24.9082 57.9996H23.4721L21.9059 55.3407L21.3758 55.7482V57.9996H20.1084V51.6885H21.3758V54.5766C21.4589 54.4544 21.5409 54.3321 21.6216 54.2099C21.7047 54.0851 21.7879 53.959 21.8722 53.8329L23.4866 51.6885H24.8938L22.8119 54.4849L24.9082 57.9996Z" fill="#40694B"/>
<path d="M31.5027 57.9996H30.2401V55.2745H27.8787V57.9996H26.6113V51.6885H27.8787V54.164H30.2401V51.6885H31.5027V57.9996Z" fill="#40694B"/>
<path d="M37.6156 57.9997L37.1819 56.4971H35.0085L34.5747 57.9997H33.2109L35.3169 51.6631H36.8638L38.9794 57.9997H37.6156ZM36.8831 55.3764L36.4494 53.9094C36.4205 53.8114 36.3831 53.6853 36.3385 53.5325C36.2927 53.3771 36.2482 53.2192 36.2036 53.0588C36.1578 52.8996 36.1229 52.7621 36.0976 52.6462C36.0687 52.7621 36.0301 52.9085 35.9819 53.0842C35.9361 53.2574 35.8916 53.423 35.847 53.5783C35.8048 53.7312 35.7747 53.8419 35.7554 53.9094L35.3265 55.3764H36.8831Z" fill="#40694B"/>
<path d="M42.9872 57.9999H41.7198V52.8043H40.1006V51.6887H44.6064V52.8043H42.9872V57.9999Z" fill="#40694B"/>
<path d="M51.2774 57.9996H49.8413L48.2751 55.3407L47.745 55.7482V57.9996H46.4775V51.6885H47.745V54.5766C47.8281 54.4544 47.91 54.3321 47.9907 54.2099C48.0739 54.0851 48.157 53.959 48.2413 53.8329L49.8557 51.6885H51.2629L49.181 54.4849L51.2774 57.9996Z" fill="#40694B"/>
<path d="M56.6361 58L56.2024 56.4973H54.029L53.5952 58H52.2314L54.3374 51.6633H55.8843L57.9999 58H56.6361ZM55.9036 55.3767L55.4699 53.9097C55.441 53.8116 55.4036 53.6856 55.359 53.5327C55.3133 53.3774 55.2687 53.2195 55.2241 53.059C55.1783 52.8998 55.1434 52.7623 55.1181 52.6464C55.0892 52.7623 55.0506 52.9088 55.0024 53.0845C54.9566 53.2577 54.9121 53.4232 54.8675 53.5786C54.8253 53.7314 54.7952 53.8422 54.7759 53.9097L54.347 55.3767H55.9036Z" fill="#40694B"/>
<path d="M31.3533 7.71658C32.9446 6.39937 33.1801 3.80115 32.1839 2.03281C31.2477 0.39244 29.2368 -0.34437 27.5056 0.1533C25.0395 0.789283 23.7108 4.05063 24.9438 6.39033C26.0014 8.86833 29.4822 9.59609 31.3533 7.71658Z" fill="#4B9960"/>
<path d="M14.4924 15.0378C16.7756 15.1382 18.798 12.8085 18.5202 10.4144C18.5385 7.84528 15.9848 5.80902 13.6407 6.35992C11.9217 6.68943 10.4633 8.24945 10.2976 10.0939C9.86386 12.6528 12.0435 15.2116 14.4924 15.0378Z" fill="#4B9960"/>
<path d="M42.9512 15.0306C45.2667 15.1973 47.3123 12.8677 46.98 10.4542C47.1112 7.82111 44.4278 5.79523 42.0768 6.3663C40.5033 6.71644 39.2094 8.04205 38.8342 9.69066C38.1694 12.2967 40.3108 15.289 42.9512 15.0306Z" fill="#4B9960"/>
<path d="M31.9254 13.3774C30.3686 12.3561 28.384 12.4184 26.619 12.7733C23.6791 13.7237 21.7852 16.7329 22.1492 19.7246C22.1772 26.1864 22.1492 32.6582 22.1683 39.1199C22.1951 42.8752 26.3547 46.07 30.0953 44.8892C33.0531 44.543 35.1654 41.6048 35.1373 38.7911C35.1654 32.2048 35.1475 25.6184 35.1475 19.0234C35.1743 16.759 33.9458 14.5221 31.9254 13.3774ZM26.1184 38.7911C26.1184 32.2135 26.1184 25.6359 26.1184 19.0583C26.0456 17.9759 26.7454 16.8836 27.8016 16.5199C29.1119 16.0316 30.7147 16.8661 31.0327 18.1889C31.3239 25.1564 31.2702 32.1425 31.0787 39.1199C31.0416 40.0429 30.3137 40.8238 29.4401 41.1165C27.9114 41.8364 26.0635 40.3443 26.1184 38.7911Z" fill="#4B9960"/>
<mask id="mask0_2531_4060" style="mask-type:luminance" maskUnits="userSpaceOnUse" x="36" y="18" width="13" height="22">
<path d="M36.1846 18.118H48.6781V39.9601H36.1846V18.118Z" fill="white"/>
</mask>
<g mask="url(#mask0_2531_4060)">
<path d="M48.5871 24.6712C48.5534 21.9855 46.8788 19.3889 44.4234 18.5637C43.3331 18.3091 42.191 18.0276 41.091 18.3727C38.361 18.9713 36.2491 21.7397 36.3093 24.6992C36.343 27.8751 36.2322 31.0511 36.3611 34.2283C36.7213 38.3848 41.5043 41.1979 44.9981 39.1565C47.239 38.2753 48.5956 35.6342 48.5956 33.1752C48.5787 30.3341 48.5956 27.5033 48.5871 24.6712ZM40.0272 32.839C40.0525 30.1164 39.9923 27.3849 40.0525 24.6623C40.0188 22.9648 42.0103 21.4761 43.4355 22.4656C44.3969 22.8743 44.809 24.0001 44.7319 25.0341C44.6801 27.8484 44.956 30.6793 44.7066 33.4834C44.5861 34.8536 43.4608 35.9526 42.1561 35.843C41.8561 35.8163 41.5464 35.7348 41.2633 35.5705C41.2465 35.5616 41.238 35.5527 41.22 35.5438C41.091 35.4623 40.9633 35.3719 40.8513 35.2624C40.2501 34.6358 39.9839 33.7202 40.0272 32.839Z" fill="#4B9960"/>
</g>
<mask id="mask1_2531_4060" style="mask-type:luminance" maskUnits="userSpaceOnUse" x="8" y="18" width="14" height="22">
<path d="M8.66016 18.118H21.0717V39.9601H8.66016V18.118Z" fill="white"/>
</mask>
<g mask="url(#mask1_2531_4060)">
<path d="M21.0167 24.6712C20.9818 21.9855 19.3083 19.3889 16.8518 18.5637C15.7615 18.3091 14.6194 18.0276 13.5206 18.3727C10.7906 18.9623 8.67864 21.7397 8.73767 24.689C8.77261 27.8662 8.66057 31.0422 8.78948 34.2194C9.15091 38.3759 13.9327 41.1889 17.4277 39.1463C19.6686 38.2664 21.0252 35.6253 21.0252 33.1663C21.0083 30.3341 21.0336 27.5033 21.0167 24.6712ZM12.464 32.839C12.4905 30.1164 12.4303 27.3849 12.4905 24.6623C12.4556 22.9648 14.4483 21.4761 15.8735 22.4656C16.835 22.8743 17.247 24.0001 17.1699 25.0341C17.1181 27.8484 17.3928 30.6793 17.1446 33.4834C17.0241 34.8536 15.8988 35.9526 14.5941 35.843C14.2941 35.8163 13.9845 35.7348 13.7013 35.5705C13.6833 35.5616 13.6748 35.5527 13.658 35.5438C13.5291 35.4623 13.4001 35.3719 13.2893 35.2624C12.6797 34.6358 12.4219 33.7202 12.464 32.839Z" fill="#4B9960"/>
</g>
</svg>
